SplineFontDB: 3.2
FontName: ZameroSans-Bold
FullName: Zamero Sans Bold
FamilyName: Zamero Sans
Weight: Bold
Copyright: Copyright (c) 2024-2025, Zamero Type Foundry
UComments: "2024-1-17: Created with FontForge (http://fontforge.org)+AAoACgAK-Instead of Charlie and the Alphabet and Charlie and the Numbers, how about Charlie and the Fonts? :)"
Version: 002.000
ItalicAngle: 0
UnderlinePosition: -100
UnderlineWidth: 50
Ascent: 800
Descent: 200
InvalidEm: 0
LayerCount: 2
Layer: 0 0 "Back" 1
Layer: 1 0 "Fore" 0
XUID: [1021 474 1118879153 20760]
StyleMap: 0x0020
FSType: 0
OS2Version: 0
OS2_WeightWidthSlopeOnly: 0
OS2_UseTypoMetrics: 1
CreationTime: 1705525712
ModificationTime: 1751649457
PfmFamily: 33
TTFWeight: 700
TTFWidth: 5
LineGap: 90
VLineGap: 90
OS2TypoAscent: 0
OS2TypoAOffset: 1
OS2TypoDescent: 0
OS2TypoDOffset: 1
OS2TypoLinegap: 90
OS2WinAscent: 0
OS2WinAOffset: 1
OS2WinDescent: 0
OS2WinDOffset: 1
HheadAscent: 0
HheadAOffset: 1
HheadDescent: 0
HheadDOffset: 1
OS2Vendor: 'ZAM '
Lookup: 4 0 0 "Ligature Substitution lookup 81" { "Ligature Substitution lookup 81 subtable"  } []
Lookup: 1 0 0 "'case' Case-Sensitive Forms lookup 27" { "'case' Case-Sensitive Forms lookup 27-1" ("case") } ['case' ('DFLT' <'dflt' > 'grek' <'dflt' > 'latn' <'AZE ' 'CAT ' 'CRT ' 'KAZ ' 'MOL ' 'NLD ' 'ROM ' 'TAT ' 'TRK ' 'dflt' > ) ]
Lookup: 1 0 0 "Single Substitution lookup 5" { "Single Substitution lookup 5 subtable"  } []
Lookup: 1 0 0 "Single Substitution lookup 6" { "Single Substitution lookup 6 subtable"  } []
Lookup: 1 0 0 "'onum' Oldstyle Figures lookup 18" { "'onum' Oldstyle Figures lookup 18-1" ("osf") } ['onum' ('DFLT' <'dflt' > 'grek' <'dflt' > 'latn' <'dflt' > ) ]
Lookup: 1 0 0 "'tnum' Tabular Numbers lookup 17" { "'tnum' Tabular Numbers lookup 17-1" ("tf") } ['tnum' ('DFLT' <'dflt' > 'grek' <'dflt' > 'latn' <'dflt' > ) ]
Lookup: 1 0 0 "'dnom' Denominators lookup 0" { "'dnom' Denominators lookup 0 subtable" ("dnom") } ['dnom' ('DFLT' <'dflt' > 'latn' <'dflt' > ) ]

StartChar: I
Encoding: 73 73 0
Width: 442
Flags: W
HStem: 0 142<30 138.5 303.5 412> 30 112<138.5 303.5> 588 143<30 138.5 303.5 412> 588 113<138.5 303.5>
VStem: 30 382<0 142 588 731> 138.5 165<30 701>
AnchorPoint: "Anchor-3" 235 0 basechar 0
AnchorPoint: "Anchor-2" 222 0 basechar 0
AnchorPoint: "Anchor-0" 220 731 basechar 0
LayerCount: 2
Fore
SplineSet
412 0 m 1x88
 30 0 l 1
 30 142 l 1
 412 142 l 1
 412 0 l 1x88
412 588 m 1x28
 30 588 l 1
 30 731 l 1
 412 731 l 1
 412 588 l 1x28
138.5 30 m 1x54
 138.5 701 l 1
 303.5 701 l 1
 303.5 30 l 1
 138.5 30 l 1x54
EndSplineSet
Validated: 5
EndChar

StartChar: O
Encoding: 79 79 1
Width: 797
Flags: W
HStem: -9.99805 155.462<309 488.777> 583.659 155.462<309 488.777>
VStem: 35 172.849<252.959 476.164> 589.929 172.849<252.959 476.164>
AnchorPoint: "Anchor-3" 471 20 basechar 0
AnchorPoint: "Anchor-2" 398 0 basechar 0
AnchorPoint: "Anchor-0" 399 731 basechar 0
LayerCount: 2
Back
SplineSet
207.848632812 364.561523438 m 4
 207.848632812 233.178843362 274.662078524 145.463867188 398.888671875 145.463867188 c 4
 523.115265226 145.463867188 589.928710938 233.178843362 589.928710938 364.561523438 c 4
 589.928710938 495.944203511 523.115265226 583.659179688 398.888671875 583.659179688 c 4
 274.662078524 583.659179688 207.848632812 495.944203511 207.848632812 364.561523438 c 4
35 364.561523438 m 4
 35 591.206054688 176.688476562 739.12109375 398.888671875 739.12109375 c 4
 621.088867188 739.12109375 762.77734375 591.206054688 762.77734375 364.561523438 c 4
 762.77734375 137.916992188 621.088867188 -9.998046875 398.888671875 -9.998046875 c 4
 176.688476562 -9.998046875 35 137.916992188 35 364.561523438 c 4
EndSplineSet
Fore
SplineSet
207.848632812 364.561523438 m 4
 207.848632812 233.178843362 274.662078524 145.463867188 398.888671875 145.463867188 c 4
 523.115265226 145.463867188 589.928710938 233.178843362 589.928710938 364.561523438 c 4
 589.928710938 495.944203511 523.115265226 583.659179688 398.888671875 583.659179688 c 4
 274.662078524 583.659179688 207.848632812 495.944203511 207.848632812 364.561523438 c 4
35 364.561523438 m 4
 35 591.206054688 176.688476562 739.12109375 398.888671875 739.12109375 c 4
 621.088867188 739.12109375 762.77734375 591.206054688 762.77734375 364.561523438 c 4
 762.77734375 137.916992188 621.088867188 -9.998046875 398.888671875 -9.998046875 c 4
 176.688476562 -9.998046875 35 137.916992188 35 364.561523438 c 4
EndSplineSet
Validated: 1
EndChar

StartChar: H
Encoding: 72 72 2
Width: 739
Flags: W
HStem: 0 21G<55 228 511 684> 285 146<140 584> 711.008 20G<55 228 511 684>
VStem: 55 173<0 285 431 731.008> 140 88<285 431> 511 173<0 285 431 731.008> 511 73<285 431>
AnchorPoint: "Anchor-2" 367 0 basechar 0
AnchorPoint: "Anchor-0" 367 731 basechar 0
LayerCount: 2
Fore
SplineSet
584 285 m 1xea
 140 285 l 1
 140 431 l 1
 584 431 l 1
 584 285 l 1xea
511 0 m 1xe4
 511 731.0078125 l 1
 684 731.0078125 l 1
 684 0 l 1
 511 0 l 1xe4
55 0 m 1xf0
 55 731.0078125 l 1
 228 731.0078125 l 1
 228 0 l 1
 55 0 l 1xf0
EndSplineSet
Validated: 5
EndChar

StartChar: V
Encoding: 86 86 4
Width: 699
Flags: W
HStem: 0 21G<242.324 454.73> 711.008 20G<5 194.034 504.899 694>
AnchorPoint: "Anchor-2" 348 0.0117188 basechar 0
AnchorPoint: "Anchor-0" 353 731 basechar 0
LayerCount: 2
Fore
SplineSet
249 0 m 1
 5 731.0078125 l 1
 188 731.0078125 l 1
 348.606445312 198.694335938 l 1
 511 731.0078125 l 1
 694 731.0078125 l 1
 448 0 l 1
 249 0 l 1
EndSplineSet
Validated: 1
EndChar

StartChar: D
Encoding: 68 68 5
Width: 727
Flags: W
HStem: 0 150.352<224 412.113> 580.65 150.358<224 414.165>
VStem: 55 169<150.352 580.65> 516.929 175.849<251.626 478.213>
AnchorPoint: "Anchor-2" 356 0 basechar 0
AnchorPoint: "Anchor-0" 350 731 basechar 0
LayerCount: 2
Fore
SplineSet
55 0 m 1
 55 731.0078125 l 1
 308.888671875 731.0078125 l 2
 521.420728331 731.0078125 692.77734375 631.206054688 692.77734375 364.561523438 c 0
 692.77734375 97.9169921875 524.73304513 -2.45359288442e-14 318.888671875 0 c 2
 55 0 l 1
224 580.649809292 m 1
 224 150.352026119 l 1
 300.888671875 150.461914062 l 2
 424.571476984 150.605158131 516.928710938 199.186481888 516.928710938 365.561523438 c 4
 516.928710938 530.396356573 424.571476984 580.411756772 300.888671875 580.545898438 c 2
 224 580.649809292 l 1
EndSplineSet
Validated: 1
EndChar

StartChar: U
Encoding: 85 85 6
Width: 719
Flags: W
HStem: -9.99805 148.462<277.808 437.969> 711.008 20G<55 224 491.777 660.777>
VStem: 55 169<198.421 731.008> 491.777 169<198.421 731.008>
AnchorPoint: "Anchor-3" 451 18 basechar 0
AnchorPoint: "Anchor-2" 358 0.0117188 basechar 0
AnchorPoint: "Anchor-0" 362 731 basechar 0
LayerCount: 2
Fore
SplineSet
357.888671875 -9.998046875 m 0
 131.688476562 -9.998046875 55 106.324679341 55 284.561523438 c 6
 55 731.0078125 l 1
 224 731.0078125 l 1
 224 324.561523438 l 2
 224 212.967409414 242.459960938 138.463867188 357.888671875 138.463867188 c 0
 473.317382812 138.463867188 491.77734375 212.967409414 491.77734375 324.561523438 c 2
 491.77734375 731.0078125 l 1
 660.77734375 731.0078125 l 1
 660.77734375 284.561523438 l 6
 660.77734375 106.324679341 584.088867188 -9.998046875 357.888671875 -9.998046875 c 0
EndSplineSet
Validated: 1
EndChar

StartChar: L
Encoding: 76 76 7
Width: 556
Flags: W
HStem: 0 149<226 532> 711.008 20G<55 226>
VStem: 55 171<149 731.008>
AnchorPoint: "Anchor-2" 308 0 basechar 0
AnchorPoint: "Anchor-0" 139 731 basechar 0
LayerCount: 2
Fore
SplineSet
226 149 m 1
 532 149 l 1
 532 0 l 1
 55 0 l 1
 55 731.0078125 l 1
 226 731.0078125 l 1
 226 149 l 1
EndSplineSet
Validated: 1
EndChar

StartChar: F
Encoding: 70 70 8
Width: 564
Flags: W
HStem: 0 21G<55 226> 271 146<140 481> 585.008 146<226 534>
VStem: 55 171<0 271 417 585.008> 140 86<271 417>
AnchorPoint: "Anchor-2" 297 0 basechar 0
AnchorPoint: "Anchor-0" 306 731 basechar 0
LayerCount: 2
Fore
SplineSet
481 271 m 1xe8
 140 271 l 1
 140 417 l 1
 481 417 l 1
 481 271 l 1xe8
226 585.0078125 m 5xf0
 226 0 l 5
 55 0 l 5
 55 731.0078125 l 5
 534 731.0078125 l 5
 534 585.0078125 l 5
 226 585.0078125 l 5xf0
EndSplineSet
Validated: 5
EndChar

StartChar: C
Encoding: 67 67 9
Width: 656
Flags: W
HStem: -9.99805 154.462<315.25 549.987> 584.659 154.462<317.557 535.919>
VStem: 35 177.849<250.322 474.045>
AnchorPoint: "Anchor-0" 399 731 basechar 0
AnchorPoint: "Anchor-2" 399 0 basechar 0
LayerCount: 2
Fore
SplineSet
35 360.561523438 m 4
 35 589.625976562 166.801757812 739.12109375 398.888671875 739.12109375 c 0
 561.736328125 739.12109375 628.681640625 680.891601562 628.681640625 680.891601562 c 1
 595.35546875 531.138671875 l 1
 595.35546875 531.138671875 532.041992188 584.659179688 419.888671875 584.659179688 c 0
 278.85546875 584.659179688 212.848632812 494.942382812 212.848632812 360.561523438 c 4
 212.848632812 230.977539062 278.85546875 144.463867188 419.888671875 144.463867188 c 4
 540.916992188 144.463867188 605.018554688 192.595703125 605.018554688 192.595703125 c 5
 631.827148438 36.595703125 l 5
 631.827148438 36.595703125 560.673828125 -9.998046875 398.888671875 -9.998046875 c 4
 166.801757812 -9.998046875 35 136.336914062 35 360.561523438 c 4
EndSplineSet
EndChar

StartChar: E
Encoding: 69 69 10
Width: 569
Flags: W
HStem: 0 146<226 539> 292 146<140 479> 585.008 146<226 539>
VStem: 140 86<292 438>
AnchorPoint: "Anchor-3" 471 0 basechar 0
AnchorPoint: "Anchor-2" 306 0 basechar 0
AnchorPoint: "Anchor-0" 306 731 basechar 0
LayerCount: 2
Fore
SplineSet
479 292 m 1
 140 292 l 1
 140 438 l 1
 479 438 l 1
 479 292 l 1
226 585.0078125 m 1
 226 146 l 1
 539 146 l 1
 539 0 l 1
 55 0 l 1
 55 731.0078125 l 1
 539 731.0078125 l 1
 539 585.0078125 l 1
 226 585.0078125 l 1
EndSplineSet
Validated: 5
EndChar

StartChar: N
Encoding: 78 78 11
Width: 749
Flags: W
HStem: 0 21G<55 217 511.977 694> 711.008 20G<55 237.379 532 694>
VStem: 55 162<0 473.005> 532 162<270.6 731.008>
AnchorPoint: "Anchor-2" 380 0 basechar 0
AnchorPoint: "Anchor-0" 378 731 basechar 0
LayerCount: 2
Fore
SplineSet
55 0 m 1
 55 731.0078125 l 1
 224 731.0078125 l 1
 532 270.599609375 l 5
 532 731.0078125 l 1
 694 731.0078125 l 1
 694 0 l 1
 525 0 l 1
 217 473.004882812 l 1
 217 0 l 1
 55 0 l 1
EndSplineSet
Validated: 1
EndChar

StartChar: M
Encoding: 77 77 12
Width: 840
Flags: W
HStem: 0 21G<55 224 616 785> 711.008 20G<55 239.042 600.958 785>
VStem: 55 169<0 425.005> 616 169<0 425.005>
AnchorPoint: "Anchor-2" 416 0 basechar 0
AnchorPoint: "Anchor-0" 417 731 basechar 0
LayerCount: 2
Fore
SplineSet
55 0 m 1
 55 731.0078125 l 1
 229 731.0078125 l 1
 420 350.599609375 l 1
 611 731.0078125 l 1
 785 731.0078125 l 1
 785 0 l 1
 616 0 l 1
 616 425.004882812 l 1
 459 132 l 1
 379 132 l 1
 224 425.004882812 l 1
 224 0 l 1
 55 0 l 1
EndSplineSet
EndChar

StartChar: G
Encoding: 71 71 13
Width: 774
Flags: W
HStem: -9.99805 154.462<307.234 494.661> 288 138<391 522.019 675.827 749> 288 16.5957<522.019 675.827> 584.659 154.462<315.808 548.63>
VStem: 35 178.849<243.576 476.423> 533.481 163.001<180.129 287.491>
AnchorPoint: "Anchor-2" 401 0 basechar 0
AnchorPoint: "Anchor-0" 408 731 basechar 0
LayerCount: 2
Back
SplineSet
769 278 m 1xdc
 391 278 l 1
 391 446 l 1
 769 446 l 1
 769 278 l 1xdc
15 364.561523438 m 0
 15 591.206054688 167.824109254 739.12109375 418.888671875 739.12109375 c 0
 597.569435224 739.12109375 662.681640625 680.891601562 662.681640625 680.891601562 c 1
 619.35546875 471.138671875 l 5
 619.35546875 471.138671875 562.060027563 514.659179688 445.888671875 514.659179688 c 4
 339.383701862 514.659179688 293.848632812 454.568110858 293.848632812 364.561523438 c 0
 293.848632812 274.554936015 323.33700606 214.463867188 403.888671875 214.463867188 c 0
 460.732452464 214.463867188 483.481445312 237.869623301 483.481445312 273 c 0
 483.481445312 302.767461593 472.018554688 314.595703125 472.018554688 314.595703125 c 1
 695.827148438 314.595703125 l 1xbc
 695.827148438 314.595703125 716.482421875 282.97057242 716.482421875 218 c 0
 716.482421875 91.3085797442 617.80976945 -9.998046875 409.888671875 -9.998046875 c 0
 158.364141774 -9.998046875 15 137.916992188 15 364.561523438 c 0
EndSplineSet
Fore
SplineSet
749 288 m 5xdc
 391 288 l 5
 391 426 l 5
 749 426 l 5
 749 288 l 5xdc
35 364.561523438 m 4
 35 591.206054688 176.47265625 739.12109375 408.888671875 739.12109375 c 4
 580.240234375 739.12109375 642.681640625 680.891601562 642.681640625 680.891601562 c 5
 609.35546875 531.138671875 l 5
 609.35546875 531.138671875 545.454101562 584.659179688 415.888671875 584.659179688 c 4
 274.358398438 584.659179688 213.848632812 496.543857028 213.848632812 364.561523438 c 4
 213.848632812 232.579189845 264.77529234 144.463867188 403.888671875 144.463867188 c 4
 496.441586682 144.463867188 533.481445312 183.863680298 533.481445312 243 c 4
 533.481445312 287.080219573 522.018554688 304.595703125 522.018554688 304.595703125 c 5
 675.827148438 304.595703125 l 5xbc
 675.827148438 304.595703125 696.482421875 272.97057242 696.482421875 208 c 4
 696.482421875 86.865268584 601.028121175 -9.998046875 399.888671875 -9.998046875 c 4
 167.47265625 -9.998046875 35 137.916992188 35 364.561523438 c 4
EndSplineSet
Validated: 5
EndChar

StartChar: A
Encoding: 65 65 14
Width: 719
Flags: W
HStem: 0 21G<5 192.27 526.426 714> 155 136<162 556> 711.008 20G<257.887 451.387>
AnchorPoint: "Anchor-3" 601 0 basechar 0
AnchorPoint: "Anchor-2" 362 0 basechar 0
AnchorPoint: "Anchor-0" 352 731 basechar 0
LayerCount: 2
Fore
SplineSet
556 155 m 1
 162 155 l 1
 162 291 l 1
 556 291 l 1
 556 155 l 1
444 731.0078125 m 5
 714 0 l 5
 533 0 l 5
 355.393554688 540.313476562 l 5
 186 0 l 5
 5 0 l 5
 265 731.0078125 l 5
 444 731.0078125 l 5
EndSplineSet
Validated: 5
EndChar

StartChar: P
Encoding: 80 80 15
Width: 645
Flags: W
HStem: 0 21G<55 226> 224 142.352<164 393.417> 584.649 146.358<226 391.343>
VStem: 55 171<0 224 366.352 584.649> 164 62<224 366.352> 436.929 178.849<405.758 543.013>
AnchorPoint: "Anchor-2" 342 0 basechar 0
AnchorPoint: "Anchor-0" 326 731 basechar 0
LayerCount: 2
Fore
SplineSet
164 224 m 1xec
 164 366.3515625 l 1xec
 297.888671875 366.461914062 l 2
 377.48895039 366.583236645 436.928710938 390.53091624 436.928710938 476.561523438 c 0
 436.928710938 560.241650175 377.488959202 584.435672466 297.888671875 584.545898438 c 2
 226 584.649414062 l 1
 226 0 l 1
 55 0 l 1
 55 731.0078125 l 1xf4
 328.888671875 731.0078125 l 2
 479.834707979 731.0078125 615.77734375 661.709288608 615.77734375 476.561523438 c 0
 615.77734375 291.835092645 480.38202816 224 331.888671875 224 c 2
 164 224 l 1xec
EndSplineSet
Validated: 5
EndChar

StartChar: R
Encoding: 82 82 16
Width: 660
Flags: W
HStem: 0 21G<55 226 468.585 660> 260 136.352<164 378.496> 590.649 140.358<226 400.216>
VStem: 55 171<0 260 396.352 590.649> 164 62<260 396.352> 433.929 176.849<427.695 556.928>
AnchorPoint: "Anchor-2" 342 0.0117188 basechar 0
AnchorPoint: "Anchor-0" 325 731 basechar 0
LayerCount: 2
Back
SplineSet
124 383.3515625 m 1xec
 300.888671875 383.461914062 l 2
 383.403259307 383.509014034 462.928710938 404.697396723 462.928710938 501.561523438 c 0
 462.928710938 596.672668425 383.403268044 618.487535435 300.888671875 618.545898438 c 2
 184 618.649414062 l 1
 184 0 l 1
 55 0 l 1
 55 731.0078125 l 1xf4
 308.888671875 731.0078125 l 2
 457.204101562 731.0078125 590.77734375 670.696715458 590.77734375 509.561523438 c 4
 590.77734375 364.195131811 466.688476562 330.276367188 466.688476562 330.276367188 c 1
 466.688476562 330.276367188 540.174524344 311.767586577 573.702148438 195.399414062 c 2
 630 0 l 1
 492 0 l 1
 447 165 l 2
 420.732434887 256.417062766 391.813913829 266 270 266 c 2
 124 266 l 1
 124 383.3515625 l 1xec
EndSplineSet
Fore
SplineSet
164 396.3515625 m 1xec
 305.888671875 396.461914062 l 2
 379.191395622 396.519517279 433.928710938 413.921388164 433.928710938 493.561523438 c 0
 433.928710938 572.412181504 379.191360365 590.448916644 305.888671875 590.545898438 c 2
 226 590.649414062 l 1
 226 0 l 1
 55 0 l 1
 55 731.0078125 l 1xf4
 328.888671875 731.0078125 l 2
 487.204101562 731.0078125 610.77734375 669.334960938 610.77734375 504.561523438 c 0
 610.77734375 355.914835635 493.688476562 322.276367188 493.688476562 322.276367188 c 5
 493.688476562 322.276367188 555.013405749 304.356042655 595.702148438 186.399414062 c 6
 660 0 l 5
 475 0 l 5
 424 159 l 6
 395.017935844 249.355847076 368.359476405 260 263 260 c 6
 164 260 l 1
 164 396.3515625 l 1xec
EndSplineSet
Validated: 5
EndChar

StartChar: T
Encoding: 84 84 17
Width: 614
Flags: W
HStem: 0 21G<221.5 392.5> 585 146<30 221.5 392.5 584> 585 116<221.5 392.5>
VStem: 221.5 171<0 701>
AnchorPoint: "Anchor-2" 311 0.0117188 basechar 0
AnchorPoint: "Anchor-0" 310 731 basechar 0
LayerCount: 2
Fore
SplineSet
584 585 m 5xd0
 30 585 l 5
 30 731 l 5
 584 731 l 5
 584 585 l 5xd0
221.5 0 m 5
 221.5 701 l 5
 392.5 701 l 5xb0
 392.5 0 l 5
 221.5 0 l 5
EndSplineSet
Validated: 5
EndChar

StartChar: Q
Encoding: 81 81 18
Width: 856
Flags: W
HStem: -9.99805 159.462<305.333 638.503 677.938 780.327> 583.659 155.462<304.973 492.68>
VStem: 35 172.849<252.224 483.496> 589.929 171.849<250.793 481.005>
AnchorPoint: "Anchor-2" 518 0 basechar 0
AnchorPoint: "Anchor-0" 404 731 basechar 0
LayerCount: 2
Back
SplineSet
35 364.561523438 m 0
 35 591.206054687 176.472284281 739.12109375 408.888671875 739.12109375 c 0
 631.980771047 739.12109375 767.77734375 606.451557449 767.77734375 425.561523438 c 0
 767.77734375 277.404410779 697.938476562 226.598632812 697.938476562 226.598632812 c 1
 761.19664612 227.78125078 839.888671875 241.001953125 839.888671875 241.001953125 c 1
 851.888671875 19.001953125 l 1
 851.888671875 19.001953125 744.355695589 -9.998046875 467 -9.998046875 c 0
 167.924305682 -9.998046875 35 137.916992188 35 364.561523438 c 0
317.848632812 373.561523438 m 0
 317.848632812 300.345234483 346.899340811 251.463867188 408.888671875 251.463867188 c 0
 470.878002938 251.463867188 499.928710938 300.345234483 499.928710938 373.561523438 c 0
 499.928710938 446.77781239 470.878002938 495.659179688 408.888671875 495.659179688 c 4
 346.899340811 495.659179688 317.848632812 446.77781239 317.848632812 373.561523438 c 0
EndSplineSet
Fore
SplineSet
35 364.561523438 m 0
 35 591.206054687 172.688476562 739.12109375 398.888671875 739.12109375 c 0
 624.467247959 739.12109375 761.77734375 590.373456646 761.77734375 387.561523438 c 0
 761.77734375 208.129238247 677.938476562 146.598632812 677.938476562 146.598632812 c 1
 741.19664612 147.78125078 819.888671875 161.001953125 819.888671875 161.001953125 c 1
 831.888671875 19.001953125 l 1
 831.888671875 19.001953125 727.149567795 -9.998046875 457 -9.998046875 c 0
 164.847354162 -9.998046875 35 137.916992188 35 364.561523438 c 0
207.848632812 366.561523438 m 4
 207.848632812 236.378150395 268.809155765 149.463867188 398.888671875 149.463867188 c 0
 528.968187984 149.463867188 589.928710938 236.378150395 589.928710938 366.561523438 c 0
 589.928710938 496.744896478 528.968187984 583.659179688 398.888671875 583.659179688 c 0
 268.809155765 583.659179688 207.848632812 496.744896478 207.848632812 366.561523438 c 4
EndSplineSet
Validated: 1
EndChar

StartChar: B
Encoding: 66 66 19
Width: 648
Flags: W
HStem: 0 139.46<226 413.719> 304.656 132.695<164 391.766> 592.649 138.358<226 388.181>
VStem: 164 62<304.656 437.352> 413.929 174.849<459.772 569.642> 437.929 179.849<165.243 279.52>
AnchorPoint: "Anchor-2" 343 0 basechar 0
AnchorPoint: "Anchor-0" 320 731 basechar 0
LayerCount: 2
Fore
SplineSet
489.662109375 381.4375 m 5xf8
 489.662109375 381.4375 617.77734375 354.347339557 617.77734375 207.446289062 c 4xf4
 617.77734375 54.4883719063 494.613984025 -1.55153667691e-14 356.888671875 0 c 6
 55 0 l 5
 55 731.0078125 l 5
 339.888671875 731.0078125 l 6
 470.841066075 731.0078125 588.77734375 680.262490509 588.77734375 537.561523438 c 4
 588.77734375 411.409740054 489.662109375 381.4375 489.662109375 381.4375 c 5xf8
226 139.459960938 m 5
 328.888671875 139.461914062 l 6
 391.24668887 139.462830864 437.928710938 154.977584844 437.928710938 222.446289062 c 4xf4
 437.928710938 289.783262393 391.313893489 304.442234209 328.888671875 304.545898438 c 6
 164 304.65625 l 5
 164 437.3515625 l 5
 306.888671875 437.461914062 l 6
 368.16874648 437.600788904 413.928710938 451.325481514 413.928710938 514.561523438 c 4xf8
 413.928710938 577.965082608 368.169014746 592.490685979 306.888671875 592.545898438 c 6
 226 592.649414062 l 5
 226 139.459960938 l 5
EndSplineSet
EndChar

StartChar: J
Encoding: 74 74 20
Width: 432
Flags: W
HStem: -10 149<34.2027 184.767> 587.008 144<63 206>
VStem: 206 171<163.792 587.008>
AnchorPoint: "Anchor-2" 175 0 basechar 0
AnchorPoint: "Anchor-0" 219 731 basechar 0
LayerCount: 2
Fore
SplineSet
123 139 m 0
 181.436376953 139 206 167.697665663 206 235 c 2
 206 587.0078125 l 1
 63 587.0078125 l 1
 63 731.0078125 l 1
 377 731.0078125 l 1
 377 206 l 2
 377 71.443055005 316.620689655 -10 171 -10 c 0
 64.1047200497 -10 10 22 10 22 c 1
 27 165 l 1
 27 165 64.096017264 139 123 139 c 0
EndSplineSet
Validated: 1
EndChar

StartChar: K
Encoding: 75 75 21
Width: 667
Flags: W
HStem: 0 21G<55 224 438.505 662> 327 70<157 329> 711.008 20G<55 224 435.988 652>
VStem: 55 169<0 327 397 731.008> 216 8<327 397>
AnchorPoint: "Anchor-2" 335 0 basechar 0
AnchorPoint: "Anchor-0" 329 731 basechar 0
LayerCount: 2
Fore
SplineSet
157 397 m 1xe0
 329 397 l 1
 329 327 l 1
 157 327 l 1
 157 397 l 1xe0
453 0 m 5
 216 327 l 1
 216 397 l 1xe8
 450 731.0078125 l 5
 652 731.0078125 l 1
 380 372 l 1
 662 0 l 1
 453 0 l 5
55 0 m 1xf0
 55 731.0078125 l 1
 224 731.0078125 l 1
 224 0 l 1
 55 0 l 1xf0
EndSplineSet
Validated: 5
EndChar

StartChar: S
Encoding: 83 83 22
Width: 605
Flags: W
HStem: -10 147.462<155.049 364.228> 590.659 148.462<250.475 453.373>
VStem: 44.627 181.312<475.241 566.98> 393.338 177.182<162.634 259.675>
AnchorPoint: "Anchor-2" 299 0.0117188 basechar 0
AnchorPoint: "Anchor-0" 310 731 basechar 0
LayerCount: 2
Fore
SplineSet
288.3828125 292.140625 m 0
 97.7166295096 333.031221027 44.626953125 399.096168211 44.626953125 517 c 0
 44.626953125 652.115234375 146.289513424 739.12109375 321.233398438 739.12109375 c 0
 470.266640247 739.12109375 542.745117188 687.891601562 542.745117188 687.891601562 c 1
 506.37109375 543.138671875 l 1
 506.37109375 543.138671875 439.794648804 590.659179688 335.36328125 590.659179688 c 0
 259.881904029 590.659179688 225.938476562 564.478798066 225.938476562 521 c 0
 225.938476562 486.398821306 246.420911398 462.201695671 325.997070312 445.081054688 c 0
 519.299335722 403.492484286 570.51953125 328.63026783 570.51953125 212 c 0
 570.51953125 75.1845703125 471.135174742 -10 290.8046875 -10 c 0
 132.904159098 -10 32.81640625 45.2294921875 32.81640625 45.2294921875 c 1
 73.97265625 196.982421875 l 5
 73.97265625 196.982421875 162.77072973 137.461914062 276.696289062 137.461914062 c 0
 355.717155863 137.461914062 393.337890625 164.817721259 393.337890625 212 c 0
 393.337890625 250.644203699 377.351960682 273.060149165 288.3828125 292.140625 c 0
EndSplineSet
EndChar

StartChar: W
Encoding: 87 87 23
Width: 949
Flags: W
HStem: 0 21G<169.376 377.8 567.003 773.788> 711.008 20G<5 184.021 764.909 944>
AnchorPoint: "Anchor-2" 475 0 basechar 0
AnchorPoint: "Anchor-0" 474 731 basechar 0
LayerCount: 2
Fore
SplineSet
174 0 m 1
 5 731.0078125 l 1
 180 731.0078125 l 1
 282.606445312 220.694335938 l 1
 395 681.0078125 l 1
 554 681.0078125 l 1
 664.606445312 220.694335938 l 1
 769 731.0078125 l 5
 944 731.0078125 l 1
 769 0 l 1
 572 0 l 1
 470.5 406.271484375 l 1
 373 0 l 1
 174 0 l 1
EndSplineSet
Validated: 1
EndChar

StartChar: X
Encoding: 88 88 24
Width: 689
Flags: W
HStem: 0 21G<10 221.826 467.052 679> 711.008 20G<18 229.211 459.668 671>
VStem: 299 89<327 400>
AnchorPoint: "Anchor-2" 352 0 basechar 0
AnchorPoint: "Anchor-0" 344 731 basechar 0
LayerCount: 2
Fore
SplineSet
211 0 m 1
 10 0 l 1
 235 378 l 1
 18 731.0078125 l 1
 219 731.0078125 l 1
 388 400 l 1
 388 327 l 1
 211 0 l 1
478 0 m 1
 299 327 l 1
 299 400 l 1
 470 731.0078125 l 1
 671 731.0078125 l 1
 452 378 l 1
 679 0 l 1
 478 0 l 1
EndSplineSet
Validated: 5
EndChar

StartChar: Y
Encoding: 89 89 25
Width: 689
Flags: W
HStem: 0 21G<260 429> 252 99<276 413> 711.008 20G<20 219.241 469.759 669>
VStem: 260 169<0 351>
AnchorPoint: "Anchor-2" 345 0 basechar 0
AnchorPoint: "Anchor-0" 346 731 basechar 0
LayerCount: 2
Fore
SplineSet
276 252 m 1
 20 731.0078125 l 1
 210 731.0078125 l 1
 344.5 439.916015625 l 5
 479 731.0078125 l 1
 669 731.0078125 l 1
 413 252 l 1
 276 252 l 1
260 0 m 1
 260 351 l 1
 429 351 l 1
 429 0 l 1
 260 0 l 1
EndSplineSet
Validated: 5
EndChar

StartChar: Z
Encoding: 90 90 26
Width: 594
Flags: W
HStem: 0 149<255 564> 582 149<40 339>
AnchorPoint: "Anchor-2" 306 0 basechar 0
AnchorPoint: "Anchor-0" 294 731 basechar 0
LayerCount: 2
Fore
SplineSet
564 0 m 1
 30 0 l 1
 30 96 l 1
 339 582 l 5
 40 582 l 5
 40 731 l 1
 554 731 l 1
 554 623 l 1
 255 149 l 1
 564 149 l 1
 564 0 l 1
EndSplineSet
Validated: 1
EndChar

StartChar: ampersand
Encoding: 38 38 27
Width: 754
Flags: W
HStem: -10 144.305<546.725 736.29> -10 135.093<223.809 367.707> 599.762 139.23<340.019 492.078>
VStem: 35 158.837<154.329 277.009> 153.551 166.376<457.56 577.308>
LayerCount: 2
Fore
SplineSet
281.267578125 454.821289062 m 1x70
 321.341796875 360.713867188 l 0
 321.341796875 360.713867188 193.836914062 306.131282229 193.836914062 214 c 0
 193.836914062 157.237619624 230.426295582 125.092773438 288.900390625 125.092773438 c 0
 370.668426554 125.092773438 485.438075648 193.140672201 534.25 453.205078125 c 1
 679.538085938 418.8046875 l 1
 610.32440463 106.146354018 441.225738893 -10 273.928710938 -10 c 0
 122.676244912 -10 35 73.4029471879 35 194.185546875 c 0
 35 394.775295157 281.267578125 454.821289062 281.267578125 454.821289062 c 1x70
742.451171875 4.5546875 m 1
 742.451171875 4.5546875 710.918944639 -10 626 -10 c 0
 489.802547201 -10 397.2349604 63.9742593719 325 156 c 0
 215.257728116 295.809225234 153.55078125 419.453034892 153.55078125 526 c 0
 153.55078125 665.290017317 243.632446587 738.9921875 393.022460938 738.9921875 c 0
 478.923487982 738.9921875 531.400390625 708.649414062 531.400390625 708.649414062 c 1
 504.5703125 570.848632812 l 1
 504.5703125 570.848632812 462.041730152 599.76171875 410 599.76171875 c 0
 351.316600304 599.76171875 319.926757812 575.903393595 319.926757812 519 c 0
 319.926757812 457.544368845 360.41019932 364.6568658 446.9375 248 c 0
 491.427472076 188.018229378 550.218702636 134.3046875 652.51171875 134.3046875 c 0xa8
 705.377391202 134.3046875 735.62890625 143.5546875 735.62890625 143.5546875 c 1
 742.451171875 4.5546875 l 1
EndSplineSet
Validated: 5
EndChar

StartChar: i
Encoding: 105 105 28
Width: 269
Flags: W
HStem: 0 21G<55 214> 481.011 20G<55 214> 567.551 182.449<70.9543 198.045>
VStem: 42.8867 183.227<597.09 720.46> 55 159<0 501.011>
AnchorPoint: "Anchor-3" 130 0 basechar 0
AnchorPoint: "Anchor-2" 137 0 basechar 0
LayerCount: 2
Fore
SplineSet
42.88671875 658.775390625 m 0xf0
 42.88671875 714.040733898 78.997953189 750 134.499023438 750 c 0
 190.001063251 750 226.11328125 714.040733898 226.11328125 658.775390625 c 0
 226.11328125 603.509048899 190.001063251 567.55078125 134.499023438 567.55078125 c 0
 78.9979531888 567.55078125 42.88671875 603.509048899 42.88671875 658.775390625 c 0xf0
EndSplineSet
Refer: 225 305 N 1 0 0 1 0 0 2
Validated: 1
EndChar

StartChar: o
Encoding: 111 111 29
Width: 594
Flags: W
HStem: -9.99805 134.458<232.302 363.422> 377.28 133.654<232.145 363.265>
VStem: 35 155.849<167.273 332.737> 403.929 155.849<167.749 333.207>
AnchorPoint: "Anchor-3" 361 28 basechar 0
AnchorPoint: "Anchor-2" 298 0 basechar 0
AnchorPoint: "Anchor-0" 298 501.011 basechar 0
LayerCount: 2
Fore
SplineSet
190.848632812 251.559570312 m 4
 190.848632812 174.13671875 229.151658428 124.459960938 298 124.459960938 c 4
 367.607588162 124.459960938 403.928710938 175.345703125 403.928710938 251.559570312 c 4
 403.928710938 326.950195312 366.885306487 377.28 298 377.28 c 4
 228.43026752 377.28 190.848632812 325.76953125 190.848632812 251.559570312 c 4
35 249.56 m 4
 35 406.50502545 134.473346722 510.93359375 297.89 510.93359375 c 4
 460.68503405 510.93359375 559.77734375 407.715217628 559.77734375 249.56 c 4
 559.77734375 92.5015190323 460.68503405 -9.998046875 297.89 -9.998046875 c 4
 134.473346722 -9.998046875 35 91.2913268534 35 249.56 c 4
EndSplineSet
Validated: 1
EndChar

StartChar: n
Encoding: 110 110 30
Width: 595
Flags: W
HStem: 0 21G<55 214 381.777 540.777> 379.284 131.649<262.344 421.031> 481.011 20G<55 214>
VStem: 55 159<0 501.011> 381.777 159<0 355.426>
AnchorPoint: "Anchor-2" 305 0 basechar 0
AnchorPoint: "Anchor-0" 295 501.011 basechar 0
LayerCount: 2
Fore
SplineSet
214 269 m 5xd8
 159 280.561523438 l 5
 180.874026638 439.997016923 232.742126105 510.93359375 362 510.93359375 c 4
 480.06226382 510.93359375 540.77734375 442.465060932 540.77734375 299.561523438 c 6
 540.77734375 0 l 5
 381.77734375 0 l 5
 381.77734375 282.561523438 l 6
 381.77734375 343.832110281 357.098863291 379.284179688 299 379.284179688 c 4
 239.457003096 379.284179688 214 335.132296188 214 269 c 5xd8
55 0 m 5
 55 501.010742188 l 5
 214 501.010742188 l 5xb8
 214 0 l 5
 55 0 l 5
EndSplineSet
Validated: 5
EndChar

StartChar: m
Encoding: 109 109 31
Width: 882
Flags: W
HStem: 0 21G<55 214 361.777 520.777 668.555 827.555> 379.284 131.649<256.944 407.729 553.703 714.507> 481.011 20G<55 214>
VStem: 55 159<0 501.011> 361.777 159<0 347.497> 668.555 159<0 358.828>
CounterMasks: 1 1c
AnchorPoint: "Anchor-2" 445 0 basechar 0
AnchorPoint: "Anchor-0" 454 501.011 basechar 0
LayerCount: 2
Fore
SplineSet
520.77734375 269 m 5xdc
 445.77734375 280.561523438 l 5
 468.728908646 439.997016923 523.152086905 510.93359375 658.77734375 510.93359375 c 0
 770.235735886 510.93359375 827.5546875 446.352151562 827.5546875 311.561523438 c 6
 827.5546875 0 l 1
 668.5546875 0 l 1
 668.5546875 292.561523438 l 6
 668.5546875 347.497442767 646.857515614 379.284179688 595.77734375 379.284179688 c 4
 543.239405305 379.284179688 520.77734375 335.132296187 520.77734375 269 c 5xdc
214 269 m 5
 159 280.561523438 l 5
 179.79648838 439.997016923 229.109509056 510.93359375 352 510.93359375 c 0
 463.458392136 510.93359375 520.77734375 446.352151562 520.77734375 311.561523438 c 6
 520.77734375 0 l 1
 361.77734375 0 l 1
 361.77734375 292.561523438 l 6
 361.77734375 347.497442767 340.080171864 379.284179688 289 379.284179688 c 4
 236.462061555 379.284179688 214 335.132296188 214 269 c 5
55 0 m 1
 55 501.010742188 l 1
 214 501.010742188 l 1xbc
 214 0 l 1
 55 0 l 1
EndSplineSet
Validated: 5
EndChar

StartChar: p
Encoding: 112 112 32
Width: 612
Flags: W
HStem: -9.99805 129.462<241.041 372.445> 382.284 128.649<261.531 372.519> 481.011 20G<55 214>
VStem: 55 159<-210 501.011> 149.151 64.8486<56.4395 173.562> 161.151 52.8486<283.562 425.747> 416.08 162.849<164.096 336.709>
AnchorPoint: "Anchor-2" 136 -209.988 basechar 0
AnchorPoint: "Anchor-0" 294 501.011 basechar 0
LayerCount: 2
Fore
SplineSet
55 -210 m 5xb2
 55 501.010742188 l 5
 214 501.010742188 l 5
 214 -210 l 5
 55 -210 l 5xb2
214 203.561523438 m 5
 214 157.717773438 242.763430256 119.463867188 310.040039062 119.463867188 c 4
 382.321706328 119.463867188 416.080078125 176.810069012 416.080078125 252.561523438 c 4
 416.080078125 326.222906201 381.36800634 382.284179688 309.151367188 382.284179688 c 4
 241.810945625 382.284179688 214 332.760742188 214 273.561523438 c 5xd2
 161.151367188 283.561523438 l 5xc6
 161.151367188 425.747070312 233.895359161 510.93359375 358 510.93359375 c 4
 490.809257936 510.93359375 578.928710938 409.296356709 578.928710938 253.561523438 c 4
 578.928710938 94.0826581124 490.429734727 -9.998046875 345.040039062 -9.998046875 c 0
 221.425863925 -9.998046875 149.151367188 56.439453125 149.151367188 173.561523438 c 5xca
 214 203.561523438 l 5
EndSplineSet
EndChar

StartChar: j
Encoding: 106 106 33
Width: 269
Flags: W
HStem: -220 132<-73.6224 37.5663> 481.011 20G<55 214> 567.551 182.449<70.9543 198.045>
VStem: 42.8867 183.227<597.09 720.46> 55 159<-71.8272 501.011>
AnchorPoint: "Anchor-2" 17 -189.988 basechar 0
LayerCount: 2
Fore
SplineSet
42.88671875 658.775390625 m 0xf0
 42.88671875 714.040733898 78.997953189 750 134.499023438 750 c 0
 190.001063251 750 226.11328125 714.040733898 226.11328125 658.775390625 c 0
 226.11328125 603.509048899 190.001063251 567.55078125 134.499023438 567.55078125 c 0
 78.9979531888 567.55078125 42.88671875 603.509048899 42.88671875 658.775390625 c 0xf0
EndSplineSet
Refer: 226 567 S 1 0 0 1 0 0 2
Validated: 1
EndChar

StartChar: k
Encoding: 107 107 34
Width: 563
Flags: W
HStem: 0 21G<55 214 350.498 558> 211 90<119 212> 481.011 20G<346.101 542> 731.002 20G<55 214>
VStem: 55 159<0 211 301 751.002> 119 95<211 301>
AnchorPoint: "Anchor-2" 275 0 basechar 0
AnchorPoint: "Anchor-0" 134 749.002 basechar 0
LayerCount: 2
Fore
SplineSet
212 301 m 1xf4
 212 211 l 1
 119 211 l 1
 119 301 l 1
 212 301 l 1xf4
365 0 m 1
 212 211 l 1
 212 301 l 1
 361 501.010742188 l 1
 542 501.010742188 l 1
 344 263 l 1
 558 0 l 1
 365 0 l 1
55 0 m 1xf8
 55 751.001953125 l 1
 214 751.001953125 l 1
 214 0 l 1
 55 0 l 1xf8
EndSplineSet
Validated: 5
EndChar

StartChar: l
Encoding: 108 108 35
Width: 362
Flags: W
HStem: -10.0088 139<224.828 332.252> 731.002 20G<55 214>
VStem: 55 159<137.522 751.002>
AnchorPoint: "Anchor-2" 240 0 basechar 0
AnchorPoint: "Anchor-0" 134 749.002 basechar 0
LayerCount: 2
Fore
SplineSet
214 191.991210938 m 6
 214 147.967114552 230.573046875 128.991210938 270 128.991210938 c 4
 305.580087516 128.991210938 331 138.991210938 331 138.991210938 c 5
 342 4.9912109375 l 5
 342 4.9912109375 299.886998619 -10.0087890625 239 -10.0087890625 c 4
 108.931034482 -10.0087890625 55 58.0670403214 55 160.991210938 c 6
 55 751.001953125 l 5
 214 751.001953125 l 5
 214 191.991210938 l 6
EndSplineSet
Validated: 1
EndChar

StartChar: h
Encoding: 104 104 36
Width: 595
Flags: W
HStem: 0 21G<55 214 381.777 540.777> 379.284 131.649<262.344 421.031> 731.002 20G<55 214>
VStem: 55 159<0 751.002> 381.777 159<0 351.199>
AnchorPoint: "Anchor-2" 299 0 basechar 0
AnchorPoint: "Anchor-0" 134 751.004 basechar 0
LayerCount: 2
Fore
SplineSet
55 0 m 1
 55 751.001953125 l 1
 214 751.001953125 l 1
 214 0 l 1
 55 0 l 1
214 269 m 9
 159 280.561523438 l 17
 180.874026638 439.997016923 232.742126105 510.93359375 362 510.93359375 c 0
 480.06226382 510.93359375 540.77734375 443.112909371 540.77734375 301.561523438 c 2
 540.77734375 0 l 1
 381.77734375 0 l 1
 381.77734375 282.561523438 l 2
 381.77734375 343.832110281 357.098863291 379.284179688 299 379.284179688 c 0
 239.457003096 379.284179688 214 335.132296188 214 269 c 9
EndSplineSet
Validated: 5
EndChar

StartChar: q
Encoding: 113 113 37
Width: 612
Flags: W
HStem: -9.99805 129.462<244.555 362.904> 382.284 128.649<243.33 352.235> 481.011 20G<403 562>
VStem: 38.0713 162.849<164.096 336.709> 403 159<-210 501.011> 403 47.8486<66.4394 183.562 283.562 425.747>
AnchorPoint: "Anchor-2" 487 -209.988 basechar 0
AnchorPoint: "Anchor-0" 322 501.011 basechar 0
LayerCount: 2
Fore
SplineSet
562 -210 m 1xb8
 403 -210 l 1
 403 501.010742188 l 1
 562 501.010742188 l 1
 562 -210 l 1xb8
403 205.561523438 m 1
 450.848632812 183.561523438 l 1xd4
 450.848632812 66.4393843714 383.160599058 -9.998046875 271.959960938 -9.998046875 c 0
 126.570265273 -9.998046875 38.0712890625 94.0826581126 38.0712890625 253.561523438 c 0
 38.0712890625 409.296356709 125.782830152 510.93359375 258 510.93359375 c 0
 382.701713793 510.93359375 445.848632812 425.746590474 445.848632812 283.561523438 c 1
 403 275.561523438 l 1
 403 339.558139569 373.217605424 382.284179688 305.848632812 382.284179688 c 0xd8
 233.657258037 382.284179688 200.919921875 326.222906201 200.919921875 252.561523438 c 0
 200.919921875 176.810069012 234.678293672 119.463867188 306.959960938 119.463867188 c 0
 374.236569744 119.463867188 403 163.615253077 403 205.561523438 c 1
EndSplineSet
EndChar

StartChar: g
Encoding: 103 103 38
Width: 612
Flags: W
HStem: -219 129<155.556 361.085> -4.99805 122.462<239.657 356.588> 380.284 130.649<240.043 352.679> 481.011 20G<403 562>
VStem: 38.0713 161.849<160.657 337.195> 403 159<-49.8377 31 216.562 501.011> 403 50.8486<82.4967 216.562> 403 42.8486<283.562 425.747>
AnchorPoint: "Anchor-2" 296 -208.988 basechar 0
AnchorPoint: "Anchor-0" 312 501.011 basechar 0
LayerCount: 2
Fore
SplineSet
403 31 m 2xdc
 403 501.010742188 l 1
 562 501.010742188 l 1
 562 28 l 2
 562 -120.668246445 482.862068966 -219 292 -219 c 0
 160.833207308 -219 78 -178 78 -178 c 1
 107 -46 l 1
 107 -46 174.667502652 -90 279 -90 c 0
 366.899661296 -90 403 -50.3269566818 403 31 c 2xdc
403 228.561523438 m 1
 453.848632812 216.561523438 l 1xea
 453.848632812 82.4966938668 394.860938496 -4.998046875 257 -4.998046875 c 0
 127.207545749 -4.998046875 38.0712890625 94.7387150965 38.0712890625 247.561523438 c 0
 38.0712890625 406.926933245 126.505200695 510.93359375 258 510.93359375 c 0
 382.113985829 510.93359375 445.848632812 425.746590473 445.848632812 283.561523438 c 1xe9
 403 275.561523438 l 1
 403 338.358832536 371.604239314 380.284179688 304.848632812 380.284179688 c 0xec
 233.488418534 380.284179688 199.919921875 327.149131004 199.919921875 247.561523438 c 0
 199.919921875 169.548006349 233.437599965 117.463867188 304.959960938 117.463867188 c 0
 373.637581435 117.463867188 403 174.435400515 403 228.561523438 c 1
EndSplineSet
EndChar

StartChar: f
Encoding: 102 102 39
Width: 398
Flags: W
HStem: 0 21G<99 258> 373 128.011<14 382> 633.011 128<274.566 398.88>
VStem: 99 159<0 616.098>
AnchorPoint: "Anchor-2" 177 0 basechar 0
AnchorPoint: "Anchor-0" 299 752.002 basechar 0
LayerCount: 2
Fore
SplineSet
14 501.010742188 m 1
 382 501.010742188 l 1
 382 373 l 1
 14 373 l 1
 14 501.010742188 l 1
258 554.010742188 m 2
 258 0 l 1
 99 0 l 1
 99 570.010742188 l 2
 99 684.97265625 156.448108344 761.010742188 295 761.010742188 c 0
 361.207211538 761.010742188 407 743.010742188 407 743.010742188 c 1
 398 621.010742188 l 1
 398 621.010742188 370.079516602 633.010742188 331 633.010742188 c 0
 279.6044394 633.010742188 258 609.215204944 258 554.010742188 c 2
EndSplineSet
Validated: 5
EndChar

StartChar: c
Encoding: 99 99 40
Width: 484
Flags: W
HStem: -9.99805 135.462<246.905 424.333> 378.284 132.649<243.572 415.677>
VStem: 35 163.849<174.198 330.945>
AnchorPoint: "Anchor-2" 293 0 basechar 0
AnchorPoint: "Anchor-0" 291 501.011 basechar 0
LayerCount: 2
Fore
SplineSet
35 253.561523438 m 0
 35 409.296356709 125.873934064 510.93359375 296.888671875 510.93359375 c 0
 413.05607901 510.93359375 456.681640625 474.704101562 456.681640625 474.704101562 c 1
 434 344 l 1
 434 344 397.667256654 378.284179688 324 378.284179688 c 0
 236.33073566 378.284179688 198.848632812 328.35190287 198.848632812 253.561523438 c 0
 198.848632812 176.747313383 237.195875999 125.463867188 326.888671875 125.463867188 c 0
 398.885903396 125.463867188 437.018554688 154.595703125 437.018554688 154.595703125 c 1
 459.827148438 22.595703125 l 1
 459.827148438 22.595703125 402.853461304 -9.998046875 303.888671875 -9.998046875 c 0
 128.52847191 -9.998046875 35 94.0826581131 35 253.561523438 c 0
EndSplineSet
EndChar

StartChar: t
Encoding: 116 116 41
Width: 402
Flags: W
HStem: -10 132<266.058 369.041> 373 128.011<14 372>
VStem: 95 159<132.728 646.011>
AnchorPoint: "Anchor-2" 208 0.0117188 basechar 0
AnchorPoint: "Anchor-0" 173 660 basechar 0
LayerCount: 2
Back
SplineSet
15.5 631.010742188 m 1
 333.5 691.010742188 l 1025
EndSplineSet
Fore
SplineSet
14 501.010742188 m 5
 372 501.010742188 l 5
 372 373 l 5
 14 373 l 5
 14 501.010742188 l 5
254 192 m 6
 254 143.084653253 270.573268581 122 310 122 c 4
 343.830029297 122 368 133 368 133 c 5
 378 6 l 5
 378 6 338.749038462 -10 282 -10 c 4
 129.810185002 -10 95 62.4551394797 95 172 c 6
 95 646.010742188 l 5
 254 676.010742188 l 5
 254 192 l 6
EndSplineSet
Validated: 5
EndChar

StartChar: r
Encoding: 114 114 42
Width: 423
Flags: W
HStem: 0 21G<55 214> 378.284 132.649<252.705 395.664> 481.011 20G<55 214>
VStem: 55 159<0 501.011>
AnchorPoint: "Anchor-2" 172 0.0117188 basechar 0
AnchorPoint: "Anchor-0" 235 501.011 basechar 0
LayerCount: 2
Fore
SplineSet
55 0 m 1xb0
 55 501.010742188 l 1
 214 501.010742188 l 1
 214 0 l 1
 55 0 l 1xb0
334 510.93359375 m 0xd0
 400.93623091 510.93359375 420 487.93359375 420 487.93359375 c 1
 394 352.93359375 l 1
 394 352.93359375 364.338667169 378.284179688 314 378.284179688 c 0
 251.162358711 378.284179688 214 342.982386374 214 274 c 5
 169 283.561523438 l 5
 186.692227428 440.920782249 228.644366702 510.93359375 334 510.93359375 c 0xd0
EndSplineSet
Validated: 5
EndChar

StartChar: e
Encoding: 101 101 43
Width: 548
Flags: W
HStem: -9.99805 132.462<236.172 451.285> 205 97<137 372.203> 393.284 117.649<227.1 341.284>
VStem: 137 52.8486<205 302>
AnchorPoint: "Anchor-3" 406 14 basechar 0
AnchorPoint: "Anchor-2" 299 0 basechar 0
AnchorPoint: "Anchor-0" 286 501.011 basechar 0
LayerCount: 2
Back
SplineSet
35 253.561523438 m 4
 35 409.296356709 129.553068562 510.93359375 284.888671875 510.93359375 c 4
 466.531613535 510.93359375 523.465820312 381.739156265 523.465820312 271.7109375 c 4
 523.465820312 230.52635492 519 205 519 205 c 5
 137 205 l 5
 137 302 l 5
 372.203125 302 l 5
 372.203125 302 371.509765625 311.517578125 369.034179688 320.740234375 c 4
 360.170898438 353.7578125 342.866210938 393.284179688 281.796875 393.284179688 c 4
 217.951141812 393.284179688 189.848632812 340.949823972 189.848632812 262.561523438 c 4
 189.848632812 171.013413832 222.7869277 122.463867188 331 122.463867188 c 4
 418.917830973 122.463867188 469.018554688 152.595703125 469.018554688 152.595703125 c 5
 489.827148438 19.595703125 l 5
 489.827148438 19.595703125 428.103780859 -9.998046875 320.888671875 -9.998046875 c 4
 123.382468816 -9.998046875 35 94.0826581131 35 253.561523438 c 4
EndSplineSet
Fore
SplineSet
35 253.561523438 m 0
 35 409.296356709 129.553068562 510.93359375 284.888671875 510.93359375 c 0
 466.531613535 510.93359375 523.465820312 381.739156265 523.465820312 271.7109375 c 0
 523.465820312 230.52635492 519 205 519 205 c 1
 137 205 l 1
 137 302 l 1
 372.203125 302 l 5
 372.203125 302 371.509765625 311.517578125 369.034179688 320.740234375 c 4
 360.170898438 353.7578125 342.866210938 393.284179688 281.796875 393.284179688 c 0
 217.951141812 393.284179688 189.848632812 340.949823972 189.848632812 262.561523438 c 0
 189.848632812 171.013413832 222.7869277 122.463867188 331 122.463867188 c 0
 418.917830973 122.463867188 469.018554688 152.595703125 469.018554688 152.595703125 c 1
 489.827148438 19.595703125 l 1
 489.827148438 19.595703125 428.103780859 -9.998046875 320.888671875 -9.998046875 c 0
 123.382468816 -9.998046875 35 94.0826581131 35 253.561523438 c 0
EndSplineSet
Validated: 5
EndChar

StartChar: d
Encoding: 100 100 44
Width: 612
Flags: W
HStem: -9.99805 128.649<242.944 354.72> 0 21G<403 562> 381.472 129.462<244.13 362.247> 731.002 20G<403 562>
VStem: 38.0713 162.849<163.887 333.314> 403 159<217.374 751.002> 403 42.8486<75.1885 217.374 317.374 434.496>
AnchorPoint: "Anchor-2" 330 0 basechar 0
AnchorPoint: "Anchor-0" 483 750.002 basechar 0
LayerCount: 2
Fore
SplineSet
562 0 m 1x7c
 403 0 l 1x7a
 403 751.001953125 l 5
 562 751.001953125 l 5
 562 0 l 1x7c
403 295.374023438 m 1xbc
 403 337.320534539 374.835667282 381.471679688 308.959960938 381.471679688 c 0
 235.315429688 381.471679688 200.919921875 323.264066977 200.919921875 246.374023438 c 0
 200.919921875 173.848533776 233.28125 118.651367188 306.848632812 118.651367188 c 0
 372.857476914 118.651367188 403 161.377635672 403 225.374023438 c 1xbc
 445.848632812 217.374023438 l 1xba
 445.848632812 75.1884765621 377.407792416 -9.998046875 272 -9.998046875 c 0
 123.407733598 -9.998046875 38.0712890625 91.6396484375 38.0712890625 247.374023438 c 0
 38.0712890625 406.852539062 130.340628523 510.93359375 261.959960938 510.93359375 c 0
 390.05505386 510.93359375 450.848632812 434.49609375 450.848632812 317.374023438 c 1
 403 295.374023438 l 1xbc
EndSplineSet
EndChar

StartChar: b
Encoding: 98 98 45
Width: 612
Flags: W
HStem: -9.99805 128.649<255.285 372.795> 0 21G<55 214> 382.472 128.462<261.22 372.931> 731.002 20G<55 214>
VStem: 55 159<183.374 751.002> 166.151 47.8486<52.6002 183.374 303.374 426.925> 416.08 162.849<163.081 337.246>
AnchorPoint: "Anchor-2" 294 0 basechar 0
AnchorPoint: "Anchor-0" 134 749.002 basechar 0
LayerCount: 2
Fore
SplineSet
55 0 m 1x7a
 55 751.001953125 l 1
 214 751.001953125 l 1x7a
 214 0 l 1x76
 55 0 l 1x7a
214 275.374023438 m 1
 171.151367188 303.374023438 l 1
 171.151367188 426.924573069 229.126192805 510.93359375 359.040039062 510.93359375 c 4
 490.878928867 510.93359375 578.928710938 409.616875724 578.928710938 254.374023438 c 0
 578.928710938 94.4039882752 489.833237275 -9.998046875 351 -9.998046875 c 4
 242.076235727 -9.998046875 166.151367188 52.6001704759 166.151367188 183.374023438 c 1xb6
 214 205.374023438 l 1
 214 153.370663211 253.009664121 118.651367188 310.151367188 118.651367188 c 4xba
 382.355468749 118.651367188 416.080078125 173.848533776 416.080078125 246.374023438 c 0
 416.080078125 323.833211146 385.321289062 382.471679688 310.040039062 382.471679688 c 4
 233.571634907 382.471679688 214 327.55166941 214 275.374023438 c 1
EndSplineSet
EndChar

StartChar: a
Encoding: 97 97 46
Width: 566
Flags: W
HStem: -9.99805 123.998<414.292 548.059> -9.99805 114.462<144.97 296.265> 220.284 86.6494<210.556 343.777> 386.011 125<137.523 304.418>
VStem: 30 157.849<115.168 200.796> 327.929 156<125.973 220.284 297.011 362.507> 327.929 15.8486<220.284 306.934> 327.929 40.8486<53.4076 150.562>
AnchorPoint: "Anchor-3" 458 0 basechar 0
AnchorPoint: "Anchor-2" 284 0 basechar 0
AnchorPoint: "Anchor-0" 274 501.011 basechar 0
LayerCount: 2
Back
SplineSet
347.928710938 177.561523438 m 1x7c
 397.77734375 180.561523438 l 1x7a
 397.77734375 65.2546726396 333.443566636 -9.998046875 197.888671875 -9.998046875 c 0
 93.5258452633 -9.998046875 30 50 30 141 c 0
 30 286.71747631 169.159368499 309.798279039 363.928710938 309.93359375 c 1
 363.77734375 224.284179688 l 1x79
 204.9215174 224.170106541 154.848632812 210.544945242 154.848632812 148.561523438 c 0
 154.848632812 111.324445486 179.419144912 86.4638671875 236.888671875 86.4638671875 c 0
 303.711369303 86.4638671875 347.928710938 123.027306191 347.928710938 177.561523438 c 1x7c
347.928710938 299.010742188 m 2xbc
 347.928710938 377.97408765 315.670027449 412.010742188 238.928710938 412.010742188 c 0
 160.769677734 412.010742188 104.928710938 368.010742188 104.928710938 368.010742188 c 5
 69.9287109375 467.010742188 l 5
 69.9287109375 467.010742188 149.657226562 511.010742188 264.928710938 511.010742188 c 0
 407.721987032 511.010742188 466.928710938 427.01055301 466.928710938 300.010742188 c 2
 466.928710938 118 l 2
 466.928710938 93.251950046 475.36431245 84 497.928710938 84 c 0
 515.694039812 84 526.928710938 91 526.928710938 91 c 1
 535.928710938 13 l 1
 535.928710938 13 510.8653569 -9.998046875 457.928710938 -9.998046875 c 0
 384.082557091 -9.998046875 347.928710938 33 347.928710938 125 c 2
 347.928710938 299.010742188 l 2xbc
EndSplineSet
Fore
SplineSet
327.928710938 179.561523438 m 5x7c
 368.77734375 150.561523438 l 5x79
 368.77734375 53.4075553224 313.777159774 -9.998046875 197.888671875 -9.998046875 c 4
 93.5258452633 -9.998046875 30 50 30 141 c 4
 30 284.129758739 160.824693226 306.80068202 343.928710938 306.93359375 c 5
 343.77734375 220.284179688 l 5x7a
 225.219276185 220.18818406 187.848632812 208.722243576 187.848632812 156.561523438 c 4
 187.848632812 125.320980654 207.327744293 104.463867188 252.888671875 104.463867188 c 4
 298.046957729 104.463867188 327.928710938 134.605461238 327.928710938 179.561523438 c 5x7c
327.928710938 297.010742188 m 6xbc
 327.928710937 359.203111622 300.405247044 386.010742188 234.928710938 386.010742188 c 4
 159.686059569 386.010742188 105.928710938 347.010742188 105.928710938 347.010742188 c 5
 70.9287109375 466.010742188 l 5
 70.9287109375 466.010742188 148.612905648 511.010742188 260.928710938 511.010742188 c 4
 418.566832565 511.010742188 483.928710938 438.602973658 483.928710938 304.010742188 c 6
 483.928710938 158 l 6xbc
 483.928710938 125.973111824 493.180660983 114 517.928710938 114 c 4
 535.694039812 114 546.928710938 121 546.928710938 121 c 5
 555.928710938 13 l 5
 555.928710938 13 524.438855865 -9.998046875 457.928710938 -9.998046875 c 4
 370.655983665 -9.998046875 327.928710938 33 327.928710938 125 c 6xb9
 327.928710938 297.010742188 l 6xbc
EndSplineSet
Validated: 5
EndChar

StartChar: plus
Encoding: 43 43 47
Width: 450
Flags: W
HStem: 295 126<30 420>
VStem: 162 126<163 553>
LayerCount: 2
Fore
SplineSet
288 553 m 1
 288 163 l 1
 162 163 l 1
 162 553 l 1
 288 553 l 1
420 295 m 1
 30 295 l 1
 30 421 l 1
 420 421 l 1
 420 295 l 1
EndSplineSet
Validated: 5
EndChar

StartChar: s
Encoding: 115 115 48
Width: 476
Flags: W
HStem: -9.99805 122.979<105.377 277.07> 389.904 121.029<203.918 370.427>
VStem: 42.2041 157.058<322.527 382.499> 281.521 160.169<121.42 179.013>
AnchorPoint: "Anchor-2" 235 0.0117188 basechar 0
AnchorPoint: "Anchor-0" 243 501.011 basechar 0
LayerCount: 2
Back
SplineSet
148.846679688 206.568359375 m 0
 43.130870524 231.984848532 14.2041015625 289.198597151 14.2041015625 371 c 0
 14.2041015625 484.204393606 103.040328472 550.93359375 261.017578125 550.93359375 c 0
 395.118055884 550.93359375 460.334960938 505.225585938 460.334960938 505.225585938 c 1
 429.294921875 353.444335938 l 1
 429.294921875 353.444335938 378.950040903 383.904296875 304.743164062 383.904296875 c 0
 281.648103593 383.904296875 271.26171875 377.249730853 271.26171875 366.518554688 c 0
 271.26171875 354.407153335 280.97925761 348.475710121 312.037109375 340.086914062 c 0
 436.907736216 306.35907512 471.689453125 256.308198732 471.689453125 169.40234375 c 0
 471.689453125 58.8399337167 386.796866917 -9.998046875 227.856445312 -9.998046875 c 0
 91.45854439 -9.998046875 5 29.5625 5 29.5625 c 1
 39.314453125 190.861328125 l 5
 39.314453125 190.861328125 101.164208324 158.981445312 176.993164062 158.981445312 c 0
 200.38426004 158.981445312 211.520507812 165.565656725 211.520507812 178.336914062 c 0
 211.520507812 191.277313271 200.196200602 194.222764597 148.846679688 206.568359375 c 0
EndSplineSet
Fore
SplineSet
207.846679688 193.568359375 m 0
 77.7909467816 219.746811901 42.2041015625 272.680955034 42.2041015625 351 c 0
 42.2041015625 451.621485518 120.242349187 510.93359375 259.017578125 510.93359375 c 4
 370.915698501 510.93359375 425.334960938 475.225585938 425.334960938 475.225585938 c 1
 399.294921875 353.444335938 l 1
 399.294921875 353.444335938 345.312164274 389.904296875 265.743164062 389.904296875 c 0
 219.885137767 389.904296875 199.26171875 375.211771647 199.26171875 351.518554688 c 0
 199.26171875 333.908561012 210.745916433 321.613988881 251.037109375 313.086914062 c 0
 400.449491759 281.465845773 441.689453125 232.744074665 441.689453125 149.40234375 c 0
 441.689453125 51.1657050986 367.24162831 -9.998046875 227.856445312 -9.998046875 c 0
 107.983726418 -9.998046875 32 29.5625 32 29.5625 c 1
 62.314453125 154.861328125 l 1
 62.314453125 154.861328125 131.801161279 112.981445312 216.993164062 112.981445312 c 0
 260.708235275 112.981445312 281.520507812 126.369120381 281.520507812 152.336914062 c 0
 281.520507812 171.236100993 268.897111701 181.27973664 207.846679688 193.568359375 c 0
EndSplineSet
EndChar

StartChar: y
Encoding: 121 121 49
Width: 539
Flags: W
HStem: 481.011 20G<5 183.229 358.583 534>
AnchorPoint: "Anchor-2" 168 -209.994 basechar 0
AnchorPoint: "Anchor-0" 277 501.011 basechar 0
LayerCount: 2
Fore
SplineSet
185 33 m 1
 5 501.010742188 l 1
 177 501.010742188 l 1
 269.606445312 203.694335938 l 1
 365 501.010742188 l 1
 534 501.010742188 l 1
 243 -209.994140625 l 5
 65 -209.994140625 l 5
 185 33 l 1
EndSplineSet
EndChar

StartChar: u
Encoding: 117 117 50
Width: 595
Flags: W
HStem: -9.92285 131.649<174.746 334.454> 0 21G<381.777 540.777> 481.011 20G<55 214 381.777 540.777>
VStem: 55 159<149.812 501.011> 381.777 159<210.449 501.011>
AnchorPoint: "Anchor-3" 451 0 basechar 0
AnchorPoint: "Anchor-2" 312 0.0117188 basechar 0
AnchorPoint: "Anchor-0" 302 501.011 basechar 0
LayerCount: 2
Back
SplineSet
381.77734375 218.93359375 m 5xd8
 436.77734375 207.372070312 l 5
 414.903317112 56.9335937502 363.035217645 -10 233.77734375 -10 c 4
 115.71507993 -10 55 56.8489117222 55 196.372070312 c 6
 55 500.93359375 l 5
 214 500.93359375 l 5
 214 215.372070312 l 6
 214 154.101483469 238.678480459 118.649414062 296.77734375 118.649414062 c 4
 356.320340654 118.649414062 381.77734375 158.797832729 381.77734375 218.93359375 c 5xd8
540.77734375 500.93359375 m 5
 540.77734375 -0.0771484375 l 5
 381.77734375 -0.0771484375 l 5xb8
 381.77734375 500.93359375 l 5
 540.77734375 500.93359375 l 5
EndSplineSet
Fore
SplineSet
381.77734375 222.010742188 m 13xb8
 436.77734375 210.44921875 l 21
 414.903317112 57.934507513 363.035217645 -9.9228515625 233.77734375 -9.9228515625 c 4
 115.71507993 -9.9228515625 55 57.897832817 55 199.44921875 c 6
 55 501.010742188 l 5
 214 501.010742188 l 5
 214 218.44921875 l 6
 214 157.178631906 238.678480459 121.7265625 296.77734375 121.7265625 c 4
 356.320340654 121.7265625 381.77734375 161.874981167 381.77734375 222.010742188 c 13xb8
540.77734375 501.010742188 m 5
 540.77734375 0 l 5
 381.77734375 0 l 5x78
 381.77734375 501.010742188 l 5
 540.77734375 501.010742188 l 5
EndSplineSet
Validated: 5
EndChar

StartChar: backslash
Encoding: 92 92 51
Width: 537
Flags: W
LayerCount: 2
Fore
SplineSet
377 -171.469726562 m 1
 10 761.403320312 l 1
 160 761.403320312 l 5
 527 -171.469726562 l 5
 377 -171.469726562 l 1
EndSplineSet
Validated: 1
Substitution2: "'case' Case-Sensitive Forms lookup 27-1" backslash.case
EndChar

StartChar: equal
Encoding: 61 61 52
Width: 450
Flags: W
HStem: 215 116<30 420> 385 116<30 420>
LayerCount: 2
Back
SplineSet
420 285 m 5xea
 30 285 l 5
 30 431 l 5
 420 431 l 5
 420 285 l 5xea
EndSplineSet
Fore
SplineSet
420 215 m 1
 30 215 l 1
 30 331 l 1
 420 331 l 1
 420 215 l 1
420 385 m 1
 30 385 l 1
 30 501 l 1
 420 501 l 1
 420 385 l 1
EndSplineSet
Validated: 1
EndChar

StartChar: v
Encoding: 118 118 53
Width: 539
Flags: W
HStem: 0 21G<174.934 360.225> 481.011 20G<5 12.0657 526.775 534>
AnchorPoint: "Anchor-2" 266 0.0117188 basechar 0
AnchorPoint: "Anchor-0" 272 501.011 basechar 0
LayerCount: 2
Fore
SplineSet
182 0 m 1
 5 501.010742188 l 1
 172 501.010742188 l 1
 267.606445312 171.694335938 l 1
 367 501.010742188 l 5
 534 501.010742188 l 1
 353 0 l 1
 182 0 l 1
EndSplineSet
EndChar

StartChar: w
Encoding: 119 119 54
Width: 735
Flags: W
HStem: 0 21G<131.731 298.434 433.491 602.309> 481.011 20G<5 10.2693 724.691 730>
AnchorPoint: "Anchor-2" 363 0 basechar 0
AnchorPoint: "Anchor-0" 368 501.011 basechar 0
LayerCount: 2
Fore
SplineSet
137 0 m 1
 5 501.010742188 l 1
 163 501.010742188 l 1
 226.606445312 193.694335938 l 1
 296 471.010742188 l 1
 438 471.010742188 l 1
 508.393554688 193.694335938 l 1
 572 501.010742188 l 5
 730 501.010742188 l 1
 597 0 l 1
 439 0 l 1
 365.5 266.841796875 l 1
 293 0 l 1
 137 0 l 1
EndSplineSet
EndChar

StartChar: x
Encoding: 120 120 55
Width: 544
Flags: W
HStem: 0 21G<5 198.045 345.955 539> 481.011 20G<16 204.192 339.808 528>
VStem: 244 56<223 293>
AnchorPoint: "Anchor-2" 277 0 basechar 0
AnchorPoint: "Anchor-0" 276 501.011 basechar 0
LayerCount: 2
Fore
SplineSet
188 0 m 5
 5 0 l 5
 168 264 l 5
 16 501.010742188 l 5
 194 501.010742188 l 5
 300 293 l 5
 300 223 l 5
 188 0 l 5
356 0 m 1
 244 223 l 1
 244 293 l 1
 350 501.010742188 l 1
 528 501.010742188 l 1
 376 264 l 1
 539 0 l 1
 356 0 l 1
EndSplineSet
Validated: 5
EndChar

StartChar: z
Encoding: 122 122 56
Width: 478
Flags: W
HStem: 0 136<245 448> 365.011 136<40 233>
AnchorPoint: "Anchor-2" 246 0 basechar 0
AnchorPoint: "Anchor-0" 240 501.011 basechar 0
LayerCount: 2
Fore
SplineSet
448 0 m 1
 30 0 l 1
 30 96 l 1
 233 365.010742188 l 1
 40 365.010742188 l 1
 40 501.010742188 l 1
 438 501.010742188 l 1
 438 405.010742188 l 1
 245 136 l 1
 448 136 l 1
 448 0 l 1
EndSplineSet
Validated: 1
EndChar

StartChar: period
Encoding: 46 46 57
Width: 258
Flags: W
HStem: -10 196.449<63.3516 193.849>
VStem: 30 198.227<25.3575 152.888>
LayerCount: 2
Fore
SplineSet
30 88.224609375 m 0
 30 147.730230558 68.4767561956 186.44921875 127.612304688 186.44921875 c 0
 188.566273795 186.44921875 228.2265625 148.824256969 228.2265625 91 c 0
 228.2265625 29.8119565901 188.566273795 -10 127.612304688 -10 c 0
 68.4767561956 -10 30 28.7179592526 30 88.224609375 c 0
EndSplineSet
Validated: 1
EndChar

StartChar: two
Encoding: 50 50 58
Width: 600
Flags: W
HStem: 0 149<238.813 570.549> 591.599 147.394<178.047 367.085>
VStem: 397.676 173.086<441.678 564.489>
LayerCount: 2
Fore
SplineSet
397.67578125 501.010742188 m 0
 397.67578125 558.264038627 369.116909384 591.598632812 285.328125 591.598632812 c 0
 177.836310213 591.598632812 112.538085938 530.754882812 112.538085938 530.754882812 c 1
 58.322265625 667.796875 l 1
 58.322265625 667.796875 144.962299328 738.9921875 296.69140625 738.9921875 c 0
 467.592134589 738.9921875 570.76171875 662.295898438 570.76171875 510.93359375 c 0
 570.76171875 385.06406973 501.701313541 322.078150487 351.374023438 249.0234375 c 0
 238.958832947 194.392907867 238.813476562 149 238.813476562 149 c 1
 570.548828125 149 l 1
 570.548828125 0 l 1
 48 0 l 1
 48 54 l 2
 48 212.196649246 144.594628124 300.698849688 313.821289062 392.876953125 c 0
 378.970862289 429.633652834 397.67578125 464.335285132 397.67578125 501.010742188 c 0
EndSplineSet
Substitution2: "'frac' Diagonal Fractions in Latin lookup 26 subtable" two.numr
Substitution2: "'onum' Oldstyle Figures lookup 18-1" two.osf
Substitution2: "'tnum' Tabular Numbers lookup 17-1" two.tf
Substitution2: "'numr' Numerators lookup 0 subtable" two.numr
Substitution2: "'dnom' Denominators lookup 0 subtable" two.dnom
Substitution2: "'sups' Superscript lookup 0 subtable" two.superior
Substitution2: "'sinf' Scientific Inferiors lookup 0 subtable" two.inferior
EndChar

StartChar: three
Encoding: 51 51 59
Width: 581
Flags: W
HStem: -9.99805 142.938<136.485 339.541> 305 135.481<164.139 339.758> 591.599 147.394<151.652 336.159>
VStem: 357.984 171.086<460.303 569.538> 371.827 175.084<163.835 280.831>
LayerCount: 2
Fore
SplineSet
263.138671875 440.481445312 m 6xe8
 334.670383778 440.481445313 357.984375 465.76171875 357.984375 516.05859375 c 4
 357.984375 559 333.902424493 591.598632812 255.63671875 591.598632812 c 4
 152.577432349 591.598632812 89.8466796875 530.754882812 89.8466796875 530.754882812 c 1
 35.630859375 667.796875 l 1
 35.630859375 667.796875 119.178183174 738.9921875 264 738.9921875 c 0
 428.1125036 738.9921875 529.0703125 667.857421875 529.0703125 532.868164062 c 0xf0
 529.0703125 412 421.163085938 375.697265625 421.163085938 375.697265625 c 1
 421.163085938 375.697265625 546.911132812 341 546.911132812 205.670898438 c 0
 546.911132812 51.6816406247 433.81586626 -9.998046875 264 -9.998046875 c 0
 108.156372475 -9.998046875 15.451171875 50.9091796875 15.451171875 50.9091796875 c 1
 62.7744140625 194.262695312 l 1
 62.7744140625 194.262695312 134.49739724 132.939453125 247 132.939453125 c 4
 333.350417096 132.939453125 371.827148438 164 371.827148438 220 c 4
 371.827148438 276.995117188 339.268322078 304.498046875 277.138671875 304.737304688 c 6
 164 305 l 1
 164.138671875 440.481445312 l 1
 263.138671875 440.481445312 l 6xe8
EndSplineSet
Substitution2: "'frac' Diagonal Fractions in Latin lookup 26 subtable" three.numr
Substitution2: "'onum' Oldstyle Figures lookup 18-1" three.osf
Substitution2: "'tnum' Tabular Numbers lookup 17-1" three.tf
Substitution2: "'numr' Numerators lookup 0 subtable" three.numr
Substitution2: "'dnom' Denominators lookup 0 subtable" three.dnom
Substitution2: "'sups' Superscript lookup 0 subtable" three.superior
Substitution2: "'sinf' Scientific Inferiors lookup 0 subtable" three.inferior
EndChar

StartChar: comma
Encoding: 44 44 61
Width: 264
Flags: W
HStem: -3.44922 189.898<63.3383 126.948>
VStem: 30 204.227<34.1125 146.762>
LayerCount: 2
Fore
SplineSet
30 91.224609375 m 0
 30 148.912795348 69.2651149239 186.44921875 129.612304688 186.44921875 c 0
 192.989547413 186.44921875 234.2265625 145.362945159 234.2265625 71 c 0
 234.2265625 -96.8519759486 77 -128 77 -128 c 1
 39 -59 l 5
 39 -59 108.18652676 -39.1197243809 126.948242188 -3.44921875 c 1
 64.5274837998 -1.63709388886 30 37.6300703417 30 91.224609375 c 0
EndSplineSet
Validated: 1
EndChar

StartChar: zero
Encoding: 48 48 63
Width: 663
Flags: W
HStem: -9.99805 144.462<268.288 395.489> 594.659 144.462<268.288 395.489>
VStem: 35 162.849<220.637 508.486> 465.929 162.849<220.637 508.486>
LayerCount: 2
Fore
SplineSet
197.848632812 364.561523438 m 4
 197.848632812 226.582654677 237.992840923 134.463867188 331.888671875 134.463867188 c 4
 425.784502826 134.463867188 465.928710938 226.582654677 465.928710938 364.561523438 c 4
 465.928710938 502.540392195 425.784502826 594.659179688 331.888671875 594.659179688 c 4
 237.992840923 594.659179688 197.848632812 502.540392195 197.848632812 364.561523438 c 4
35 364.561523438 m 4
 35 591.206054688 137.662815906 739.12109375 331.888671875 739.12109375 c 4
 526.114527844 739.12109375 628.77734375 591.206054688 628.77734375 364.561523438 c 4
 628.77734375 137.916992188 526.114527844 -9.998046875 331.888671875 -9.998046875 c 4
 137.662815906 -9.998046875 35 137.916992188 35 364.561523438 c 4
EndSplineSet
Validated: 1
Substitution2: "'frac' Diagonal Fractions in Latin lookup 26 subtable" zero.numr
Substitution2: "'onum' Oldstyle Figures lookup 18-1" zero.osf
Substitution2: "'tnum' Tabular Numbers lookup 17-1" zero.tf
Substitution2: "'numr' Numerators lookup 0 subtable" zero.numr
Substitution2: "'dnom' Denominators lookup 0 subtable" zero.dnom
Substitution2: "'sups' Superscript lookup 0 subtable" zero.superior
Substitution2: "'sinf' Scientific Inferiors lookup 0 subtable" zero.inferior
EndChar

StartChar: one
Encoding: 49 49 64
Width: 415
Flags: W
HStem: 0 21G<194 360> 711 20G<178.522 360>
VStem: 194 166<0 564>
LayerCount: 2
Fore
SplineSet
360 731 m 1
 360 0 l 1
 194 0 l 5
 194 564 l 5
 60 489 l 1
 10 616 l 1
 214 731 l 1
 360 731 l 1
EndSplineSet
Validated: 1
Substitution2: "'frac' Diagonal Fractions in Latin lookup 26 subtable" one.numr
Substitution2: "'onum' Oldstyle Figures lookup 18-1" one.osf
Substitution2: "'tnum' Tabular Numbers lookup 17-1" one.tf
Substitution2: "'numr' Numerators lookup 0 subtable" one.numr
Substitution2: "'dnom' Denominators lookup 0 subtable" one.dnom
Substitution2: "'sups' Superscript lookup 0 subtable" one.superior
Substitution2: "'sinf' Scientific Inferiors lookup 0 subtable" one.inferior
EndChar

StartChar: four
Encoding: 52 52 65
Width: 646
Flags: W
HStem: 0 21G<355 515> 172 138<199 616> 711 20G<342.136 515>
VStem: 355 160<0 529>
LayerCount: 2
Back
SplineSet
61.5 82.75 m 5
 16.5 380.25 l 1029
EndSplineSet
Fore
SplineSet
515 731 m 1
 515 0 l 1
 355 0 l 1
 355 529 l 1
 199 310 l 1
 616 310 l 1
 616 172 l 1
 48 172 l 1
 30 291 l 1
 357 731 l 1
 515 731 l 1
EndSplineSet
Validated: 5
Substitution2: "'frac' Diagonal Fractions in Latin lookup 26 subtable" four.numr
Substitution2: "'onum' Oldstyle Figures lookup 18-1" four.osf
Substitution2: "'tnum' Tabular Numbers lookup 17-1" four.tf
Substitution2: "'numr' Numerators lookup 0 subtable" four.numr
Substitution2: "'dnom' Denominators lookup 0 subtable" four.dnom
Substitution2: "'sups' Superscript lookup 0 subtable" four.superior
Substitution2: "'sinf' Scientific Inferiors lookup 0 subtable" four.inferior
EndChar

StartChar: exclam
Encoding: 33 33 66
Width: 274
Flags: W
HStem: -10 196.449<71.2384 201.736> 711.008 20G<50 228>
VStem: 37.8867 198.227<25.3575 152.888> 50 178<562.655 731.008> 70 138<250 418.353>
LayerCount: 2
Fore
SplineSet
70 250 m 5xc8
 50 731.0078125 l 5
 228 731.0078125 l 5xd0
 208 250 l 5
 70 250 l 5xc8
EndSplineSet
Refer: 57 46 N 1 0 0 1 7.88672 0 2
Validated: 1
EndChar

StartChar: five
Encoding: 53 53 67
Width: 591
Flags: W
HStem: -9.99805 142.893<135.94 345.284> 359.936 121.435<232.139 353.806> 587.841 143.167<229.805 521.672>
VStem: 388.845 167.982<177.433 321.913>
LayerCount: 2
Fore
SplineSet
260 -9.998046875 m 0
 106.664429 -9.998046875 15.451171875 50.9091796875 15.451171875 50.9091796875 c 1
 62.7744140625 194.262695312 l 1
 62.7744140625 194.262695312 135.458665815 132.89453125 249 132.89453125 c 0
 350.02136543 132.89453125 388.844726562 176.304753106 388.844726562 246.576171875 c 0
 388.844726562 317.574656469 354.09761626 359.935546875 284 359.935546875 c 0
 194.661127062 359.935546875 178 299 178 299 c 1
 54.947265625 323.728515625 l 1
 95 731.0078125 l 5
 521.671875 731.0078125 l 1
 521.671875 587.840820312 l 1
 229.8046875 587.840820312 l 5
 213.470703125 446.322265625 l 1
 213.470703125 446.322265625 243.41467325 481.370117188 335 481.370117188 c 0
 470.487040261 481.370117188 556.827148438 394.833806434 556.827148438 250.497070312 c 0
 556.827148438 89.0388221304 456.853409497 -9.998046875 260 -9.998046875 c 0
EndSplineSet
Substitution2: "'frac' Diagonal Fractions in Latin lookup 26 subtable" five.numr
Substitution2: "'onum' Oldstyle Figures lookup 18-1" five.osf
Substitution2: "'tnum' Tabular Numbers lookup 17-1" five.tf
Substitution2: "'numr' Numerators lookup 0 subtable" five.numr
Substitution2: "'dnom' Denominators lookup 0 subtable" five.dnom
Substitution2: "'sups' Superscript lookup 0 subtable" five.superior
Substitution2: "'sinf' Scientific Inferiors lookup 0 subtable" five.inferior
EndChar

StartChar: six
Encoding: 54 54 68
Width: 640
Flags: W
HStem: -9.99805 137.889<245.955 393.203> 345.891 126.709<258.233 391.482> 596.52 142.473<276.528 475.207>
VStem: 35 158.304<397.747 507.359> 432.398 162.767<168.262 306.424>
LayerCount: 2
Back
SplineSet
178.3984375 236.890625 m 0
 178.3984375 160.019065367 219.88147703 103.890625 320.3984375 103.890625 c 0
 421.623435844 103.890625 463.3984375 160.019065367 463.3984375 236.890625 c 0
 463.3984375 314.340166284 421.623435844 370.890625 320.3984375 370.890625 c 0
 219.88147703 370.890625 178.3984375 314.340166284 178.3984375 236.890625 c 0
163.303710938 405.747070312 m 1
 163.303710938 405.747070312 204.094697864 475.599609375 331.263671875 475.599609375 c 0
 505.711185917 475.599609375 585.165039062 379.238029036 585.165039062 239 c 0
 585.165039062 79.095703125 484.937095781 -9.998046875 321.297851562 -9.998046875 c 0
 141.540405276 -9.998046875 35 99.6728515625 35 365.331054688 c 0
 35 605.528320312 149.046377502 738.9921875 354.297851562 738.9921875 c 0
 495.428880973 738.9921875 566.923828125 678.860351562 566.923828125 678.860351562 c 1
 522.619140625 573.388671875 l 5
 522.619140625 573.388671875 463.487673927 622.51953125 354.778320312 622.51953125 c 4
 232.266224145 622.51953125 170.301516454 546.295339891 163.303710938 405.747070312 c 1
EndSplineSet
Fore
SplineSet
207.3984375 236.890625 m 0
 207.3984375 175.890625 242.117454594 127.890625 319.3984375 127.890625 c 0
 397.387422206 127.890625 432.3984375 175.890625 432.3984375 236.890625 c 4
 432.3984375 297.890625 397.387422206 345.890625 319.3984375 345.890625 c 0
 242.117454594 345.890625 207.3984375 297.890625 207.3984375 236.890625 c 0
193.303710938 397.747070312 m 1
 193.303710938 397.747070312 234.580420613 472.599609375 363.263671875 472.599609375 c 0
 505.218380792 472.599609375 595.165039062 377.459860052 595.165039062 239 c 0
 595.165039062 79.095703125 493.037883828 -9.998046875 326.297851562 -9.998046875 c 0
 143.401062013 -9.998046875 35 99.6728515625 35 365.331054688 c 0
 35 605.528320312 152.618164062 738.9921875 364.297851562 738.9921875 c 0
 505.428880972 738.9921875 576.923828125 678.860351562 576.923828125 678.860351562 c 1
 519.619140625 547.388671875 l 1
 519.619140625 547.388671875 467.533810449 596.51953125 371.778320312 596.51953125 c 0
 257.584075036 596.51953125 193.82640661 536.726360895 193.303710938 397.747070312 c 1
EndSplineSet
Validated: 1
Substitution2: "'frac' Diagonal Fractions in Latin lookup 26 subtable" six.numr
Substitution2: "'onum' Oldstyle Figures lookup 18-1" six.osf
Substitution2: "'tnum' Tabular Numbers lookup 17-1" six.tf
Substitution2: "'numr' Numerators lookup 0 subtable" six.numr
Substitution2: "'dnom' Denominators lookup 0 subtable" six.dnom
Substitution2: "'sups' Superscript lookup 0 subtable" six.superior
Substitution2: "'sinf' Scientific Inferiors lookup 0 subtable" six.inferior
EndChar

StartChar: parenright
Encoding: 41 41 69
Width: 402
Flags: W
HStem: -171.47 128.525<30 117.564> 630.944 128.525<30 117.564>
VStem: 219.448 152.679<99.5086 488.491>
LayerCount: 2
Fore
SplineSet
30 -42.9443359375 m 1
 156.966287707 -42.9443359375 219.448242188 50.4102724985 219.448242188 294 c 4
 219.448242188 537.589727501 156.966287707 630.944335938 30 630.944335938 c 1
 30 759.469726562 l 1
 252.474637184 759.469726562 372.126953125 611.823242188 372.126953125 294 c 4
 372.126953125 -23.8232421875 252.474637184 -171.469726562 30 -171.469726562 c 1
 30 -42.9443359375 l 1
EndSplineSet
Validated: 1
Substitution2: "'case' Case-Sensitive Forms lookup 27-1" parenright.case
EndChar

StartChar: seven
Encoding: 55 55 70
Width: 604
Flags: W
HStem: 0 21G<159 330.865> 585 146<40 371>
VStem: 159 170<0 154.802>
LayerCount: 2
Fore
SplineSet
329 0 m 5
 159 0 l 5
 169.786021546 322 371 585 371 585 c 1
 40 585 l 1
 40 731 l 1
 564 731 l 1
 564 625 l 1
 564 625 332.73015873 389 329 0 c 5
EndSplineSet
Validated: 1
Substitution2: "'frac' Diagonal Fractions in Latin lookup 26 subtable" seven.numr
Substitution2: "'onum' Oldstyle Figures lookup 18-1" seven.osf
Substitution2: "'tnum' Tabular Numbers lookup 17-1" seven.tf
Substitution2: "'numr' Numerators lookup 0 subtable" seven.numr
Substitution2: "'dnom' Denominators lookup 0 subtable" seven.dnom
Substitution2: "'sups' Superscript lookup 0 subtable" seven.superior
Substitution2: "'sinf' Scientific Inferiors lookup 0 subtable" seven.inferior
EndChar

StartChar: eight
Encoding: 56 56 71
Width: 627
Flags: W
HStem: -9.99805 136.764<232.279 394.721> 326.397 116.664<256.396 372.454> 369.573 52.2568<155.194 475.06> 614.998 123.887<251.218 381.095>
VStem: 35 161.768<161.041 286.657> 70.2598 152.688<469.17 588.328> 409.052 152.688<471.963 586.827> 430.232 161.768<161.041 286.657>
LayerCount: 2
Fore
SplineSet
313.5 443.061523438 m 4xd6
 372.454101562 443.061523438 409.051757812 477.877929688 409.051757812 527.869140625 c 4
 409.051757812 580.555082283 373.88671875 614.998046875 313.5 614.998046875 c 4
 255.009765625 614.998046875 222.948242188 580.555082283 222.948242188 527.869140625 c 4
 222.948242188 477.877929688 256.396484375 443.061523438 313.5 443.061523438 c 4xd6
313.5 738.884765625 m 0
 468.227676339 738.884765625 561.740234375 665.090820312 561.740234375 543.655273438 c 0
 561.740234375 430.566598971 475.059951021 369.573242188 313.5 369.573242188 c 0xb6
 155.193966766 369.573242188 70.259765625 430.566598971 70.259765625 543.655273438 c 0
 70.259765625 665.090820312 161.888550849 738.884765625 313.5 738.884765625 c 0
313.5 126.765625 m 4
 388.928930053 126.765625 430.232421875 163.372785654 430.232421875 224.020507812 c 4
 430.232421875 284.508420037 388.945121152 326.397460938 313.5 326.397460938 c 4
 238.054878848 326.397460938 196.767578125 284.508420037 196.767578125 224.020507812 c 4xd9
 196.767578125 163.372785654 238.071069947 126.765625 313.5 126.765625 c 4
313.5 421.830078125 m 0xb9
 493.156704176 421.830078125 592 345.844593853 592 208.381835938 c 0
 592 76.1718749996 482.440888855 -9.998046875 313.5 -9.998046875 c 0
 144.559111145 -9.998046875 35 76.171875 35 208.381835938 c 0
 35 345.844593853 133.843295824 421.830078125 313.5 421.830078125 c 0xb9
EndSplineSet
Substitution2: "'frac' Diagonal Fractions in Latin lookup 26 subtable" eight.numr
Substitution2: "'onum' Oldstyle Figures lookup 18-1" eight.osf
Substitution2: "'tnum' Tabular Numbers lookup 17-1" eight.tf
Substitution2: "'numr' Numerators lookup 0 subtable" eight.numr
Substitution2: "'dnom' Denominators lookup 0 subtable" eight.dnom
Substitution2: "'sups' Superscript lookup 0 subtable" eight.superior
Substitution2: "'sinf' Scientific Inferiors lookup 0 subtable" eight.inferior
EndChar

StartChar: nine
Encoding: 57 57 72
Width: 630
Flags: W
HStem: -9.99805 142.473<149.234 350.892> 252.395 129.709<238.253 364.373> 600.104 138.889<236.532 384.64>
VStem: 35 162.767<420.498 561.227> 422.767 172.398<212.708 537.731>
LayerCount: 2
Fore
SplineSet
422.766601562 491.103515625 m 0
 422.766601562 552.103515625 390.047584468 600.103515625 310.766601562 600.103515625 c 0
 230.777616857 600.103515625 197.766601562 552.103515625 197.766601562 491.103515625 c 0
 197.766601562 430.103515625 230.777616857 382.103515625 310.766601562 382.103515625 c 0
 390.047584468 382.103515625 422.766601562 430.103515625 422.766601562 491.103515625 c 0
426.861328125 331.247070312 m 1
 426.861328125 331.247070312 388.013232191 252.39453125 266.901367188 252.39453125 c 0
 124.946658271 252.39453125 35 349.164169963 35 489.994140625 c 0
 35 649.8984375 137.127155235 738.9921875 303.8671875 738.9921875 c 0
 486.76397705 738.9921875 595.165039062 629.321289062 595.165039062 363.663085938 c 0
 595.165039062 123.465820312 477.546875 -9.998046875 265.8671875 -9.998046875 c 0
 124.73615809 -9.998046875 53.2412109375 50.1337890625 53.2412109375 50.1337890625 c 1
 100.545898438 181.60546875 l 1
 100.545898438 181.60546875 156.154296875 132.474609375 258.38671875 132.474609375 c 0
 366.182617188 132.474609375 426.704101562 192.267779731 426.861328125 331.247070312 c 1
EndSplineSet
Validated: 1
Substitution2: "'frac' Diagonal Fractions in Latin lookup 26 subtable" nine.numr
Substitution2: "'onum' Oldstyle Figures lookup 18-1" nine.osf
Substitution2: "'tnum' Tabular Numbers lookup 17-1" nine.tf
Substitution2: "'numr' Numerators lookup 0 subtable" nine.numr
Substitution2: "'dnom' Denominators lookup 0 subtable" nine.dnom
Substitution2: "'sups' Superscript lookup 0 subtable" nine.superior
Substitution2: "'sinf' Scientific Inferiors lookup 0 subtable" nine.inferior
EndChar

StartChar: question
Encoding: 63 63 73
Width: 547
Flags: W
HStem: -10 196.449<149.238 279.736> 315.594 112.455<207.408 372.989> 595.229 143.764<123.947 319.434>
VStem: 115.887 198.227<25.3575 152.888> 147.423 136.956<250 316.653> 349.096 167.774<455.437 564.28>
LayerCount: 2
Back
SplineSet
152.38671875 63.224609375 m 0xf4
 152.38671875 107.584937143 181.008990842 136.44921875 224.999023438 136.44921875 c 0
 268.990077228 136.44921875 297.61328125 107.584937143 297.61328125 63.224609375 c 0
 297.61328125 18.8635145521 268.990077228 -10 224.999023438 -10 c 0
 181.008990842 -10 152.38671875 18.8635145521 152.38671875 63.224609375 c 0xf4
280.88671875 300.653320312 m 1
 282.37890625 210 l 1
 169.422851562 210 l 1xec
 171.15625 399.46875 l 1
 171.15625 399.46875 208.949224154 395.048828125 256.3984375 395.048828125 c 0
 348.180522211 395.048828125 392.095703125 431.389934102 392.095703125 499.145507812 c 0
 392.095703125 585.201602829 327.571533338 623.228515625 232.89453125 623.228515625 c 0
 138.66274719 623.228515625 76.923828125 573.958007812 76.923828125 573.958007812 c 1
 30.2412109375 685.311523438 l 1
 30.2412109375 685.311523438 107.390463661 738.9921875 239.89453125 738.9921875 c 0
 405.150107971 738.9921875 521.870117188 670 521.870117188 501.010742188 c 0
 521.870117188 365.685958308 421.37343496 300.59375 309 300.59375 c 0
 290.63582236 300.59375 280.88671875 300.653320312 280.88671875 300.653320312 c 1
EndSplineSet
Fore
SplineSet
282.88671875 316.653320312 m 1xec
 284.37890625 250 l 1
 147.422851562 250 l 1
 149.15625 437.46875 l 1
 149.15625 437.46875 177.41768277 428.048828125 237.3984375 428.048828125 c 0
 312.947549329 428.048828125 349.095703125 456.360423075 349.095703125 509.145507812 c 0
 349.095703125 568.847215808 303.620614097 595.228515625 236.89453125 595.228515625 c 0
 134.20446015 595.228515625 66.923828125 543.958007812 66.923828125 543.958007812 c 1
 20.2412109375 676.311523438 l 1
 20.2412109375 676.311523438 101.0703125 738.9921875 239.89453125 738.9921875 c 0
 402.219790863 738.9921875 516.870117188 668.537035475 516.870117188 506.010742188 c 0
 516.870117188 380.391587921 424.399190855 315.59375 321 315.59375 c 0
 296.103615224 315.59375 282.88671875 316.653320312 282.88671875 316.653320312 c 1xec
EndSplineSet
Refer: 57 46 N 1 0 0 1 85.8867 0 2
Validated: 1
EndChar

StartChar: hyphen
Encoding: 45 45 74
Width: 364
Flags: W
HStem: 209 131<30 334>
VStem: 30 304<209 340>
LayerCount: 2
Fore
SplineSet
334 209 m 5
 30 209 l 5
 30 340 l 5
 334 340 l 5
 334 209 l 5
EndSplineSet
Validated: 1
Substitution2: "'case' Case-Sensitive Forms lookup 27-1" hyphen.case
EndChar

StartChar: quotesingle
Encoding: 39 39 75
Width: 266
Flags: W
HStem: 452 279.008<78 192>
VStem: 78 114<452 533.377>
LayerCount: 2
Fore
SplineSet
78 452 m 5
 54 731.0078125 l 5
 216 731.0078125 l 5
 192 452 l 5
 78 452 l 5
EndSplineSet
Validated: 1
EndChar

StartChar: parenleft
Encoding: 40 40 77
Width: 402
Flags: W
HStem: -171.47 128.525<284.563 372.127> 630.944 128.525<284.563 372.127>
VStem: 30 152.679<99.5086 488.491>
LayerCount: 2
Fore
SplineSet
372.126953125 -42.9443359375 m 5
 372.126953125 -171.469726562 l 5
 149.652315941 -171.469726562 30 -23.8232421881 30 294 c 0
 30 611.823242188 149.652315941 759.469726562 372.126953125 759.469726562 c 5
 372.126953125 630.944335938 l 5
 245.160665417 630.944335938 182.678710938 537.589727501 182.678710938 294 c 0
 182.678710938 50.4102724985 245.160665417 -42.9443359375 372.126953125 -42.9443359375 c 5
EndSplineSet
Validated: 1
Substitution2: "'case' Case-Sensitive Forms lookup 27-1" parenleft.case
EndChar

StartChar: asterisk
Encoding: 42 42 78
Width: 442
Flags: W
HStem: 718.992 20G<153.534 288.905>
LayerCount: 2
Fore
SplineSet
288.905273438 738.9921875 m 1
 273.896484375 585.151367188 l 5
 389.440429688 644.549804688 l 5
 436.440429688 536.369140625 l 5
 308.485351562 486.352539062 l 5
 400.852539062 370.379882812 l 5
 298.745117188 300.151367188 l 5
 221.219726562 423.822265625 l 5
 143.694335938 300.151367188 l 5
 41.5869140625 370.379882812 l 5
 133.954101562 486.352539062 l 5
 5 536.369140625 l 5
 53 644.549804688 l 5
 168.54296875 585.151367188 l 5
 153.534179688 738.9921875 l 1
 288.905273438 738.9921875 l 1
EndSplineSet
Validated: 1
EndChar

StartChar: less
Encoding: 60 60 79
Width: 450
Flags: W
LayerCount: 2
Fore
SplineSet
420 125 m 1
 30 295 l 1
 30 421 l 1
 420 591 l 1
 420 455 l 1
 192.454101562 358 l 1
 420 264 l 5
 420 125 l 1
EndSplineSet
Validated: 1
EndChar

StartChar: greater
Encoding: 62 62 80
Width: 450
Flags: W
LayerCount: 2
Fore
SplineSet
30 591 m 1
 420 421 l 1
 420 295 l 1
 30 125 l 1
 30 264 l 5
 257.545898438 358 l 1
 30 452 l 1
 30 591 l 1
EndSplineSet
Validated: 1
EndChar

StartChar: slash
Encoding: 47 47 81
Width: 537
Flags: W
LayerCount: 2
Fore
SplineSet
10 -171.469726562 m 1
 377 761.403320312 l 1
 527 761.403320312 l 5
 160 -171.469726562 l 5
 10 -171.469726562 l 1
EndSplineSet
Validated: 1
Substitution2: "'case' Case-Sensitive Forms lookup 27-1" slash.case
Substitution2: "'frac' Diagonal Fractions in Latin lookup 25 subtable" fraction
EndChar

StartChar: bar
Encoding: 124 124 82
Width: 249
Flags: W
VStem: 55 139<-171.47 759.47>
LayerCount: 2
Fore
SplineSet
55 -171.469726562 m 5
 55 759.469726562 l 5
 194 759.469726562 l 5
 194 -171.469726562 l 5
 55 -171.469726562 l 5
EndSplineSet
Validated: 1
Substitution2: "'case' Case-Sensitive Forms lookup 27-1" bar.case
EndChar

StartChar: bracketleft
Encoding: 91 91 83
Width: 385
Flags: W
HStem: -171.47 126<204 355> 633.47 126<204 355>
VStem: 55 300<-171.47 -45.4697 633.47 759.47> 55 149<-45.4697 633.47>
LayerCount: 2
Fore
SplineSet
55 759.469726562 m 5xe0
 355 759.469726562 l 5
 355 633.469726562 l 5xe0
 204 633.469726562 l 5
 204 -45.4697265625 l 5xd0
 355 -45.4697265625 l 5
 355 -171.469726562 l 5
 55 -171.469726562 l 5
 55 759.469726562 l 5xe0
EndSplineSet
Validated: 1
Substitution2: "'case' Case-Sensitive Forms lookup 27-1" bracketleft.case
EndChar

StartChar: bracketright
Encoding: 93 93 84
Width: 385
Flags: W
HStem: -171.47 126<30 181> 633.47 126<30 181>
VStem: 30 300<-171.47 -45.4697 633.47 759.47> 181 149<-45.4697 633.47>
LayerCount: 2
Fore
SplineSet
330 -171.469726562 m 5xe0
 30 -171.469726562 l 5
 30 -45.4697265625 l 5xe0
 181 -45.4697265625 l 5
 181 633.469726562 l 5xd0
 30 633.469726562 l 5
 30 759.469726562 l 5
 330 759.469726562 l 5
 330 -171.469726562 l 5xe0
EndSplineSet
Validated: 1
Substitution2: "'case' Case-Sensitive Forms lookup 27-1" bracketright.case
EndChar

StartChar: asciicircum
Encoding: 94 94 85
Width: 449
Flags: W
HStem: 430 301.008
LayerCount: 2
Fore
SplineSet
291 731.0078125 m 1
 444 430 l 5
 306 430 l 5
 225.393554688 610.313476562 l 1
 144 430 l 5
 5 430 l 5
 158 731.0078125 l 1
 291 731.0078125 l 1
EndSplineSet
Validated: 1
EndChar

StartChar: braceleft
Encoding: 123 123 86
Width: 461
Flags: W
HStem: -171.47 121.996<300.475 421.258> 251.532 126<30 120.222> 637.474 121.996<298.983 421.301>
VStem: 128 149<-24.6713 243.118 385.28 613.136>
LayerCount: 2
Fore
SplineSet
216 314.532226562 m 5
 216 314.532226562 277 289.532226562 277 209.532226562 c 6
 277 54.5263671875 l 6
 277 -25.3257378472 307.915329392 -49.4736328125 363 -49.4736328125 c 4
 399.722103479 -49.4736328125 420 -38.4736328125 420 -38.4736328125 c 5
 431 -159.469726562 l 5
 431 -159.469726562 394 -171.469726562 334 -171.469726562 c 4
 182.338037634 -171.469726562 128 -93.6015625004 128 38.5302734375 c 6
 128 189.532226562 l 6
 128 236.860351562 109.501953125 251.532226563 73 251.532226562 c 6
 30 251.532226562 l 5
 30 377.532226562 l 5
 73 377.532226562 l 6
 109.501953125 377.532226563 128 392.205078125 128 439.532226562 c 6
 128 557.469726562 l 6
 128 684.564487592 182.338037634 759.469726562 334 759.469726562 c 4
 388.75 759.469726562 431 747.469726562 431 747.469726562 c 5
 420 626.473632812 l 5
 420 626.473632812 401.934787326 637.473632812 362 637.473632812 c 4
 307.555971747 637.473632812 277 615.181966146 277 541.473632812 c 6
 277 419.532226562 l 6
 277 337.53515625 216 314.532226562 216 314.532226562 c 5
EndSplineSet
Validated: 1
Substitution2: "'case' Case-Sensitive Forms lookup 27-1" braceleft.case
EndChar

StartChar: grave
Encoding: 96 96 87
Width: 252
Flags: W
HStem: 526 215.008
VStem: 1 250
LayerCount: 2
Fore
SplineSet
151 526 m 5
 1 711.0078125 l 1
 147 741.0078125 l 1
 251 546 l 5
 151 526 l 5
EndSplineSet
Validated: 1
EndChar

StartChar: underscore
Encoding: 95 95 88
Width: 664
Flags: W
HStem: -121 121<30 634>
LayerCount: 2
Fore
SplineSet
634 -121 m 5
 30 -121 l 5
 30 0 l 1
 634 0 l 1
 634 -121 l 5
EndSplineSet
Validated: 1
EndChar

StartChar: dollar
Encoding: 36 36 89
Width: 605
Flags: W
HStem: -125 194.47<236 375> -10 147.462<155.049 364.228> 590.659 148.462<250.475 453.373> 655 194.47<236 375>
VStem: 44.627 181.312<475.241 566.98> 236 139<-125 69.4697 655 849.47> 393.338 177.182<162.634 259.675>
LayerCount: 2
Fore
SplineSet
236 -125 m 5x8e
 236 69.4697265625 l 5
 375 69.4697265625 l 5
 375 -125 l 5
 236 -125 l 5x8e
236 655 m 5x1e
 236 849.469726562 l 5
 375 849.469726562 l 5
 375 655 l 5
 236 655 l 5x1e
EndSplineSet
Refer: 22 83 N 1 0 0 1 0 0 2
EndChar

StartChar: percent
Encoding: 37 37 90
Width: 953
Flags: W
HStem: -9.99805 119.78<675.955 771.86> 0 21G<171 322.996> 262.072 119.779<672.838 772.405> 347.143 119.779<185.332 280.86> 619.212 119.78<184.809 281.405> 711.008 20G<633.004 785>
VStem: 35 131.66<484.532 602.467> 298.41 129.55<485.099 601.916> 526 130.66<127.392 245.327> 789.41 129.55<127.958 244.776>
LayerCount: 2
Fore
SplineSet
656.66015625 186.481445312 m 0xa3c0
 656.66015625 131.457631691 689.067119638 109.782226562 722.48046875 109.782226562 c 0
 755.60267896 109.782226562 789.41015625 131.457631691 789.41015625 186.481445312 c 0
 789.41015625 241.915099067 755.60267896 262.072265625 722.48046875 262.072265625 c 0
 689.067119638 262.072265625 656.66015625 241.915099067 656.66015625 186.481445312 c 0xa3c0
526 186.481445312 m 0
 526 294.134219993 597.688680634 381.8515625 722.48046875 381.8515625 c 0
 847.271261196 381.8515625 918.959960938 294.134219993 918.959960938 186.481445312 c 0
 918.959960938 78.9489101654 847.271261196 -9.998046875 722.48046875 -9.998046875 c 0
 597.688680634 -9.998046875 526 78.9489101654 526 186.481445312 c 0
166.66015625 543.622070312 m 0
 166.66015625 488.598247674 198.61409176 466.921875 231.48046875 466.921875 c 4
 264.60267896 466.921875 298.41015625 488.598247674 298.41015625 543.622070312 c 0
 298.41015625 599.054750904 264.60267896 619.211914062 231.48046875 619.211914062 c 0x1bc0
 198.61409176 619.211914062 166.66015625 599.054750904 166.66015625 543.622070312 c 0
35 543.622070312 m 0
 35 651.274844993 106.688680634 738.9921875 231.48046875 738.9921875 c 0
 356.271261196 738.9921875 427.959960938 651.274844993 427.959960938 543.622070312 c 0
 427.959960938 436.089535165 356.271261196 347.142578125 231.48046875 347.142578125 c 4
 106.688680634 347.142578125 35 436.089535165 35 543.622070312 c 0
EndSplineSet
Refer: 138 8260 S 1 0 0 1 301 0 2
Validated: 1
EndChar

StartChar: at
Encoding: 64 64 91
Width: 930
Flags: W
HStem: -145.727 95.7578<350.56 654.061> 62.9697 111.754<401.231 513.625 681.558 766.29> 386.303 109.773<414.021 527.42> 606.738 100.988<354.683 611.238>
VStem: 35 109.175<143.254 394.617> 238.842 138.517<196.719 346.2> 547.354 65.6514<137.917 267.77> 790.417 104.87<200.312 441.401>
LayerCount: 2
Back
SplineSet
372.358398438 272.0546875 m 4xfe80
 372.358398438 210.982349103 398.568359373 178.723632812 448.194335938 178.723632812 c 4
 498.078124999 178.723632812 527.182617188 219.181978203 527.182617188 288.529296875 c 4
 527.182617188 348.445281108 499.995359315 381.302734375 455.834960938 381.302734375 c 4
 403.060016307 381.302734375 372.358398438 341.122602211 372.358398438 272.0546875 c 4xfe80
417.392578125 62.9697265625 m 4
 305.713023639 62.9697265625 230.841796875 142.46269767 230.841796875 261.037109375 c 4
 230.841796875 396.775793539 313.916352653 490.076171875 431 490.076171875 c 4
 546.50948433 490.076171875 599.004882812 412.585972445 599.004882812 265.27734375 c 4xfd80
 599.004882812 135.958926845 524.039682377 62.9697265625 417.392578125 62.9697265625 c 4
487.713867188 -159.7265625 m 4
 207.397460938 -159.7265625 35 14.611328125 35 268.08984375 c 4
 35 524.041992188 211.735351562 707.7265625 466.420898438 707.7265625 c 4
 713.297851562 707.7265625 889.287109375 561.379882812 889.287109375 321.901367188 c 4
 889.287109375 163.925694207 819.475620696 60.708984375 697.626953125 60.708984375 c 4
 598.509771605 60.708984375 539.533203125 113.021466255 539.533203125 229.081054688 c 4xfd80
 539.533203125 356.071031104 572.563476562 487.46484375 572.563476562 487.46484375 c 5
 703.37890625 487.46484375 l 5
 703.37890625 487.46484375 666.084960938 351.325643276 666.084960938 243 c 4xfe80
 666.084960938 199.096672231 681.280394289 175.384765625 709.943359375 175.384765625 c 4
 755.031775378 175.384765625 778.416992188 217.659762234 778.416992188 326.072265625 c 4
 778.416992188 499.057814973 660.612304688 596.73828125 468.984375 596.73828125 c 4
 276.281078231 596.73828125 154.174804688 468.369271199 154.174804688 268.489257812 c 4
 154.174804688 71.2250971965 269.08103844 -48.96875 494.6796875 -48.96875 c 4
 662.011130399 -48.96875 766.61328125 28.5576171875 766.61328125 28.5576171875 c 5
 805.250976562 -72.2255859375 l 5
 805.250976562 -72.2255859375 701.004882812 -159.7265625 487.713867188 -159.7265625 c 4
EndSplineSet
Fore
SplineSet
377.358398438 264.0546875 m 4
 377.358398438 205.599798937 405.950815332 174.723632812 457.194335938 174.723632812 c 4
 500.39396489 174.723632812 533.225402678 200.028051997 538.037109375 254.077148438 c 6
 542.298828125 301.98046875 l 6
 542.715045082 306.658903765 542.772460938 311.537773965 542.772460938 316.506835938 c 4
 542.772460938 348.425465305 529.088045831 386.302734375 471.834960938 386.302734375 c 4
 414.127997898 386.302734375 377.358398438 341.341356843 377.358398438 264.0546875 c 4
423.392578125 62.9697265625 m 4
 312.910333602 62.9697265625 238.841796875 141.660011534 238.841796875 259.037109375 c 4
 238.841796875 399.516947565 331.214570238 496.076171875 447 496.076171875 c 4
 557.284217687 496.076171875 613.004882812 435.786738368 613.004882812 291.27734375 c 4
 613.004882812 137.916640335 534.737474388 62.9697265625 423.392578125 62.9697265625 c 4
474.713867188 -145.7265625 m 0
 202.446945492 -145.7265625 35 38.6155320901 35 268.08984375 c 0
 35 504.91224468 206.265382931 707.7265625 476.420898438 707.7265625 c 0
 730.639153544 707.7265625 895.287109375 551.872705836 895.287109375 321.901367188 c 0
 895.287109375 159.508656668 824.802585314 62.9697265625 703.392578125 62.9697265625 c 4
 610.144072428 62.9697265625 547.353515625 112.094239745 547.353515625 221.081054688 c 4
 547.353515625 267.769885782 548.39664182 331.114899555 552.693359375 353.677734375 c 6
 578.361328125 488.46484375 l 5
 709.55859375 488.46484375 l 5
 682.484375 312.286132812 l 6
 676.116418723 270.848249098 674.250976562 247.784488282 674.250976562 230 c 4
 674.250976562 191.940472871 692.158377869 171.384765625 724 171.384765625 c 4
 766.863952335 171.384765625 790.416992188 218.892595657 790.416992188 323.072265625 c 0
 790.416992188 494.931665623 681.304486853 606.73828125 478.984375 606.73828125 c 0
 264.602229847 606.73828125 144.174804688 455.57509273 144.174804688 268.489257812 c 0
 144.174804688 86.1848340756 260.093413647 -49.96875 487.6796875 -49.96875 c 0
 670.286114794 -49.96875 777.61328125 22.5576171875 777.61328125 22.5576171875 c 1
 804.250976562 -68.2255859375 l 1
 804.250976562 -68.2255859375 691.55017112 -145.7265625 474.713867188 -145.7265625 c 0
EndSplineSet
Validated: 5
Substitution2: "'case' Case-Sensitive Forms lookup 27-1" at.case
EndChar

StartChar: numbersign
Encoding: 35 35 92
Width: 778
Flags: W
HStem: 0 21G<102.5 249.014 366.5 513.014> 174 131<35 702> 420 131<83 743> 711.008 20G<262.986 409.5 526.986 673.5>
LayerCount: 2
Fore
SplineSet
83 551 m 1
 743 551 l 1
 743 420 l 1
 83 420 l 1
 83 551 l 1
35 305 m 1
 702 305 l 1
 702 174 l 1
 35 174 l 1
 35 305 l 1
366.5 0 m 5
 531.5 731.0078125 l 5
 673.5 731.0078125 l 5
 508.5 0 l 5
 366.5 0 l 5
102.5 0 m 5
 267.5 731.0078125 l 5
 409.5 731.0078125 l 5
 244.5 0 l 5
 102.5 0 l 5
EndSplineSet
Validated: 5
EndChar

StartChar: braceright
Encoding: 125 125 93
Width: 461
Flags: W
HStem: -171.47 121.996<39.7418 160.525> 251.532 126<340.778 431> 637.474 121.996<39.6994 162.018>
VStem: 184 149<-24.6713 243.118 385.28 613.136>
LayerCount: 2
Fore
SplineSet
245 314.532226562 m 1
 245 314.532226562 184 337.53515625 184 419.532226562 c 2
 184 541.473632812 l 2
 184 615.181640625 153.444335938 637.473632812 99 637.473632812 c 0
 59.0654296875 637.473632812 41 626.473632812 41 626.473632812 c 1
 30 747.469726562 l 1
 30 747.469726562 72.25 759.469726562 127 759.469726562 c 0
 278.662109375 759.469726562 333 684.564453125 333 557.469726562 c 2
 333 439.532226562 l 2
 333 392.205078125 351.498046875 377.532226562 388 377.532226562 c 2
 431 377.532226562 l 1
 431 251.532226562 l 1
 388 251.532226562 l 2
 351.498046875 251.532226562 333 236.860351562 333 189.532226562 c 2
 333 38.5302734375 l 2
 333 -93.6015625 278.662109375 -171.469726562 127 -171.469726562 c 0
 67 -171.469726562 30 -159.469726562 30 -159.469726562 c 1
 41 -38.4736328125 l 1
 41 -38.4736328125 61.2783203125 -49.4736328125 98 -49.4736328125 c 0
 153.084960938 -49.4736328125 184 -25.326171875 184 54.5263671875 c 2
 184 209.532226562 l 2
 184 289.532226562 245 314.532226562 245 314.532226562 c 1
EndSplineSet
Validated: 1
Substitution2: "'case' Case-Sensitive Forms lookup 27-1" braceright.case
EndChar

StartChar: asciitilde
Encoding: 126 126 94
Width: 496
VWidth: 999
Flags: W
HStem: 262 135<270.457 427.078> 312 135<68.9218 225.543>
LayerCount: 2
Fore
SplineSet
491 320 m 1x80
 491 320 435.13114754 262 349 262 c 0x80
 249.005907353 262 215.096153846 312 138 312 c 0
 80.4151992586 312 44 271 44 271 c 1
 5 389 l 1
 5 389 60.8688524595 447 147 447 c 0x40
 246.994092647 447 280.903846154 397 358 397 c 0
 415.584800741 397 452 438 452 438 c 1
 491 320 l 1x80
EndSplineSet
Validated: 1
EndChar

StartChar: cent
Encoding: 162 162 95
Width: 484
Flags: W
HStem: -11 192.47<225 356> 92.002 135.462<246.905 424.333> 480.284 132.649<243.572 415.677> 567 162.47<225 356>
VStem: 35 163.849<276.198 432.945> 225 131<-11 181.47 567 729.47>
LayerCount: 2
Fore
SplineSet
225 -11 m 1x8c
 225 181.469726562 l 1
 356 181.469726562 l 1
 356 -11 l 1
 225 -11 l 1x8c
225 567 m 1x1c
 225 729.469726562 l 1
 356 729.469726562 l 1
 356 567 l 1
 225 567 l 1x1c
EndSplineSet
Refer: 40 99 S 1 0 0 1 0 102 2
EndChar

StartChar: sterling
Encoding: 163 163 96
Width: 573
Flags: W
HStem: 0 149<229.319 543> 278 136<40 464> 598.621 140.841<275.609 467.924>
VStem: 73.3516 173.979<431.003 570.829> 142.824 158.657<222.456 402.378>
LayerCount: 2
Fore
SplineSet
464 278 m 1xe0
 40 278 l 1
 40 414 l 1
 464 414 l 1
 464 278 l 1xe0
543 0 m 5
 30 0 l 5
 30 125 l 5
 30 125 142.82421875 198.18300299 142.82421875 282 c 4xe8
 142.82421875 393.38882466 73.3515625 415.335466304 73.3515625 528.185546875 c 4
 73.3515625 664.672670452 176.369868969 739.461914062 330.80859375 739.461914062 c 4
 454.640639156 739.461914062 509.95703125 705.405273438 509.95703125 705.405273438 c 5
 483.9375 570.024414062 l 5
 483.9375 570.024414062 429.148708985 598.62109375 357 598.62109375 c 4
 301.593356254 598.62109375 247.330078125 582.087020605 247.330078125 508 c 4xf0
 247.330078125 426.400555787 301.481445312 411.366373324 301.481445312 320.158203125 c 4xe8
 301.481445312 214.10065552 229.319335938 149 229.319335938 149 c 5
 543 149 l 5
 543 0 l 5
EndSplineSet
Validated: 5
EndChar

StartChar: yen
Encoding: 165 165 97
Width: 649
Flags: W
HStem: 0 21G<239 410> 153 96<99.5 559.5> 293 106<239 410> 293 96<99.5 559.5> 300 89<256 393> 711.008 20G<20 216.691 432.309 629>
VStem: 239 171<0 399>
LayerCount: 2
Fore
SplineSet
256 300 m 1xce
 20 731.0078125 l 1
 208 731.0078125 l 1
 324.5 462.916015625 l 1
 441 731.0078125 l 1
 629 731.0078125 l 1
 393 300 l 1
 256 300 l 1xce
239 0 m 1
 239 399 l 1
 410 399 l 1xe6
 410 0 l 1
 239 0 l 1
559.5 153 m 5
 99.5 153 l 5
 99.5 249 l 1
 559.5 249 l 1
 559.5 153 l 5
559.5 293 m 1xd6
 99.5 293 l 1
 99.5 389 l 1
 559.5 389 l 1
 559.5 293 l 1xd6
EndSplineSet
Validated: 5
EndChar

StartChar: currency
Encoding: 164 164 98
Width: 513
Flags: W
HStem: 153.724 123.462<209.188 303.347> 437.006 123.649<209.207 303.364>
VStem: 46.6113 138.849<297.148 418.871> 327.54 138.849<297.148 418.871>
LayerCount: 2
Fore
SplineSet
305.239257812 213.436523438 m 1
 413.889648438 246.325195312 l 1
 508.259765625 124.765625 l 1
 369.580078125 66.1455078125 l 1
 305.239257812 213.436523438 l 1
208.020507812 213.436523438 m 1
 143.6796875 66.1455078125 l 1
 5 124.765625 l 1
 99.3701171875 246.325195312 l 1
 208.020507812 213.436523438 l 1
305.239257812 497.74609375 m 1
 369.580078125 645.036132812 l 1
 508.259765625 586.416015625 l 1
 413.889648438 464.856445312 l 1
 305.239257812 497.74609375 l 1
208.020507812 497.74609375 m 1
 99.3701171875 464.856445312 l 1
 5 586.416015625 l 1
 143.6796875 645.036132812 l 1
 208.020507812 497.74609375 l 1
185.459960938 358.283203125 m 0
 185.459960938 311.703853659 206.436888801 277.185546875 255.5 277.185546875 c 0
 305.964488819 277.185546875 327.540039062 311.703853659 327.540039062 358.283203125 c 4
 327.540039062 403.437249228 305.99768797 437.005859375 255.611328125 437.005859375 c 0
 206.470087832 437.005859375 185.459960938 403.437249228 185.459960938 358.283203125 c 0
46.611328125 359.283203125 m 0
 46.611328125 481.132671317 125.65014918 560.655273438 255.5 560.655273438 c 0
 386.593012526 560.655273438 466.388671875 481.132671317 466.388671875 359.283203125 c 0
 466.388671875 234.900541242 386.593012526 153.723632812 255.5 153.723632812 c 0
 125.65014918 153.723632812 46.611328125 234.900541242 46.611328125 359.283203125 c 0
EndSplineSet
Validated: 5
EndChar

StartChar: brokenbar
Encoding: 166 166 99
Width: 249
Flags: W
VStem: 55 139<-171.47 239 339 759.47>
LayerCount: 2
Fore
SplineSet
55 -171.469726562 m 1
 55 239 l 1
 194 239 l 1
 194 -171.469726562 l 1
 55 -171.469726562 l 1
55 339 m 1
 55 759.469726562 l 1
 194 759.469726562 l 1
 194 339 l 1
 55 339 l 1
EndSplineSet
Validated: 1
Substitution2: "'case' Case-Sensitive Forms lookup 27-1" brokenbar.case
EndChar

StartChar: section
Encoding: 167 167 100
Width: 593
Flags: W
HStem: -49.6709 124.391<162.434 329.644> 660.212 124.391<264.089 431.3>
VStem: 30 143.858<355.218 452.968> 100.9 156.231<572.537 651.779> 336.602 156.231<83.1523 162.536> 419.875 143.858<274.999 378.853>
LayerCount: 2
Fore
SplineSet
175.081054688 555.153320312 m 1xe8
 239.889648438 479.951171875 l 1
 239.889648438 479.951171875 173.858398438 465.112304688 173.858398438 402.393554688 c 0
 173.858398438 358.273363874 198.353197499 337.404290235 316.55078125 306.138671875 c 0
 454.167584975 269.736282515 492.833007812 210.272746668 492.833007812 115.370117188 c 0
 492.833007812 12.5605468748 410.662109375 -49.6708984375 275.66796875 -49.6708984375 c 0
 162.953125 -49.6708984375 108.135742188 -10.265625 108.135742188 -10.265625 c 1
 138.263671875 107.825195312 l 1
 138.263671875 107.825195312 191.986642209 74.7197265625 271.170898438 74.7197265625 c 0
 316.3046875 74.7197265625 336.6015625 90.7763671875 336.6015625 121.443359375 c 0
 336.6015625 151.995117188 323.475946146 166.458506045 276.34765625 178.119140625 c 0
 81.7333984375 226.271232487 30 288.858217946 30 382.309570312 c 0
 30 525.522325167 175.081054688 555.153320312 175.081054688 555.153320312 c 1xe8
418.65234375 179.778320312 m 1
 353.84375 254.98046875 l 1
 353.84375 254.98046875 419.875 269.819335938 419.875 332.538085938 c 0
 419.875 376.658276749 397.717171954 392.413989617 277.182617188 428.79296875 c 0
 143.872945584 469.027653077 100.900390625 524.658893957 100.900390625 619.561523438 c 0
 100.900390625 722.37109375 183.071289062 784.602539062 318.065429688 784.602539062 c 0
 430.780273438 784.602539062 485.59765625 745.197265625 485.59765625 745.197265625 c 1
 455.469726562 627.106445312 l 1
 455.469726562 627.106445312 401.746756229 660.211914062 322.5625 660.211914062 c 0
 277.428710938 660.211914062 257.131835938 644.155273438 257.131835938 613.48828125 c 0
 257.131835938 582.936523438 270.257452291 568.47313458 317.385742188 556.8125 c 0
 512 508.660408138 563.733398438 446.073422679 563.733398438 352.622070312 c 0xd4
 563.733398438 209.409315461 418.65234375 179.778320312 418.65234375 179.778320312 c 1
EndSplineSet
Validated: 5
EndChar

StartChar: dieresis
Encoding: 168 168 101
Width: 479
Flags: W
HStem: 584.543 166.449<65.7926 183.207 295.793 413.207>
VStem: 41.8867 165.227<608.626 726.909> 271.887 165.227<608.626 726.909>
LayerCount: 2
Fore
SplineSet
271.88671875 667.767578125 m 4
 271.88671875 718.186392055 304.450382684 750.9921875 354.499023438 750.9921875 c 4
 404.548654747 750.9921875 437.11328125 718.186392055 437.11328125 667.767578125 c 4
 437.11328125 617.347853302 404.548654747 584.54296875 354.499023438 584.54296875 c 4
 304.450382684 584.54296875 271.88671875 617.347853302 271.88671875 667.767578125 c 4
41.88671875 667.767578125 m 4
 41.88671875 718.186392055 74.4503826842 750.9921875 124.499023438 750.9921875 c 4
 174.548654747 750.9921875 207.11328125 718.186392055 207.11328125 667.767578125 c 4
 207.11328125 617.347853302 174.548654747 584.54296875 124.499023438 584.54296875 c 4
 74.4503826842 584.54296875 41.88671875 617.347853302 41.88671875 667.767578125 c 4
EndSplineSet
Validated: 1
EndChar

StartChar: copyright
Encoding: 169 169 102
Width: 817
Flags: W
HStem: -9.99805 100.857<288.826 528.951> 177.281 106.231<383.678 533.617> 445.61 106.231<383.678 515.675> 638.264 100.857<288.826 528.951>
VStem: 35 103.896<240.225 486.489> 238.957 124.424<304.21 424.913> 678.881 103.896<240.225 486.489>
LayerCount: 2
Fore
SplineSet
138.896484375 362.561523438 m 4
 138.896484375 205.03125 226.0625 90.859375 408.888671875 90.859375 c 4
 591.71484375 90.859375 678.880859375 205.03125 678.880859375 362.561523438 c 4
 678.880859375 522.490234375 591.71484375 638.263671875 408.888671875 638.263671875 c 4
 226.0625 638.263671875 138.896484375 522.490234375 138.896484375 362.561523438 c 4
35 362.561523438 m 4
 35 581.416246867 176.472284281 739.12109375 408.888671875 739.12109375 c 4
 641.305059469 739.12109375 782.77734375 581.416246867 782.77734375 362.561523438 c 4
 782.77734375 146.127184367 641.305059469 -9.998046875 408.888671875 -9.998046875 c 4
 176.472284281 -9.998046875 35 146.127184367 35 362.561523438 c 4
238.95703125 364.561523438 m 0
 238.95703125 477.88408452 303.748046875 551.841796875 428.401367188 551.841796875 c 0
 511.2421875 551.841796875 551.297851562 518.7265625 551.297851562 518.7265625 c 1
 520.634765625 419.849609375 l 1
 520.634765625 419.849609375 499.30859375 445.610351562 443.901367188 445.610351562 c 0
 385.29296875 445.610351562 363.380859375 413.163085938 363.380859375 364.561523438 c 0
 363.380859375 315.959960938 385.29296875 283.512695312 443.901367188 283.512695312 c 0
 503.76171875 283.512695312 529.465820312 306.578125 529.465820312 306.578125 c 1
 552.870117188 204.578125 l 1
 552.870117188 204.578125 510.682617188 177.28125 428.401367188 177.28125 c 0
 303.748046875 177.28125 238.95703125 251.238962356 238.95703125 364.561523438 c 0
EndSplineSet
EndChar

StartChar: registered
Encoding: 174 174 103
Width: 817
Flags: W
HStem: -9.99805 100.857<288.826 528.951> 310.752 80.1758<316 426.078> 465.076 83.1797<366 442.435> 638.264 100.857<288.826 528.951>
VStem: 35 103.896<240.225 486.489> 251.5 114.5<182.752 310.752 390.928 465.076> 316 50<310.752 390.928> 445.465 113.924<394.675 460.108> 678.881 103.896<240.225 486.489>
LayerCount: 2
Fore
SplineSet
138.896484375 362.561523438 m 4xf980
 138.896484375 205.03125 226.0625 90.859375 408.888671875 90.859375 c 4
 591.71484375 90.859375 678.880859375 205.03125 678.880859375 362.561523438 c 4
 678.880859375 522.490234375 591.71484375 638.263671875 408.888671875 638.263671875 c 4
 226.0625 638.263671875 138.896484375 522.490234375 138.896484375 362.561523438 c 4xf980
35 362.561523438 m 4
 35 581.416246867 176.472284281 739.12109375 408.888671875 739.12109375 c 4
 641.305059469 739.12109375 782.77734375 581.416246867 782.77734375 362.561523438 c 4
 782.77734375 146.127184367 641.305059469 -9.998046875 408.888671875 -9.998046875 c 4
 176.472284281 -9.998046875 35 146.127184367 35 362.561523438 c 4
316 390.927734375 m 1xfb80
 398.444335938 390.982421875 l 2
 425.363506716 391.00027807 445.46484375 397.554615344 445.46484375 427.533203125 c 0
 445.46484375 458.015264351 425.363478482 464.983257301 398.444335938 465.025390625 c 2
 366 465.076171875 l 1
 366 182.751953125 l 1
 251.5 182.751953125 l 1
 251.5 548.255859375 l 1xfd80
 418.444335938 548.255859375 l 2
 492.602050781 548.255859375 559.388671875 516.87486477 559.388671875 433.033203125 c 0
 559.388671875 359.205150784 497.34375 344.890625 497.34375 344.890625 c 1
 497.34375 344.890625 524.40279593 339.358853925 546 284 c 2
 585.5 182.751953125 l 1
 464.5 182.751953125 l 1
 433.704101562 271.67578125 l 2
 420.983454351 308.406927398 405.8421875 310.751953125 374 310.751953125 c 2
 316 310.751953125 l 1
 316 390.927734375 l 1xfb80
EndSplineSet
EndChar

StartChar: uni2117
Encoding: 8471 8471 104
Width: 817
Flags: W
HStem: -9.99805 100.857<288.826 528.951> 286.752 85.1758<329.694 461.44> 461.076 87.1797<379.694 461.555> 638.264 100.857<288.826 528.951>
VStem: 35 103.896<240.225 486.489> 265.194 114.5<182.752 286.752 371.928 461.076> 329.694 50<286.752 371.928> 468.659 111.924<378.93 453.82> 678.881 103.896<240.225 486.489>
LayerCount: 2
Fore
SplineSet
138.896484375 362.561523438 m 0xf980
 138.896484375 205.03125 226.0625 90.859375 408.888671875 90.859375 c 0
 591.71484375 90.859375 678.880859375 205.03125 678.880859375 362.561523438 c 0
 678.880859375 522.490234375 591.71484375 638.263671875 408.888671875 638.263671875 c 0
 226.0625 638.263671875 138.896484375 522.490234375 138.896484375 362.561523438 c 0xf980
35 362.561523438 m 0
 35 581.416246867 176.472284281 739.12109375 408.888671875 739.12109375 c 0
 641.305059469 739.12109375 782.77734375 581.416246867 782.77734375 362.561523438 c 0
 782.77734375 146.127184367 641.305059469 -9.998046875 408.888671875 -9.998046875 c 0
 176.472284281 -9.998046875 35 146.127184367 35 362.561523438 c 0
329.694335938 286.751953125 m 1xfb80
 329.694335938 371.927734375 l 1xfb80
 408.138671875 371.982421875 l 2
 442.786616751 372.003845627 468.659179688 379.903356651 468.659179688 416.033203125 c 0
 468.659179688 452.613156769 442.786604031 460.979624057 408.138671875 461.025390625 c 2
 379.694335938 461.076171875 l 1
 379.694335938 182.751953125 l 1
 265.194335938 182.751953125 l 1
 265.194335938 548.255859375 l 1xfd80
 437.138671875 548.255859375 l 2
 512.611689927 548.255859375 580.583007812 512.244978898 580.583007812 416.033203125 c 0
 580.583007812 321.475395761 512.169953479 286.751953125 437.138671875 286.751953125 c 2
 329.694335938 286.751953125 l 1xfb80
EndSplineSet
EndChar

StartChar: guillemotleft
Encoding: 171 171 105
Width: 590
Flags: W
LayerCount: 2
Fore
SplineSet
35 281 m 1
 175 441 l 1
 335 441 l 1
 181.75 254 l 1
 335 67 l 1
 175 67 l 1
 35 227 l 1
 35 281 l 1
285 281 m 5
 425 441 l 5
 585 441 l 5
 431.75 254 l 5
 585 67 l 5
 425 67 l 5
 285 227 l 5
 285 281 l 5
EndSplineSet
Validated: 1
Substitution2: "'case' Case-Sensitive Forms lookup 27-1" guillemotleft.case
EndChar

StartChar: guillemotright
Encoding: 187 187 106
Width: 590
Flags: W
LayerCount: 2
Fore
SplineSet
555 227 m 1
 415 67 l 1
 255 67 l 1
 408.25 254 l 1
 255 441 l 1
 415 441 l 1
 555 281 l 1
 555 227 l 1
305 227 m 1
 165 67 l 1
 5 67 l 1
 158.25 254 l 1
 5 441 l 1
 165 441 l 1
 305 281 l 1
 305 227 l 1
EndSplineSet
Validated: 1
Substitution2: "'case' Case-Sensitive Forms lookup 27-1" guillemotright.case
EndChar

StartChar: mu
Encoding: 181 181 107
Width: 646
Flags: W
HStem: -10 142<481.346 618.584> -9.92285 131.649<238.205 355.656> 481.011 20G<55 214 214 214 381.777 540.777>
VStem: 55 159<218.449 501.011> 115 99<80.572 501.011> 381.777 159<145.855 501.011>
LayerCount: 2
Fore
SplineSet
540.77734375 178 m 2xa4
 540.77734375 145.855421686 552.615234375 132 580.77734375 132 c 0
 602.358708309 132 617.77734375 139 617.77734375 139 c 1
 626 6 l 1
 626 6 589.111195658 -10 535.77734375 -10 c 0
 426.915274784 -10 381.77734375 58.0758293837 381.77734375 161 c 2
 381.77734375 501.010742188 l 1
 540.77734375 501.010742188 l 1
 540.77734375 178 l 2xa4
381.77734375 222.010742188 m 1
 456.77734375 210.44921875 l 1
 443.494866408 57.934507513 376.245284069 -9.9228515625 273.77734375 -9.9228515625 c 0
 159.833061152 -9.9228515625 115 80.5720319437 115 269.44921875 c 2
 115 501.010742188 l 1x6c
 214 501.010742188 l 1
 214 218.44921875 l 2
 214 157.178631906 238.678480459 121.7265625 296.77734375 121.7265625 c 0x74
 356.320340654 121.7265625 381.77734375 161.874981167 381.77734375 222.010742188 c 1
55 -210 m 1x34
 55 501.010742188 l 1
 214 501.010742188 l 1x34
 214 -210 l 1x2c
 55 -210 l 1x34
EndSplineSet
EndChar

StartChar: acute
Encoding: 180 180 108
Width: 252
Flags: W
HStem: 526 215.008
VStem: 1 250
LayerCount: 2
Fore
SplineSet
101 526 m 1
 1 546 l 1
 105 741.0078125 l 5
 251 711.0078125 l 5
 101 526 l 1
EndSplineSet
Validated: 1
EndChar

StartChar: macron
Encoding: 175 175 109
Width: 374
Flags: W
HStem: 610.008 121<30 344>
VStem: 30 314<610.008 731.008>
LayerCount: 2
Fore
SplineSet
344 610.0078125 m 5
 30 610.0078125 l 1
 30 731.0078125 l 1
 344 731.0078125 l 5
 344 610.0078125 l 5
EndSplineSet
Validated: 1
EndChar

StartChar: logicalnot
Encoding: 172 172 111
Width: 450
Flags: W
HStem: 295 126<30 290>
VStem: 290 130<165 295>
LayerCount: 2
Fore
SplineSet
420 165 m 1
 290 165 l 1
 290 295 l 1
 30 295 l 1
 30 421 l 1
 420 421 l 1
 420 165 l 1
EndSplineSet
Validated: 1
EndChar

StartChar: minus
Encoding: 8722 8722 112
Width: 450
Flags: W
HStem: 295 126<30 420>
LayerCount: 2
Fore
SplineSet
420 295 m 5
 30 295 l 5
 30 421 l 5
 420 421 l 5
 420 295 l 5
EndSplineSet
Validated: 1
EndChar

StartChar: notequal
Encoding: 8800 8800 113
Width: 450
Flags: W
HStem: 215 116<30 420> 385 116<30 420>
LayerCount: 2
Fore
SplineSet
40 139.530273438 m 5
 311 613.403320312 l 5
 414 583.403320312 l 5
 143 109.530273438 l 5
 40 139.530273438 l 5
EndSplineSet
Refer: 52 61 N 1 0 0 1 0 0 2
Validated: 5
EndChar

StartChar: partialdiff
Encoding: 8706 8706 114
Width: 619
Flags: W
HStem: -9.99805 136.889<231.221 364.775> 358.891 127.709<241.574 379.608> 594.52 144.473<178.636 375.725>
VStem: 35 162.767<160.497 314.166> 410.767 173.398<201.397 467.446>
LayerCount: 2
Fore
SplineSet
410.766601562 260.890625 m 0
 410.766601562 317.532826835 379.425533868 358.890625 310.766601562 358.890625 c 0
 232.742834248 358.890625 197.766601562 306.138331422 197.766601562 233.890625 c 0
 197.766601562 172.046588303 228.458781571 126.890625 295.766601562 126.890625 c 0
 375.153638365 126.890625 410.766601562 183.441083715 410.766601562 260.890625 c 0
445.861328125 428.747070312 m 1
 439.959929939 543.726089917 387.7037744 594.51953125 284.38671875 594.51953125 c 0
 196.4035467 594.51953125 148.545898438 555.388671875 148.545898438 555.388671875 c 1
 111.241210938 688.860351562 l 1
 111.241210938 688.860351562 174.666218756 738.9921875 299.8671875 738.9921875 c 0
 492.726563044 738.9921875 584.165039062 611.957540262 584.165039062 383.331054688 c 0
 584.165039062 104.932438851 474.27545166 -9.998046875 288.8671875 -9.998046875 c 0
 131.429519377 -9.998046875 35 77.664466999 35 235 c 0
 35 384.128873958 134.643308549 486.599609375 291.901367188 486.599609375 c 0
 408.470400437 486.599609375 445.861328125 428.747070312 445.861328125 428.747070312 c 1
EndSplineSet
Validated: 1
EndChar

StartChar: emptyset
Encoding: 8709 8709 115
Width: 797
Flags: W
HStem: -9.99805 122.462<318.672 507.353> 616.659 122.462<290.424 479.105>
VStem: 35 126.849<245.185 483.938> 635.929 126.849<245.185 483.938>
LayerCount: 2
Fore
SplineSet
161.848632812 364.561523438 m 4
 161.848632812 213.39027731 242.757070801 112.463867188 398.888671875 112.463867188 c 4
 555.020272949 112.463867188 635.928710938 213.39027731 635.928710938 364.561523438 c 4
 635.928710938 515.732769563 555.020272949 616.659179688 398.888671875 616.659179688 c 4
 242.757070801 616.659179688 161.848632812 515.732769563 161.848632812 364.561523438 c 4
35 364.561523438 m 4
 35 591.206054688 172.688476562 739.12109375 398.888671875 739.12109375 c 4
 625.088867188 739.12109375 762.77734375 591.206054688 762.77734375 364.561523438 c 4
 762.77734375 137.916992188 625.088867188 -9.998046875 398.888671875 -9.998046875 c 4
 172.688476562 -9.998046875 35 137.916992188 35 364.561523438 c 4
112.5 -61.4697265625 m 1
 581.5 831.403320312 l 1
 684.5 791.403320312 l 1
 215.5 -101.469726562 l 1
 112.5 -61.4697265625 l 1
EndSplineSet
Validated: 5
EndChar

StartChar: Delta
Encoding: 8710 8710 116
Width: 719
Flags: W
HStem: 0 156<214 505> 711.008 20G<257.137 452.205>
LayerCount: 2
Fore
SplineSet
684 0 m 1
 35 0 l 1
 35 146 l 1
 265 731.0078125 l 1
 444 731.0078125 l 1
 684 146 l 1
 684 0 l 1
505 156 m 5
 355.393554688 540.313476562 l 1
 214 156 l 5
 505 156 l 5
EndSplineSet
Validated: 1
EndChar

StartChar: plusminus
Encoding: 177 177 117
Width: 450
Flags: W
HStem: 135 116<30 420> 397 126<30 420>
VStem: 162 126<285 635>
LayerCount: 2
Fore
SplineSet
288 635 m 1
 288 285 l 1
 162 285 l 1
 162 635 l 1
 288 635 l 1
420 397 m 5
 30 397 l 5
 30 523 l 5
 420 523 l 5
 420 397 l 5
420 135 m 1
 30 135 l 1
 30 251 l 1
 420 251 l 1
 420 135 l 1
EndSplineSet
EndChar

StartChar: degree
Encoding: 176 176 118
Width: 431
Flags: W
HStem: 400.07 107.526<167.114 266.059> 653.288 107.714<167.128 266.073>
VStem: 30 120.412<522.773 638.351> 281.365 120.412<522.773 638.351>
LayerCount: 2
Fore
SplineSet
150.412109375 580.854492188 m 0
 150.412109375 536.925502363 170.692141369 507.596679688 214.786132812 507.596679688 c 0
 260.425063073 507.596679688 281.365234375 536.925502363 281.365234375 580.854492188 c 0
 281.365234375 624.289547458 260.462188929 653.288085938 214.909179688 653.288085938 c 0
 170.729267724 653.288085938 150.412109375 624.289547458 150.412109375 580.854492188 c 0
30 580.629882812 m 0
 30 689.772696384 99.957929209 761.001953125 214.888671875 761.001953125 c 0
 331.062577754 761.001953125 401.77734375 689.772696384 401.77734375 580.629882812 c 0
 401.77734375 471.374251811 331.062577754 400.0703125 214.888671875 400.0703125 c 0
 99.957929209 400.0703125 30 471.374251811 30 580.629882812 c 0
EndSplineSet
Validated: 1
EndChar

StartChar: cedilla
Encoding: 184 184 120
Width: 317
VWidth: 999
Flags: W
HStem: -235 81<44.7822 182.96>
VStem: 187 100<-149.191 -82.9217>
LayerCount: 2
Fore
SplineSet
287 -116 m 4
 287 -191.78640058 237.749023438 -235 146 -235 c 0
 84.91796875 -235 30 -213 30 -213 c 1
 50 -132 l 5
 50 -132 89.7141308291 -154 136 -154 c 4
 172.268983232 -154 187 -140.538165119 187 -115 c 4
 187 -93.4375 174.427400288 -81 154 -81 c 4
 128.32935606 -81 122 -104 122 -104 c 5
 74 -85 l 5
 99 39 l 1
 173 39 l 1
 159.485351562 -22.603515625 l 5
 159.485351562 -22.603515625 167.832119337 -15 194 -15 c 4
 254.106861077 -15 287 -53.1260653409 287 -116 c 4
EndSplineSet
Validated: 1
EndChar

StartChar: paragraph
Encoding: 182 182 121
Width: 712
Flags: W
HStem: 608.992 122<435.889 515.889>
VStem: 30 405.889<388.486 600.708> 293.889 142<-189.994 263.992> 515.889 142<-189.994 608.992>
LayerCount: 2
Fore
SplineSet
435.888671875 -189.994140625 m 1xb0
 293.888671875 -189.994140625 l 1
 293.888671875 263.9921875 l 1xb0
 142 263.9921875 30 323.64715269 30 499.432617188 c 0xd0
 30 667.032226562 155.234146979 730.9921875 313.888671875 730.9921875 c 2
 657.888671875 730.9921875 l 1
 657.888671875 -189.994140625 l 1
 515.888671875 -189.994140625 l 1
 515.888671875 608.9921875 l 5
 435.888671875 608.9921875 l 5
 435.888671875 -189.994140625 l 1xb0
EndSplineSet
Validated: 1
EndChar

StartChar: ordfeminine
Encoding: 170 170 122
Width: 376
Flags: W
HStem: 342 78<127.846 208.353 272.375 365.254> 496 59<130.958 229> 607 84<70.7528 207.768>
VStem: 20 105<423.454 486.443> 218 104<453.025 496 547 598.248> 218 27<384 449> 218 11<496 555>
LayerCount: 2
Fore
SplineSet
218 469 m 5xf8
 245 449 l 5xf4
 245 384 209 342 132 342 c 4
 63 342 20 382 20 443 c 4
 20 539 107 555 229 555 c 5
 229 496 l 5xf2
 150 496 125 488 125 454 c 4
 125 434 138 420 168 420 c 4
 198 420 218 440 218 469 c 5xf8
218 547 m 6xf8
 218 589 200 607 156 607 c 4
 106 607 71 581 71 581 c 5
 47 661 l 5
 47 661 99 691 174 691 c 4
 279 691 322 642 322 552 c 6
 322 454 l 6xf8
 322 433 329 425 345 425 c 4
 357 425 364 430 364 430 c 5
 370 358 l 5
 370 358 349 342 305 342 c 4
 247 342 218 370 218 432 c 6xf4
 218 547 l 6xf8
EndSplineSet
Validated: 5
EndChar

StartChar: ordmasculine
Encoding: 186 186 123
Width: 396
Flags: W
HStem: 342 91<146.781 248.461> 601 90<149.596 248.461>
VStem: 23 104<454.785 579.804> 269 104<452.269 580.824>
LayerCount: 2
Fore
SplineSet
127 517 m 0
 127 466 153 433 199 433 c 0
 245 433 269 466 269 517 c 4
 269 567 245 601 199 601 c 0
 153 601 127 566 127 517 c 0
23 516 m 0
 23 621 90 691 199 691 c 0
 308 691 373 622 373 516 c 0
 373 411 308 342 199 342 c 0
 90 342 23 410 23 516 c 0
EndSplineSet
Validated: 1
EndChar

StartChar: arrowleft
Encoding: 8592 8592 124
Width: 650
Flags: W
HStem: 286.64 144<282.149 637.749> 296.64 124<129.749 485.349>
LayerCount: 2
Fore
SplineSet
637.749023438 286.639648438 m 1x80
 129.749023438 296.639648438 l 1
 129.749023438 420.639648438 l 1x40
 637.749023438 430.639648438 l 1
 637.749023438 286.639648438 l 1x80
150.561523438 358.638671875 m 5
 347.848632812 187.1171875 l 1
 254.510742188 93.779296875 l 1
 12.2509765625 358.638671875 l 1
 254.510742188 623.5 l 1
 347.848632812 530.16015625 l 1
 150.561523438 358.638671875 l 5
EndSplineSet
Validated: 5
EndChar

StartChar: product
Encoding: 8719 8719 128
Width: 729
Flags: W
HStem: 585.008 146<224 505>
VStem: 55 169<-199.994 585.008> 505 169<-199.994 585.008>
LayerCount: 2
Fore
SplineSet
674 731.0078125 m 5
 674 -199.994140625 l 5
 505 -199.994140625 l 5
 505 585.0078125 l 5
 224 585.0078125 l 1
 224 -199.994140625 l 1
 55 -199.994140625 l 1
 55 731.0078125 l 1
 674 731.0078125 l 5
EndSplineSet
Validated: 1
EndChar

StartChar: summation
Encoding: 8721 8721 129
Width: 644
Flags: W
HStem: -199.994 149<252 614> 582.008 149<272 614>
LayerCount: 2
Back
SplineSet
286 582.0078125 m 1
 422 400 l 1
 422 329 l 1
 266 149 l 1
 570 149 l 1
 570 0 l 1
 55 0 l 1
 55 127 l 1
 255 358 l 1
 55 623 l 1
 55 731.0078125 l 1
 570 731.0078125 l 1
 570 582.0078125 l 1
 286 582.0078125 l 1
EndSplineSet
Fore
SplineSet
272 582.0078125 m 1
 462 310 l 5
 462 239 l 5
 252 -50.994140625 l 1
 614 -50.994140625 l 5
 614 -199.994140625 l 5
 55 -199.994140625 l 1
 55 -72.994140625 l 1
 303 268 l 5
 55 623 l 1
 55 731.0078125 l 1
 614 731.0078125 l 5
 614 582.0078125 l 5
 272 582.0078125 l 1
EndSplineSet
Validated: 1
EndChar

StartChar: approxequal
Encoding: 8776 8776 130
Width: 450
VWidth: 999
Flags: W
HStem: 184 129<232.222 394.785> 224 129<55.2145 217.778> 370 129<232.222 394.785> 410 129<55.2145 217.778>
LayerCount: 2
Fore
SplineSet
445 232 m 5x80
 445 232 396.999999999 184 323 184 c 4x80
 225.849341267 184 192.903846154 224 118 224 c 4
 72.6672845227 224 44 193 44 193 c 5
 5 305 l 5
 5 305 53.0000000004 353 127 353 c 4x40
 224.150658733 353 257.096153846 313 332 313 c 4
 377.332715477 313 406 344 406 344 c 5
 445 232 l 5x80
445 418 m 5
 445 418 396.999999999 370 323 370 c 4x20
 225.849341267 370 192.903846154 410 118 410 c 4
 72.6672845227 410 44 379 44 379 c 5
 5 491 l 5
 5 491 53.0000000004 539 127 539 c 4x10
 224.150658733 539 257.096153846 499 332 499 c 4x20
 377.332715477 499 406 530 406 530 c 5
 445 418 l 5
EndSplineSet
Validated: 1
EndChar

StartChar: perthousand
Encoding: 8240 8240 131
Width: 1263
Flags: W
HStem: -9.99805 119.78<677.281 773.434 981.794 1077.94> 0 21G<171 322.996> 262.072 119.779<675.206 775.063 980.18 1080.03> 347.143 119.779<185.332 280.86> 619.212 119.78<184.809 281.405> 711.008 20G<633.004 785>
VStem: 35 131.66<484.532 602.467> 298.41 129.55<485.099 601.916> 526 131.66<129.177 243.721> 792.41 171.25<131.458 241.915> 846 62.96<78.9492 294.134> 1098.41 130.55<129.177 243.721>
LayerCount: 2
Fore
SplineSet
963.66015625 186.481445312 m 0xa3d0
 963.66015625 131.457847565 996.067493235 109.782226562 1029.48046875 109.782226562 c 0
 1063.5925036 109.782226562 1098.41015625 131.457847565 1098.41015625 186.481445312 c 0
 1098.41015625 241.915214494 1063.5925036 262.072265625 1029.48046875 262.072265625 c 0
 996.067493235 262.072265625 963.66015625 241.915214494 963.66015625 186.481445312 c 0xa3d0
846 186.481445312 m 0xa3b0
 846 294.133789062 914.039845377 381.8515625 1032.48046875 381.8515625 c 4
 1163.96342751 381.8515625 1228.95996094 292.786841412 1228.95996094 183.481445312 c 0
 1228.95996094 77.5911034889 1164.95584457 -9.998046875 1035.48046875 -9.998046875 c 4
 915.134434732 -9.998046875 846 78.94921875 846 186.481445312 c 0xa3b0
657.66015625 186.481445312 m 0
 657.66015625 131.457631691 691.051829742 109.782226562 725.48046875 109.782226562 c 0
 758.60267896 109.782226562 792.41015625 131.457631691 792.41015625 186.481445312 c 0xa3d0
 792.41015625 241.915099067 758.60267896 262.072265625 725.48046875 262.072265625 c 0
 691.051829742 262.072265625 657.66015625 241.915099067 657.66015625 186.481445312 c 0
526 183.481445312 m 0
 526 292.78727896 590.99651611 381.8515625 722.48046875 381.8515625 c 0
 840.920133695 381.8515625 908.959960938 294.133789062 908.959960938 186.481445312 c 0xa3b0
 908.959960938 78.94921875 839.825538899 -9.998046875 719.48046875 -9.998046875 c 0
 590.004104246 -9.998046875 526 77.590799616 526 183.481445312 c 0
166.66015625 543.622070312 m 0
 166.66015625 488.598247674 198.61409176 466.921875 231.48046875 466.921875 c 0
 264.60267896 466.921875 298.41015625 488.598247674 298.41015625 543.622070312 c 0
 298.41015625 599.054750904 264.60267896 619.211914062 231.48046875 619.211914062 c 0x1b90
 198.61409176 619.211914062 166.66015625 599.054750904 166.66015625 543.622070312 c 0
35 543.622070312 m 0
 35 651.274844993 106.688680634 738.9921875 231.48046875 738.9921875 c 0
 356.271261196 738.9921875 427.959960938 651.274844993 427.959960938 543.622070312 c 0
 427.959960938 436.089535165 356.271261196 347.142578125 231.48046875 347.142578125 c 0
 106.688680634 347.142578125 35 436.089535165 35 543.622070312 c 0
EndSplineSet
Refer: 138 8260 N 1 0 0 1 301 0 2
Validated: 5
EndChar

StartChar: uni2031
Encoding: 8241 8241 132
Width: 1573
Flags: W
HStem: -9.99805 119.78<677.281 773.434 985.934 1081.85 1291.79 1387.94> 0 21G<171 322.996> 262.072 119.779<675.206 775.063 982.844 1082.4 1290.18 1390.03> 347.143 119.779<185.332 280.86> 619.212 119.78<184.809 281.405> 711.008 20G<633.004 785>
VStem: 35 131.66<484.532 602.467> 298.41 129.55<485.099 601.916> 526 131.66<129.177 243.721> 792.41 174.25<131.458 241.915> 844 64.96<78.9492 294.134> 1099.41 174.25<131.458 241.915> 1156 64.96<78.9492 294.134> 1408.41 130.55<129.177 243.721>
LayerCount: 2
Fore
SplineSet
1273.66015625 186.481445312 m 0xa394
 1273.66015625 131.457847565 1306.06749324 109.782226562 1339.48046875 109.782226562 c 0
 1373.5925036 109.782226562 1408.41015625 131.457847565 1408.41015625 186.481445312 c 0
 1408.41015625 241.915214494 1373.5925036 262.072265625 1339.48046875 262.072265625 c 0
 1306.06749324 262.072265625 1273.66015625 241.915214494 1273.66015625 186.481445312 c 0xa394
1156 186.481445312 m 0xa38c
 1156 294.133789062 1224.03984537 381.8515625 1342.48046875 381.8515625 c 0
 1473.96342751 381.8515625 1538.95996094 292.786841412 1538.95996094 183.481445312 c 0
 1538.95996094 77.5911034889 1474.95584457 -9.998046875 1345.48046875 -9.998046875 c 0
 1225.13443473 -9.998046875 1156 78.94921875 1156 186.481445312 c 0xa38c
966.66015625 186.481445312 m 0xa3d4
 966.66015625 131.457847565 999.067493235 109.782226562 1032.48046875 109.782226562 c 0
 1065.60274038 109.782226562 1099.41015625 131.457847565 1099.41015625 186.481445312 c 0
 1099.41015625 241.915214494 1065.60274038 262.072265625 1032.48046875 262.072265625 c 0
 999.067493235 262.072265625 966.66015625 241.915214494 966.66015625 186.481445312 c 0xa3d4
844 186.481445312 m 0xa3ac
 844 294.133789062 906.350084472 381.8515625 1032.48046875 381.8515625 c 0
 1158.609873 381.8515625 1220.95996094 294.133789062 1220.95996094 186.481445312 c 0
 1220.95996094 78.9492187502 1158.609873 -9.998046875 1032.48046875 -9.998046875 c 0
 906.350084472 -9.998046875 844 78.9492187502 844 186.481445312 c 0xa3ac
657.66015625 186.481445312 m 0
 657.66015625 131.457631691 691.051829742 109.782226562 725.48046875 109.782226562 c 0
 758.60267896 109.782226562 792.41015625 131.457631691 792.41015625 186.481445312 c 0xa3c4
 792.41015625 241.915099067 758.60267896 262.072265625 725.48046875 262.072265625 c 0
 691.051829742 262.072265625 657.66015625 241.915099067 657.66015625 186.481445312 c 0
526 183.481445312 m 0
 526 292.78727896 590.99651611 381.8515625 722.48046875 381.8515625 c 0
 840.920133695 381.8515625 908.959960938 294.133789062 908.959960938 186.481445312 c 0xa3a4
 908.959960938 78.94921875 839.825538899 -9.998046875 719.48046875 -9.998046875 c 0
 590.004104246 -9.998046875 526 77.590799616 526 183.481445312 c 0
166.66015625 543.622070312 m 0
 166.66015625 488.598247674 198.61409176 466.921875 231.48046875 466.921875 c 0
 264.60267896 466.921875 298.41015625 488.598247674 298.41015625 543.622070312 c 0
 298.41015625 599.054750904 264.60267896 619.211914062 231.48046875 619.211914062 c 0x1b84
 198.61409176 619.211914062 166.66015625 599.054750904 166.66015625 543.622070312 c 0
35 543.622070312 m 0
 35 651.274844993 106.688680634 738.9921875 231.48046875 738.9921875 c 0
 356.271261196 738.9921875 427.959960938 651.274844993 427.959960938 543.622070312 c 0
 427.959960938 436.089535165 356.271261196 347.142578125 231.48046875 347.142578125 c 0
 106.688680634 347.142578125 35 436.089535165 35 543.622070312 c 0
EndSplineSet
Refer: 138 8260 N 1 0 0 1 301 0 2
Validated: 5
EndChar

StartChar: uni203D
Encoding: 8253 8253 133
Width: 573
Flags: W
HStem: -10 196.449<169.238 299.736> 313.594 119.455<214.615 353.164> 595.229 143.764<138.412 345.081>
VStem: 135.887 198.227<25.3575 152.888> 170 148<568.24 791.008> 214.034 86.9658<318.095 435.469> 378.096 164.774<456.941 564.43>
LayerCount: 2
Fore
SplineSet
187 250 m 1xe6
 170 791.0078125 l 1
 318 791.0078125 l 1xea
 301 250 l 1
 187 250 l 1xe6
214.034179688 318.094726562 m 1xe6
 215.15625 435.46875 l 1
 215.15625 435.46875 235.090631131 433.048828125 277.3984375 433.048828125 c 0
 345.507436758 433.048828125 378.095703125 461.0113139 378.095703125 513.145507812 c 0
 378.095703125 570.073069806 330.188816553 595.228515625 259.89453125 595.228515625 c 0
 143.30870287 595.228515625 66.923828125 543.958007812 66.923828125 543.958007812 c 1
 20.2412109375 676.311523438 l 1
 20.2412109375 676.311523438 109.533964829 738.9921875 262.89453125 738.9921875 c 0
 426.977981128 738.9921875 542.870117188 673.67794952 542.870117188 523.010742188 c 0
 542.870117188 384.857181702 433.580492961 313.59375 295 313.59375 c 0
 248.583480504 313.59375 214.034179688 318.094726562 214.034179688 318.094726562 c 1xe6
EndSplineSet
Refer: 57 46 N 1 0 0 1 105.887 0 2
Validated: 5
EndChar

StartChar: lira
Encoding: 8356 8356 134
Width: 573
Flags: W
HStem: 0 149<229.319 543> 225 86<40 464> 355 86<40 464> 598.621 140.841<275.609 467.924>
VStem: 73.3516 173.979<442.583 570.829> 142.824 158.657<252.054 353.052>
LayerCount: 2
Fore
SplineSet
543 0 m 5xf4
 30 0 l 5
 30 125 l 5
 30 125 142.82421875 198.18300299 142.82421875 282 c 4xf4
 142.82421875 393.38882466 73.3515625 415.335466304 73.3515625 528.185546875 c 4
 73.3515625 664.672670452 176.369868969 739.461914062 330.80859375 739.461914062 c 4
 454.640639156 739.461914062 509.95703125 705.405273438 509.95703125 705.405273438 c 5
 483.9375 570.024414062 l 5
 483.9375 570.024414062 429.148708985 598.62109375 357 598.62109375 c 4
 301.593356254 598.62109375 247.330078125 582.087020605 247.330078125 508 c 4xf8
 247.330078125 426.400555787 301.481445312 411.366373324 301.481445312 320.158203125 c 4
 301.481445312 214.10065552 229.319335938 149 229.319335938 149 c 5
 543 149 l 5
 543 0 l 5xf4
464 225 m 1
 40 225 l 1
 40 311 l 1
 464 311 l 1
 464 225 l 1
464 355 m 1
 40 355 l 1
 40 441 l 1
 464 441 l 1
 464 355 l 1
EndSplineSet
Validated: 5
EndChar

StartChar: uni20B5
Encoding: 8373 8373 135
Width: 623
Flags: W
HStem: -9.99805 79.4678<305 444> 655 84.1211<305 444>
VStem: 35 176.849<247.585 483.845> 305 139<-125 69.4697 655 849.47>
LayerCount: 2
Fore
SplineSet
35 364.561523438 m 4
 35 591.206054688 170.092773438 739.12109375 385.888671875 739.12109375 c 4
 537.397460938 739.12109375 599.681640625 682.891601562 599.681640625 682.891601562 c 5
 568.35546875 535.138671875 l 5
 568.35546875 535.138671875 514.362196331 586.659179688 404.888671875 586.659179688 c 4
 269.663085938 586.659179688 211.848632812 497.743164062 211.848632812 364.561523438 c 4
 211.848632812 231.379882812 272.658032137 142.463867188 414.888671875 142.463867188 c 4
 523.495417677 142.463867188 581.018554688 188.595703125 581.018554688 188.595703125 c 5
 602.827148438 34.595703125 l 5
 602.827148438 34.595703125 536.561523438 -9.998046875 385.888671875 -9.998046875 c 4
 170.092773438 -9.998046875 35 137.916992188 35 364.561523438 c 4
305 -125 m 1
 305 69.4697265625 l 1
 444 69.4697265625 l 1
 444 -125 l 1
 305 -125 l 1
305 655 m 1
 305 849.469726562 l 1
 444 849.469726562 l 1
 444 655 l 1
 305 655 l 1
EndSplineSet
Validated: 5
EndChar

StartChar: uni20B2
Encoding: 8370 8370 136
Width: 742
Flags: W
HStem: -9.99805 79.4678<305 444> 288 138<379 492.019 644.827 717> 288 16.5957<492.019 644.827> 655 84.1211<305 444>
VStem: 35 176.849<236.268 483.845> 305 139<-125 69.4697 655 849.47> 504.481 157.001<181.316 287.201>
LayerCount: 2
Fore
SplineSet
717 288 m 1xde
 379 288 l 1
 379 426 l 1
 717 426 l 1
 717 288 l 1xde
305 -125 m 1
 305 69.4697265625 l 1
 444 69.4697265625 l 1
 444 -125 l 1
 305 -125 l 1
305 655 m 1
 305 849.469726562 l 1
 444 849.469726562 l 1
 444 655 l 1
 305 655 l 1
35 364.561523438 m 0
 35 591.206054688 167.769526528 739.12109375 385.888671875 739.12109375 c 0
 537.397585487 739.12109375 599.681640625 682.891601562 599.681640625 682.891601562 c 1
 558.35546875 535.138671875 l 1
 558.35546875 535.138671875 505.02336248 586.659179688 396.888671875 586.659179688 c 0
 267.267042781 586.659179688 211.848632812 497.743164062 211.848632812 364.561523438 c 0
 211.848632812 231.379882812 256.879763614 142.463867188 379.888671875 142.463867188 c 0
 468.87067326 142.463867188 504.481445312 187.063234572 504.481445312 244 c 0
 504.481445312 281.79733338 492.018554688 304.595703125 492.018554688 304.595703125 c 1
 644.827148438 304.595703125 l 1xbe
 644.827148438 304.595703125 661.482421875 273.882172198 661.482421875 212 c 0
 661.482421875 88.6425930481 577.992418555 -9.998046875 369.888671875 -9.998046875 c 0
 156.581170726 -9.998046875 35 137.916992188 35 364.561523438 c 0
EndSplineSet
Validated: 5
EndChar

StartChar: uni20BA
Encoding: 8378 8378 137
Width: 668
Flags: W
HStem: 0 146<264 404.456> 711.008 20G<95 264>
VStem: 30 234<205 291 335 421> 95 169<146 731.008>
LayerCount: 2
Fore
SplineSet
404 355 m 5xe0
 30 205 l 5
 30 291 l 5
 404 441 l 5
 404 355 l 5xe0
404 485 m 5
 30 335 l 5
 30 421 l 5
 404 571 l 5
 404 485 l 5
264 146 m 1xd0
 295 146 l 2
 413.062111801 146 467.720496894 180.047619048 471 302 c 1
 644 291 l 1
 642.364122003 119.380678935 561.91025641 -3.56104035149e-14 307 0 c 2
 95 0 l 1
 95 731.0078125 l 1
 264 731.0078125 l 1
 264 146 l 1xd0
EndSplineSet
Validated: 5
EndChar

StartChar: fraction
Encoding: 8260 8260 138
Width: 304
Flags: W
HStem: 0 21G<-130 21.9958> 711.008 20G<332.004 484>
LayerCount: 2
Fore
SplineSet
-130 0 m 1
 345 731.0078125 l 1
 484 731.0078125 l 1
 9 0 l 5
 -130 0 l 1
EndSplineSet
Validated: 1
EndChar

StartChar: endash
Encoding: 8211 8211 139
Width: 570
Flags: W
HStem: 209 131<30 540>
LayerCount: 2
Fore
SplineSet
30 209 m 1
 30 340 l 5
 540 340 l 5
 540 209 l 1
 30 209 l 1
EndSplineSet
Validated: 1
Substitution2: "'case' Case-Sensitive Forms lookup 27-1" endash.case
EndChar

StartChar: emdash
Encoding: 8212 8212 140
Width: 820
Flags: W
HStem: 209 131<30 790>
LayerCount: 2
Fore
SplineSet
30 209 m 1
 30 340 l 5
 790 340 l 5
 790 209 l 1
 30 209 l 1
EndSplineSet
Validated: 1
Substitution2: "'case' Case-Sensitive Forms lookup 27-1" emdash.case
EndChar

StartChar: Euro
Encoding: 8364 8364 141
Width: 683
Flags: W
HStem: -9.99805 152.462<375.896 594.449> 260 86<30 467.957> 390 86<30 497.879> 586.659 152.462<368.79 576.377>
LayerCount: 2
Fore
SplineSet
95 364.561523438 m 4
 95 591.206054688 230.092773438 739.12109375 445.888671875 739.12109375 c 4
 597.397460938 739.12109375 659.681640625 682.891601562 659.681640625 682.891601562 c 5
 628.35546875 535.138671875 l 5
 628.35546875 535.138671875 574.362196331 586.659179688 464.888671875 586.659179688 c 4
 329.663085938 586.659179688 271.848632812 497.743164062 271.848632812 364.561523438 c 4
 271.848632812 231.379882812 332.658032137 142.463867188 474.888671875 142.463867188 c 4
 583.495417677 142.463867188 641.018554688 188.595703125 641.018554688 188.595703125 c 5
 662.827148438 34.595703125 l 5
 662.827148438 34.595703125 596.561523438 -9.998046875 445.888671875 -9.998046875 c 4
 230.092773438 -9.998046875 95 137.916992188 95 364.561523438 c 4
467.95703125 260 m 1
 30 260 l 1
 30 346 l 1
 490.12109375 346 l 1
 467.95703125 260 l 1
497.87890625 390 m 1
 30 390 l 1
 30 476 l 1
 520.04296875 476 l 1
 497.87890625 390 l 1
EndSplineSet
Validated: 5
EndChar

StartChar: uni20AD
Encoding: 8365 8365 142
Width: 695
Flags: W
HStem: 0 21G<121 290 470.106 685> 295 121<30 654> 711.008 20G<121 290 468.059 675>
VStem: 121 169<0 321 391 731.008> 261 29<321 391>
LayerCount: 2
Fore
SplineSet
654 295 m 1xe0
 30 295 l 1
 30 416 l 1
 654 416 l 1
 654 295 l 1xe0
484 0 m 1
 261 321 l 5
 261 391 l 5xe8
 481 731.0078125 l 1
 675 731.0078125 l 1
 401 372 l 1
 685 0 l 1
 484 0 l 1
121 0 m 1xf0
 121 731.0078125 l 1
 290 731.0078125 l 1
 290 0 l 1
 121 0 l 1xf0
EndSplineSet
Validated: 5
EndChar

StartChar: uni20B9
Encoding: 8377 8377 143
Width: 574
Flags: W
HStem: 0 21G<334.585 526> 260 136.352<30 244.496> 450 86<30 544> 590.627 140.381<30 266.216>
VStem: 299.929 176.849<391.885 614.104>
LayerCount: 2
Fore
SplineSet
30 396.3515625 m 5
 171.888671875 396.461914062 l 6
 245.191395622 396.519517279 299.928710938 413.921388164 299.928710938 493.561523438 c 4
 299.928710938 572.412181504 245.191360365 590.448916643 171.888671875 590.545898438 c 6
 30 590.626953125 l 5
 30 731.0078125 l 5
 194.888671875 731.0078125 l 6
 353.204101562 731.0078125 476.77734375 669.334960938 476.77734375 504.561523438 c 4
 476.77734375 355.914835634 359.688476562 322.276367188 359.688476562 322.276367188 c 5
 359.688476562 322.276367188 421.013405749 304.356042655 461.702148438 186.399414062 c 6
 526 0 l 5
 341 0 l 5
 290 159 l 6
 261.017935844 249.355847076 234.359476405 260 129 260 c 6
 30 260 l 5
 30 396.3515625 l 5
544 450 m 1
 30 450 l 1
 30 536 l 1
 544 536 l 1
 544 450 l 1
EndSplineSet
Validated: 5
EndChar

StartChar: uni20B4
Encoding: 8372 8372 144
Width: 677
Flags: W
HStem: -10 147.462<264.463 478.894> 255 86<30 647> 385 86<324.171 647> 590.659 148.462<192.299 396.696>
VStem: 69.6484 169.182<162.634 252.855> 422.229 173.312<472.126 565.872>
LayerCount: 2
Fore
SplineSet
647 255 m 5
 30 255 l 5
 30 341 l 5
 647 341 l 5
 647 255 l 5
647 385 m 5
 30 385 l 5
 30 471 l 5
 647 471 l 5
 647 385 l 5
341.78515625 302.140625 m 0
 253.449683617 285.585933834 238.830078125 255.466621326 238.830078125 212 c 0
 238.830078125 164.817382812 275.80610025 137.461914062 353.471679688 137.461914062 c 0
 470.206638564 137.461914062 561.1953125 196.982421875 561.1953125 196.982421875 c 1
 607.3515625 45.2294921875 l 1
 607.3515625 45.2294921875 507.263671875 -10 349.36328125 -10 c 0
 169.033203125 -10 69.6484375 75.1845703125 69.6484375 212 c 0
 69.6484375 323.626049147 122.832406325 395.941637217 324.170898438 435.081054688 c 0
 402.999830296 450.405091539 422.229492188 478.031128101 422.229492188 514 c 0
 422.229492188 561.847639849 388.906528882 590.659179688 314.8046875 590.659179688 c 0
 207.319941021 590.659179688 138.796875 543.138671875 138.796875 543.138671875 c 1
 97.4228515625 687.891601562 l 1
 97.4228515625 687.891601562 169.901367188 739.12109375 318.934570312 739.12109375 c 0
 493.87890625 739.12109375 595.541015625 652.115234375 595.541015625 517 c 0
 595.541015625 404.339171265 550.273179359 341.212752328 341.78515625 302.140625 c 0
EndSplineSet
Validated: 5
EndChar

StartChar: colonmonetary
Encoding: 8353 8353 145
Width: 623
Flags: W
HStem: -9.99805 79.4678<170.093 262.378 323.378 422.378> 586.659 152.462<275.265 425.468> 655 84.1211<266.622 365.622 426.622 525.622>
VStem: 35 176.849<247.585 483.845>
LayerCount: 2
Fore
SplineSet
35 364.561523438 m 0xd0
 35 591.206054688 170.092773438 739.12109375 385.888671875 739.12109375 c 0
 537.397460938 739.12109375 599.681640625 682.891601562 599.681640625 682.891601562 c 1
 568.35546875 535.138671875 l 1
 568.35546875 535.138671875 514.362196331 586.659179688 404.888671875 586.659179688 c 0
 269.663085938 586.659179688 211.848632812 497.743164062 211.848632812 364.561523438 c 0
 211.848632812 231.379882812 272.658032137 142.463867188 414.888671875 142.463867188 c 0
 523.495417677 142.463867188 581.018554688 188.595703125 581.018554688 188.595703125 c 1
 602.827148438 34.595703125 l 1
 602.827148438 34.595703125 536.561523438 -9.998046875 385.888671875 -9.998046875 c 0
 170.092773438 -9.998046875 35 137.916992188 35 364.561523438 c 0xd0
292.614257812 -105 m 1
 323.377929688 69.4697265625 l 1
 422.377929688 69.4697265625 l 1
 391.614257812 -105 l 1
 292.614257812 -105 l 1
426.622070312 655 m 1xb0
 457.385742188 829.469726562 l 1
 556.385742188 829.469726562 l 1
 525.622070312 655 l 1
 426.622070312 655 l 1xb0
132.614257812 -105 m 1
 163.377929688 69.4697265625 l 1
 262.377929688 69.4697265625 l 1
 231.614257812 -105 l 1
 132.614257812 -105 l 1
266.622070312 655 m 1
 297.385742188 829.469726562 l 1
 396.385742188 829.469726562 l 1
 365.622070312 655 l 1
 266.622070312 655 l 1
EndSplineSet
Validated: 5
EndChar

StartChar: zero.inferior
Encoding: 8320 8320 148
Width: 443
Flags: W
HStem: -358 98<170.112 273.724> 45 98<170.112 273.724>
VStem: 23 109<-217.498 1.83469> 311 109<-217.498 1.83469>
LayerCount: 2
Fore
SplineSet
132 -108 m 0
 132 -199 159 -260 222 -260 c 0
 285 -260 311 -199 311 -108 c 0
 311 -17 285 45 222 45 c 0
 159 45 132 -17 132 -108 c 0
23 -108 m 0
 23 44 92 143 222 143 c 0
 352 143 420 44 420 -108 c 0
 420 -260 352 -358 222 -358 c 0
 92 -358 23 -260 23 -108 c 0
EndSplineSet
Validated: 1
EndChar

StartChar: one.inferior
Encoding: 8321 8321 149
Width: 277
Flags: W
VStem: 130 111<-350 22>
LayerCount: 2
Fore
SplineSet
241 137 m 1
 241 -350 l 1
 130 -350 l 5
 130 22 l 5
 40 -26 l 1
 7 56 l 1
 143 137 l 1
 241 137 l 1
EndSplineSet
Validated: 1
EndChar

StartChar: two.inferior
Encoding: 8322 8322 150
Width: 399
Flags: W
HStem: -350 99<154 380> 45 98<96.7859 247.304>
VStem: 260 115<-59.4243 31.755>
LayerCount: 2
Fore
SplineSet
260 -15 m 0
 260 23 241 45 185 45 c 0
 112 45 68 4 68 4 c 1
 32 96 l 1
 32 96 90 143 191 143 c 0
 306 143 375 92 375 -9 c 0
 375 -93 328 -135 228 -184 c 0
 155 -220 154 -251 154 -251 c 1
 380 -251 l 1
 380 -350 l 1
 32 -350 l 1
 32 -314 l 2
 32 -208 94 -150 202 -87 c 0
 247 -61 260 -39 260 -15 c 0
EndSplineSet
Validated: 1
EndChar

StartChar: three.inferior
Encoding: 8323 8323 151
Width: 388
Flags: W
HStem: -358 97<73.9709 235.927> -148 92<109 232.25> 43 100<87.2194 230.03>
VStem: 239 115<-48.4905 33.2786> 248 117<-246.432 -157.933>
LayerCount: 2
Fore
SplineSet
176 -56 m 6xe8
 224 -56 239 -39 239 -6 c 4
 239 22 223 43 171 43 c 4
 102 43 60 3 60 3 c 5
 24 95 l 5
 24 95 79 143 176 143 c 4
 286 143 354 95 354 5 c 4xf0
 354 -76 282 -100 282 -100 c 5
 282 -100 365 -123 365 -214 c 4
 365 -317 290 -358 176 -358 c 4
 72 -358 10 -315 10 -315 c 5
 42 -220 l 5
 42 -220 90 -261 165 -261 c 4
 223 -261 248 -241 248 -204 c 4
 248 -167 227 -148 185 -148 c 6
 109 -148 l 5
 109 -56 l 5
 176 -56 l 6xe8
EndSplineSet
Validated: 1
EndChar

StartChar: four.inferior
Encoding: 8324 8324 152
Width: 431
Flags: W
HStem: -234 93<133 411>
VStem: 237 107<-350 0>
LayerCount: 2
Fore
SplineSet
344 137 m 1
 344 -350 l 1
 237 -350 l 1
 237 -0 l 1
 133 -141 l 1
 411 -141 l 1
 411 -234 l 1
 32 -234 l 1
 20 -154 l 1
 238 137 l 1
 344 137 l 1
EndSplineSet
Validated: 5
EndChar

StartChar: five.inferior
Encoding: 8325 8325 153
Width: 394
Flags: W
HStem: -357 95<73.4707 239.9> -113 84<142.475 243.329> 42 95<149 346>
VStem: 260 111<-240.644 -129.344>
LayerCount: 2
Fore
SplineSet
173 -357 m 0
 71 -357 10 -316 10 -316 c 1
 42 -221 l 1
 42 -221 90 -262 166 -262 c 0
 234 -262 260 -234 260 -187 c 0
 260 -141 236 -113 186 -113 c 0
 128 -113 117 -151 117 -151 c 1
 35 -134 l 1
 59 137 l 1
 346 137 l 5
 346 42 l 5
 149 42 l 1
 141 -52 l 1
 141 -52 159 -29 219 -29 c 0
 310 -29 371 -87 371 -183 c 0
 371 -291 304 -357 173 -357 c 0
EndSplineSet
Validated: 1
EndChar

StartChar: six.inferior
Encoding: 8326 8326 154
Width: 428
Flags: W
HStem: -358 93<158.279 271.364> -120 85<159.201 270.452> 47 96<174.735 331.287>
VStem: 23 106<-85 -0.015625> 289 109<-246.787 -137.73>
LayerCount: 2
Fore
SplineSet
139 -192 m 0
 139 -233 162 -265 214 -265 c 0
 266 -265 289 -233 289 -192 c 4
 289 -151 266 -120 214 -120 c 0
 162 -120 139 -151 139 -192 c 0
129 -85 m 1
 129 -85 157 -35 243 -35 c 0
 338 -35 398 -98 398 -191 c 0
 398 -298 330 -358 218 -358 c 0
 96 -358 23 -285 23 -107 c 0
 23 54 102 143 244 143 c 0
 338 143 386 102 386 102 c 1
 348 14 l 1
 348 14 313 47 249 47 c 0
 173 47 129 7 129 -85 c 1
EndSplineSet
Validated: 1
EndChar

StartChar: seven.inferior
Encoding: 8327 8327 155
Width: 402
Flags: W
HStem: 40 97<27 247>
VStem: 106 113<-350 -216.062>
LayerCount: 2
Fore
SplineSet
219 -350 m 5
 106 -350 l 5
 113 -135 247 40 247 40 c 1
 27 40 l 1
 27 137 l 1
 376 137 l 1
 376 67 l 1
 376 67 221 -91 219 -350 c 5
EndSplineSet
Validated: 1
EndChar

StartChar: eight.inferior
Encoding: 8328 8328 156
Width: 423
Flags: W
HStem: -358 91<147.405 276.245> -136 80<172 253> -107 36<105 321> 56 87<158.469 266.507>
VStem: 23 108<-248.727 -154.838> 47 100<-43.2636 43.9249> 278 102<-42.8439 43.9249> 292 108<-249.241 -154.3>
LayerCount: 2
Fore
SplineSet
212 -56 m 0xd6
 253 -56 278 -33 278 -0 c 0
 278 34 254 56 212 56 c 0
 171 56 147 34 147 -0 c 0
 147 -33 172 -56 212 -56 c 0xd6
212 143 m 0
 317 143 380 93 380 11 c 4
 380 -66 321 -107 212 -107 c 0xb6
 105 -107 47 -66 47 11 c 4
 47 93 109 143 212 143 c 0
212 -267 m 0
 264 -267 292 -243 292 -202 c 0
 292 -163 264 -136 212 -136 c 0
 160 -136 131 -163 131 -202 c 0xd9
 131 -243 160 -267 212 -267 c 0
212 -71 m 0xb9
 334 -71 400 -122 400 -212 c 0
 400 -301 326 -358 212 -358 c 0
 98 -358 23 -301 23 -212 c 0
 23 -122 90 -71 212 -71 c 0xb9
EndSplineSet
Validated: 5
EndChar

StartChar: nine.inferior
Encoding: 8329 8329 157
Width: 420
Flags: W
HStem: -358 96<82.8678 245.28> -183 88<151.175 254.932> 49 94<149.875 263.119>
VStem: 23 109<-77.4559 31.3334> 282 115<-220.738 30.8623>
LayerCount: 2
Fore
SplineSet
282 -23 m 0
 282 17 261 49 208 49 c 0
 155 49 132 17 132 -23 c 0
 132 -63 155 -95 208 -95 c 0
 261 -95 282 -63 282 -23 c 0
285 -130 m 1
 285 -130 259 -183 178 -183 c 0
 83 -183 23 -118 23 -24 c 0
 23 83 92 143 203 143 c 0
 325 143 397 70 397 -108 c 0
 397 -269 318 -358 177 -358 c 0
 83 -358 36 -317 36 -317 c 1
 67 -230 l 1
 67 -230 105 -262 173 -262 c 0
 245 -262 285 -223 285 -130 c 1
EndSplineSet
Validated: 1
EndChar

StartChar: zero.superior
Encoding: 8304 8304 158
Width: 443
Flags: W
HStem: 342 98<170.112 273.724> 745 98<170.112 273.724>
VStem: 23 109<482.502 701.835> 311 109<482.502 701.835>
LayerCount: 2
Fore
SplineSet
132 592 m 0
 132 501 159 440 222 440 c 0
 285 440 311 501 311 592 c 0
 311 683 285 745 222 745 c 0
 159 745 132 683 132 592 c 0
23 592 m 0
 23 744 92 843 222 843 c 0
 352 843 420 744 420 592 c 0
 420 440 352 342 222 342 c 0
 92 342 23 440 23 592 c 0
EndSplineSet
Validated: 1
EndChar

StartChar: one.superior
Encoding: 185 185 159
Width: 277
Flags: W
VStem: 130 111<350 733>
LayerCount: 2
Fore
SplineSet
241 844 m 1
 241 350 l 1
 130 350 l 5
 130 733 l 5
 40 683 l 1
 7 768 l 1
 143 844 l 1
 241 844 l 1
EndSplineSet
Validated: 1
EndChar

StartChar: two.superior
Encoding: 178 178 160
Width: 399
Flags: W
HStem: 350 99<154 380> 745 98<96.7859 247.304>
VStem: 260 115<640.576 731.755>
LayerCount: 2
Fore
SplineSet
260 685 m 0
 260 723 241 745 185 745 c 0
 112 745 68 704 68 704 c 1
 32 796 l 1
 32 796 90 843 191 843 c 0
 306 843 375 792 375 691 c 0
 375 607 327 565 227 516 c 0
 153 480 154 449 154 449 c 1
 380 449 l 1
 380 350 l 1
 32 350 l 1
 32 386 l 2
 32 492 94 550 202 613 c 0
 247 639 260 661 260 685 c 0
EndSplineSet
Validated: 33
EndChar

StartChar: three.superior
Encoding: 179 179 161
Width: 391
Flags: W
HStem: 342 97<73.4017 238.035> 552 92<111 235.25> 743 100<88.4763 232.72>
VStem: 242 115<651.811 733.279> 251 117<453.568 542.067>
LayerCount: 2
Fore
SplineSet
178 644 m 6xe8
 226 644 242 661 242 694 c 4
 242 722 226 743 173 743 c 4
 103 743 61 703 61 703 c 5
 24 795 l 5
 24 795 81 843 178 843 c 4
 289 843 357 795 357 705 c 4xf0
 357 624 285 600 285 600 c 5
 285 600 368 577 368 486 c 4
 368 383 292 342 177 342 c 4
 72 342 10 383 10 383 c 5
 42 479 l 5
 42 479 91 439 167 439 c 4
 225 439 251 459 251 496 c 4
 251 533 230 552 188 552 c 6
 111 552 l 5
 111 644 l 5
 178 644 l 6xe8
EndSplineSet
Validated: 1
EndChar

StartChar: four.superior
Encoding: 8308 8308 162
Width: 431
Flags: W
HStem: 469 92<133 411>
VStem: 237 107<350 707>
LayerCount: 2
Fore
SplineSet
344 842 m 1
 344 350 l 1
 237 350 l 1
 237 707 l 1
 133 561 l 1
 411 561 l 1
 411 469 l 1
 32 469 l 1
 20 548 l 1
 238 842 l 1
 344 842 l 1
EndSplineSet
Validated: 5
EndChar

StartChar: five.superior
Encoding: 8309 8309 163
Width: 394
Flags: W
HStem: 348 95<73.4707 239.9> 592 84<142.475 243.329> 747 95<149 346>
VStem: 260 111<464.356 575.656>
LayerCount: 2
Fore
SplineSet
173 348 m 0
 71 348 10 389 10 389 c 1
 42 484 l 1
 42 484 90 443 166 443 c 0
 234 443 260 471 260 518 c 0
 260 564 236 592 186 592 c 0
 128 592 117 554 117 554 c 1
 35 571 l 1
 59 842 l 1
 346 842 l 1
 346 747 l 1
 149 747 l 1
 141 653 l 1
 141 653 159 676 219 676 c 0
 310 676 371 618 371 522 c 0
 371 414 304 348 173 348 c 0
EndSplineSet
Validated: 1
EndChar

StartChar: six.superior
Encoding: 8310 8310 164
Width: 427
Flags: W
HStem: 342 93<158.217 268.393> 580 85<159.126 269.94> 747 96<174.131 330.287>
VStem: 23 106<615 699.984> 288 109<453.213 562.27>
LayerCount: 2
Fore
SplineSet
139 508 m 0
 139 467 162 435 213 435 c 0
 265 435 288 467 288 508 c 4
 288 549 265 580 213 580 c 0
 162 580 139 549 139 508 c 0
129 615 m 1
 129 615 157 665 243 665 c 0
 338 665 397 602 397 509 c 0
 397 402 329 342 218 342 c 0
 96 342 23 415 23 593 c 0
 23 754 102 843 243 843 c 0
 337 843 385 802 385 802 c 1
 347 714 l 1
 347 714 312 747 248 747 c 0
 172 747 129 707 129 615 c 1
EndSplineSet
Validated: 1
EndChar

StartChar: seven.superior
Encoding: 8311 8311 165
Width: 402
Flags: W
HStem: 740 97<27 247>
VStem: 106 113<350 483.938>
LayerCount: 2
Fore
SplineSet
219 350 m 5
 106 350 l 5
 113 565 247 740 247 740 c 1
 27 740 l 1
 27 837 l 1
 376 837 l 1
 376 767 l 1
 376 767 221 609 219 350 c 5
EndSplineSet
Validated: 1
EndChar

StartChar: eight.superior
Encoding: 8312 8312 166
Width: 428
Flags: W
HStem: 342 91<147.995 280.005> 564 80<173 257> 593 36<106 326> 756 87<159.859 270.537>
VStem: 23 108<451.273 545.162> 47 100<657.156 743.512> 283 102<657.156 743.512> 297 108<451.273 545.162>
LayerCount: 2
Fore
SplineSet
214 644 m 0xd6
 257 644 283 667 283 700 c 0
 283 734 258 756 214 756 c 0
 172 756 147 734 147 700 c 0
 147 667 173 644 214 644 c 0xd6
215 843 m 0
 321 843 385 793 385 711 c 4
 385 634 326 593 215 593 c 0xb6
 106 593 47 634 47 711 c 4
 47 793 111 843 215 843 c 0
214 433 m 0
 268 433 297 457 297 498 c 0
 297 537 268 564 214 564 c 0
 160 564 131 537 131 498 c 0xd9
 131 457 160 433 214 433 c 0
214 629 m 0xb9
 337 629 405 578 405 488 c 0
 405 399 330 342 214 342 c 0
 98 342 23 399 23 488 c 0
 23 578 91 629 214 629 c 0xb9
EndSplineSet
Validated: 5
EndChar

StartChar: nine.superior
Encoding: 8313 8313 167
Width: 420
Flags: W
HStem: 342 96<82.8678 245.28> 517 88<151.175 254.932> 749 94<149.875 263.119>
VStem: 23 109<622.544 731.333> 282 115<479.262 730.862>
LayerCount: 2
Fore
SplineSet
282 677 m 0
 282 717 261 749 208 749 c 0
 155 749 132 717 132 677 c 0
 132 637 155 605 208 605 c 0
 261 605 282 637 282 677 c 0
285 570 m 1
 285 570 259 517 178 517 c 0
 83 517 23 582 23 676 c 0
 23 783 92 843 203 843 c 0
 325 843 397 770 397 592 c 0
 397 431 318 342 177 342 c 0
 83 342 36 383 36 383 c 1
 67 470 l 1
 67 470 105 438 173 438 c 0
 245 438 285 477 285 570 c 1
EndSplineSet
Validated: 1
EndChar

StartChar: circumflex
Encoding: 710 710 168
Width: 362
Flags: W
HStem: 516 215.008
LayerCount: 2
Fore
SplineSet
271 516 m 1
 181 617.432617188 l 5
 91 516 l 1
 1 546 l 1
 121 731.0078125 l 1
 241 731.0078125 l 1
 361 546 l 1
 271 516 l 1
EndSplineSet
Validated: 1
EndChar

StartChar: caron
Encoding: 711 711 169
Width: 362
Flags: W
HStem: 526 215.008
LayerCount: 2
Fore
SplineSet
91 741.0078125 m 1
 181 639.575195312 l 5
 271 741.0078125 l 1
 361 711.0078125 l 1
 241 526 l 1
 121 526 l 1
 1 711.0078125 l 1
 91 741.0078125 l 1
EndSplineSet
Validated: 1
EndChar

StartChar: breve
Encoding: 728 728 170
Width: 362
VWidth: 999
Flags: W
HStem: 572.937 110.938<104.102 258.719> 715 20G<54.7394 74.9434 287.877 308.081>
LayerCount: 2
Fore
SplineSet
181.41015625 572.936523438 m 0
 47.8446247382 572.936523438 5 665.762695312 5 665.762695312 c 5
 74.943359375 735 l 1
 74.943359375 735 98.4751885052 683.874023438 181.41015625 683.874023438 c 0
 264.345123995 683.874023438 287.876953125 735 287.876953125 735 c 1
 357.8203125 665.762695312 l 5
 357.8203125 665.762695312 314.975687762 572.936523438 181.41015625 572.936523438 c 0
EndSplineSet
Validated: 1
EndChar

StartChar: dotaccent
Encoding: 729 729 171
Width: 248
Flags: W
HStem: 584.543 166.449<65.7926 183.207>
VStem: 41.8867 165.227<608.626 726.909>
LayerCount: 2
Fore
SplineSet
41.88671875 667.767578125 m 4
 41.88671875 718.186392055 74.4503826842 750.9921875 124.499023438 750.9921875 c 4
 174.548654747 750.9921875 207.11328125 718.186392055 207.11328125 667.767578125 c 4
 207.11328125 617.347853302 174.548654747 584.54296875 124.499023438 584.54296875 c 4
 74.4503826842 584.54296875 41.88671875 617.347853302 41.88671875 667.767578125 c 4
EndSplineSet
Validated: 1
EndChar

StartChar: tilde
Encoding: 732 732 172
Width: 388
VWidth: 999
Flags: W
HStem: 583.992 115<199.995 339.318> 623.992 115<49.4823 188.806> 711.792 20G<352.601 358.755>
LayerCount: 2
Fore
SplineSet
383.80078125 630.392578125 m 5xa0
 383.80078125 630.392578125 339.105468749 583.9921875 270.200195312 583.9921875 c 4xa0
 194.944070278 583.9921875 169.423396184 623.9921875 111.400390625 623.9921875 c 4
 65.3324303826 623.9921875 36.2001953125 591.192382812 36.2001953125 591.192382812 c 5
 5 692.591796875 l 1
 5 692.591796875 49.6953125004 738.9921875 118.600585938 738.9921875 c 0x40
 193.856710972 738.9921875 219.377385066 698.9921875 277.400390625 698.9921875 c 0
 323.468350867 698.9921875 352.600585938 731.791992188 352.600585938 731.791992188 c 1
 383.80078125 630.392578125 l 5xa0
EndSplineSet
Validated: 1
EndChar

StartChar: hungarumlaut
Encoding: 733 733 173
Width: 432
Flags: W
HStem: 526 215.008
LayerCount: 2
Fore
SplineSet
291 526 m 1
 191 546 l 1
 285 741.0078125 l 5
 431 711.0078125 l 5
 291 526 l 1
101 526 m 1
 1 546 l 1
 95 741.0078125 l 5
 241 711.0078125 l 5
 101 526 l 1
EndSplineSet
Validated: 1
EndChar

StartChar: multiply
Encoding: 215 215 174
Width: 450
Flags: W
LayerCount: 2
Fore
SplineSet
418.040039062 461.944335938 m 1
 121.055664062 164.959960938 l 1
 31.9599609375 254.055664062 l 1
 328.944335938 551.040039062 l 1
 418.040039062 461.944335938 l 1
328.944335938 164.959960938 m 1
 31.9599609375 461.944335938 l 1
 121.055664062 551.040039062 l 1
 418.040039062 254.055664062 l 1
 328.944335938 164.959960938 l 1
EndSplineSet
Validated: 5
EndChar

StartChar: divide
Encoding: 247 247 175
Width: 450
Flags: W
HStem: 98.4961 167.804<165.768 284.231> 295 126<30 420> 449.7 167.804<165.768 284.231>
VStem: 141.648 166.703<122.775 242.02 473.979 593.224>
CounterMasks: 1 e0
LayerCount: 2
Fore
SplineSet
420 295 m 5
 30 295 l 5
 30 421 l 1
 420 421 l 1
 420 295 l 5
141.6484375 182.397460938 m 4
 141.6484375 233.2265625 174.502929688 266.299804688 224.999023438 266.299804688 c 4
 275.49609375 266.299804688 308.3515625 233.2265625 308.3515625 182.397460938 c 4
 308.3515625 131.568359375 275.49609375 98.49609375 224.999023438 98.49609375 c 4
 174.502929688 98.49609375 141.6484375 131.568359375 141.6484375 182.397460938 c 4
141.6484375 533.602539062 m 0
 141.6484375 584.430664062 174.502929688 617.50390625 224.999023438 617.50390625 c 0
 275.49609375 617.50390625 308.3515625 584.430664062 308.3515625 533.602539062 c 0
 308.3515625 482.772460938 275.49609375 449.700195312 224.999023438 449.700195312 c 0
 174.502929688 449.700195312 141.6484375 482.772460938 141.6484375 533.602539062 c 0
EndSplineSet
Validated: 1
EndChar

StartChar: AE
Encoding: 198 198 176
Width: 984
Flags: W
HStem: 0 146<651 954> 166 136<192 565> 292 146<576 894> 292 10<565 576> 585.008 146<651 954>
VStem: 480 6<600 731.008> 565 86<302 438> 565 11<292 302>
AnchorPoint: "Anchor-0" 562 731 basechar 0
LayerCount: 2
Fore
SplineSet
894 292 m 1xae
 565 292 l 1x9d
 565 438 l 1
 894 438 l 1
 894 292 l 1xae
651 585.0078125 m 1x8e
 651 146 l 1
 954 146 l 1
 954 0 l 1
 480 0 l 1
 480 731.0078125 l 1
 954 731.0078125 l 1
 954 585.0078125 l 1
 651 585.0078125 l 1x8e
576 166 m 1xcd
 122 166 l 1
 192 302 l 1xcd
 576 302 l 1x9d
 576 166 l 1xcd
486 731.0078125 m 1
 486 600 l 5
 199 0 l 1
 5 0 l 1
 385 731.0078125 l 1
 486 731.0078125 l 1
EndSplineSet
Validated: 5
EndChar

StartChar: ae
Encoding: 230 230 177
Width: 872
Flags: W
HStem: -9.99805 114.462<198.347 313.066> -9.99805 132.462<560.172 775.285> 205 97<461 696.203> 221.284 86.6494<206.513 348.777> 386.011 125<138.023 309.647> 393.284 117.649<551.1 665.284>
VStem: 30 157.849<115.482 201.234> 332.929 119<168 363.166> 332.929 15.8486<221.284 307.934> 461 52.8486<205 302>
AnchorPoint: "Anchor-0" 420 501.011 basechar 0
LayerCount: 2
Fore
SplineSet
332.928710938 179.561523438 m 1x9340
 451 162 l 1
 430.663087612 53.6042948842 362.146975376 -9.998046875 230.888671875 -9.998046875 c 0
 92.4581179516 -9.998046875 30 50 30 141 c 0
 30 284.992331262 163.276054568 307.79945861 348.928710938 307.93359375 c 5
 348.77734375 221.284179688 l 5x92c0
 225.931938641 221.186630643 187.848632812 209.098283154 187.848632812 156.561523438 c 0
 187.848632812 125.004409801 208.440035779 104.463867188 255.888671875 104.463867188 c 0
 302.430462908 104.463867188 332.928710938 134.108481362 332.928710938 179.561523438 c 1x9340
451.928710938 168 m 1x0b40
 332.928710938 165 l 1x0ac0
 332.928710938 297.010742188 l 2
 332.928710937 359.204763104 303.910692581 386.010742188 234.928710938 386.010742188 c 0
 159.68605957 386.010742188 105.928710938 347.010742188 105.928710938 347.010742188 c 1
 70.9287109375 466.010742188 l 1
 70.9287109375 466.010742188 145.908725621 511.010742188 253.928710938 511.010742188 c 0
 367.138012034 511.010742188 451.928710938 465.069271059 451.928710938 310.010742188 c 2
 451.928710938 168 l 1x0b40
EndSplineSet
Refer: 43 101 N 1 0 0 1 324 0 2
Validated: 5
EndChar

StartChar: Eth
Encoding: 208 208 178
Width: 789
Flags: W
HStem: 0 150.352<286 474.113> 290 141<30 434> 580.65 150.358<286 476.165>
VStem: 117 169<150.352 580.65> 578.929 175.849<251.626 478.213>
LayerCount: 2
Fore
SplineSet
434 290 m 5
 30 290 l 5
 30 431 l 5
 434 431 l 5
 434 290 l 5
EndSplineSet
Refer: 5 68 N 1 0 0 1 62 0 2
Validated: 5
EndChar

StartChar: eth
Encoding: 240 240 179
Width: 600
Flags: W
HStem: -9.99805 140.462<235.032 362.942> 384.284 126.649<237.622 348.868>
VStem: 35 160.849<169.999 341.171> 399.929 165.849<169.791 519.3> 399.929 41.8486<281.562 338.651>
LayerCount: 2
Fore
SplineSet
131.006835938 613.658203125 m 5xe0
 467.919921875 715.080078125 l 5
 492.099609375 630.467773438 l 5
 155.185546875 529.044921875 l 5
 131.006835938 613.658203125 l 5xe0
399.928710938 251.561523438 m 0xf0
 399.928710938 495.270402307 347.15234375 549.063476562 170.862304688 672.548828125 c 1
 285.755859375 766.274414062 l 1
 285.755859375 766.274414062 565.77734375 606.279055881 565.77734375 279 c 0xf0
 565.77734375 93.8330078125 461.0625 -9.998046875 298.888671875 -9.998046875 c 0
 137.958007812 -9.998046875 35 94.0830078125 35 253.561523438 c 0
 35 409.295898438 124.606445312 510.93359375 271.928710938 510.93359375 c 0
 370.740501797 510.93359375 441.77734375 423.74661277 441.77734375 281.561523438 c 1xe8
 399.928710938 273.561523438 l 1
 399.928710938 338.651367188 364.786975249 384.284179688 300.77734375 384.284179688 c 0
 230.678975917 384.284179688 195.848632812 331.148904266 195.848632812 251.561523438 c 0
 195.848632812 178.9453125 231.313643049 130.463867188 302.888671875 130.463867188 c 0
 372.138193623 130.463867188 399.928710938 190.3125 399.928710938 251.561523438 c 0xf0
EndSplineSet
EndChar

StartChar: Thorn
Encoding: 222 222 180
Width: 637
Flags: W
HStem: 0 21G<55 226> 154 132.352<164 401.565> 464.649 136.358<165 401.812> 711.008 20G<55 226>
VStem: 55 171<0 154 286.352 464.649 601.008 731.008> 165 61<154 286.352 464.649 601.008> 430.929 171.849<312.88 437.465>
LayerCount: 2
Fore
SplineSet
55 0 m 1xfa
 55 731.0078125 l 1
 226 731.0078125 l 1
 226 0 l 1
 55 0 l 1xfa
164 154 m 1
 164 286.3515625 l 1
 314.888671875 286.461914062 l 6
 381.321730755 286.55901194 430.928710938 302.303193852 430.928710938 374.561523438 c 4
 430.928710938 447.721766952 381.314395578 464.521929022 314.888671875 464.545898438 c 6
 165 464.649414062 l 1
 165 601.0078125 l 1xf6
 345.888671875 601.0078125 l 2
 481.05048035 601.0078125 602.77734375 539.335495382 602.77734375 374.561523438 c 0
 602.77734375 213.240207598 480.259109269 154 345.888671875 154 c 2
 164 154 l 1
EndSplineSet
Validated: 5
EndChar

StartChar: thorn
Encoding: 254 254 181
Width: 616
Flags: W
HStem: -9.99805 129.462<241.793 375.155> 382.284 128.649<262.54 375.188> 731.002 20G<55 214>
VStem: 55 159<-210 751.002> 149.151 64.8486<56.4395 173.562> 161.151 52.8486<283.562 425.747> 420.08 162.849<167.283 335.529>
LayerCount: 2
Fore
SplineSet
214 203.561523438 m 1xf2
 214 157.717773438 243.362418564 119.463867188 312.040039062 119.463867188 c 0
 385.684996419 119.463867188 420.080078125 176.810069012 420.080078125 252.561523438 c 0
 420.080078125 326.222906202 384.71875 382.284179688 311.151367188 382.284179688 c 0
 242.395507812 382.284179688 214 332.760742188 214 273.561523438 c 1xf2
 161.151367188 283.561523438 l 1xe6
 161.151367188 425.747070312 234.634444731 510.93359375 360 510.93359375 c 0
 494.011539499 510.93359375 582.928710938 409.296356709 582.928710938 253.561523438 c 0
 582.928710938 94.0826581126 493.672973183 -9.998046875 347.040039062 -9.998046875 c 0
 222.163777925 -9.998046875 149.151367188 56.439453125 149.151367188 173.561523438 c 1xea
 214 203.561523438 l 1xf2
55 -210 m 5
 55 751.001953125 l 1
 214 751.001953125 l 1
 214 -210 l 5
 55 -210 l 5
EndSplineSet
Validated: 5
EndChar

StartChar: kgreenlandic
Encoding: 312 312 182
Width: 563
Flags: W
HStem: 0 21G<55 214 350.498 558> 211 90<119 212> 481.011 20G<55 214 346.101 542>
VStem: 55 159<0 211 301 501.002> 119 95<211 301>
LayerCount: 2
Fore
SplineSet
212 301 m 1xe8
 212 211 l 1
 119 211 l 1
 119 301 l 1
 212 301 l 1xe8
365 0 m 1
 212 211 l 1
 212 301 l 1
 361 501.010742188 l 1
 542 501.010742188 l 1
 344 263 l 1
 558 0 l 1
 365 0 l 1
55 0 m 1xf0
 55 501.001953125 l 5
 214 501.001953125 l 5
 214 0 l 1
 55 0 l 1xf0
EndSplineSet
Validated: 5
EndChar

StartChar: Eng
Encoding: 330 330 183
Width: 749
Flags: W
HStem: -209.994 137<372.435 512.755> 0 21G<55 217> 711.014 19.9941G<55 237.379 532 694>
VStem: 55 162<0 473.005> 532 162<-50.89 13.0059 189 731.014>
LayerCount: 2
Fore
SplineSet
454 -72.994140625 m 4
 508.916113281 -72.994140625 532 -47.2858151352 532 13.005859375 c 6
 532 731.013671875 l 1
 694 731.013671875 l 1
 694 9.005859375 l 6
 694 -127.419932078 636.551724138 -209.994140625 498 -209.994140625 c 4
 404.383636814 -209.994140625 357 -181.994140625 357 -181.994140625 c 5
 374 -50.994140625 l 5
 374 -50.994140625 404.91334772 -72.994140625 454 -72.994140625 c 4
55 0 m 1
 55 731.0078125 l 1
 224 731.0078125 l 1
 586.587890625 189 l 1
 555.278320312 -26.5 l 1
 217 473.004882812 l 1
 217 0 l 1
 55 0 l 1
EndSplineSet
Validated: 5
EndChar

StartChar: eng
Encoding: 331 331 184
Width: 595
Flags: W
HStem: -219.994 132<253.155 364.344> 0 21G<55 214> 379.284 131.649<262.344 421.031> 481.011 20G<55 214>
VStem: 55 159<0 501.011> 381.777 159<-71.8213 355.426>
LayerCount: 2
Fore
SplineSet
55 0 m 1xdc
 55 501.010742188 l 1
 214 501.010742188 l 1
 214 0 l 1
 55 0 l 1xdc
214 269 m 5
 159 280.561523438 l 5
 180.874026638 439.997016923 232.742126105 510.93359375 362 510.93359375 c 4
 480.06226382 510.93359375 540.77734375 442.465060932 540.77734375 299.561523438 c 6
 540.77734375 -17.994140625 l 6
 540.77734375 -139.577079014 483.03596444 -219.994140625 343.77734375 -219.994140625 c 4
 282.299209223 -219.994140625 239.77734375 -202.994140625 239.77734375 -202.994140625 c 5
 254.77734375 -76.994140625 l 5
 254.77734375 -76.994140625 277.696936974 -87.994140625 309.77734375 -87.994140625 c 4
 360.469140625 -87.994140625 381.77734375 -62.994140625 381.77734375 -4.994140625 c 6
 381.77734375 282.561523438 l 6
 381.77734375 343.832110281 357.098863291 379.284179688 299 379.284179688 c 4xec
 239.457003096 379.284179688 214 335.132296188 214 269 c 5
EndSplineSet
Validated: 5
EndChar

StartChar: OE
Encoding: 338 338 185
Width: 986
Flags: W
HStem: 0 146<643 956> 0 150.462<310.395 532.777> 292 146<557 896> 580.546 150.462<309.988 532.777> 585.008 146<643 956>
VStem: 35 173.849<249.212 480.156> 557 86<292 438>
LayerCount: 2
Fore
SplineSet
532.77734375 150.3515625 m 1x76
 532.77734375 0 l 1
 408.888671875 0 l 2
 213.319335938 0 35 97.9169921875 35 364.561523438 c 0
 35 631.206054688 212.16796875 731.0078125 408.888671875 731.0078125 c 2
 532.77734375 731.0078125 l 1
 532.77734375 580.649414062 l 1
 428.888671875 580.545898438 l 2
 302.916155279 580.411132812 208.848632812 540.163085938 208.848632812 364.561523438 c 4
 208.848632812 188.959960938 302.916155279 150.604492188 428.888671875 150.461914062 c 2
 532.77734375 150.3515625 l 1x76
EndSplineSet
Refer: 10 69 N 1 0 0 1 417 0 2
Validated: 5
EndChar

StartChar: oe
Encoding: 339 339 186
Width: 925
Flags: W
HStem: -9.99805 132.462<613.172 828.285> -9.99805 134.458<231.657 362.266> 205 97<514 749.203> 377.28 133.653<231.5 362.109> 393.284 117.649<604.1 718.284>
VStem: 35 154.849<170.469 332.737> 404.929 124.849<167.749 333.207> 514 52.8486<205 302>
LayerCount: 2
Fore
SplineSet
189.848632812 251.559570312 m 0x76
 189.848632812 174.13671875 229.151367188 124.459960938 298 124.459960938 c 0
 367.607421875 124.459960938 404.928710938 175.345703125 404.928710938 251.559570312 c 0
 404.928710938 326.950195312 366.885742188 377.280273438 298 377.280273438 c 0
 228.430664062 377.280273438 189.848632812 325.76953125 189.848632812 251.559570312 c 0x76
35 249.559570312 m 0
 35 406.504882812 130.689777746 510.93359375 287.889648438 510.93359375 c 0
 438.252147958 510.93359375 529.77734375 407.71484375 529.77734375 249.559570312 c 0
 529.77734375 92.501953125 438.252147958 -9.998046875 287.889648438 -9.998046875 c 0
 130.689777746 -9.998046875 35 91.291015625 35 249.559570312 c 0
EndSplineSet
Refer: 43 101 N 1 0 0 1 377 0 2
Validated: 5
EndChar

StartChar: longs
Encoding: 383 383 187
Width: 269
Flags: W
HStem: 0 21G<55 214> 633.011 128<230.566 354.88>
VStem: 55 159<0 616.098>
AnchorPoint: "Anchor-0" 256 752.002 basechar 0
LayerCount: 2
Fore
SplineSet
214 554.010742188 m 2
 214 0 l 1
 55 0 l 1
 55 570.010742188 l 2
 55 684.97265625 112.448108344 761.010742188 251 761.010742188 c 4
 317.207211538 761.010742188 363 743.010742188 363 743.010742188 c 1
 354 621.010742188 l 1
 354 621.010742188 326.079516602 633.010742188 287 633.010742188 c 0
 235.6044394 633.010742188 214 609.215204944 214 554.010742188 c 2
EndSplineSet
Validated: 1
EndChar

StartChar: uni018F
Encoding: 399 399 188
Width: 757
Flags: W
HStem: -9.99805 152.462<279.579 456.483> 300.123 140<205.108 605.108> 584.659 154.462<145.012 430.842>
VStem: 546.26 60.8486<300.123 440.123>
LayerCount: 2
Back
SplineSet
35 364.561523438 m 4
 35 591.206054688 163.541887394 739.12109375 389.888671875 739.12109375 c 4
 647.51940054 739.12109375 732.108398438 560.495699558 732.108398438 382.891601562 c 4
 732.108398438 321.0471279 725 289 725 289 c 5
 162 289 l 5
 160 429 l 5
 542 429 l 5
 542 429 541.312267871 586.659179688 390 586.659179688 c 4
 271.961612258 586.659179688 220.848632812 497.743164062 220.848632812 364.561523438 c 4
 220.848632812 235.577457429 279.018927416 149.463867188 447.888671875 149.463867188 c 4
 586.568237268 149.463867188 660.018554688 189.595703125 660.018554688 189.595703125 c 5
 686.827148438 30.595703125 l 5
 686.827148438 30.595703125 607.121474642 -9.998046875 425.888671875 -9.998046875 c 4
 176.581210181 -9.998046875 35 137.916992188 35 364.561523438 c 4
EndSplineSet
Fore
SplineSet
722.108398438 364.561523438 m 0
 722.108398438 137.916992187 593.566511043 -9.998046875 367.219726562 -9.998046875 c 0
 109.588997898 -9.998046875 25 168.627347317 25 346.231445312 c 0
 25 408.075918975 32.1083984375 440.123046875 32.1083984375 440.123046875 c 1
 605.108398438 440.123046875 l 1
 607.108398438 300.123046875 l 1
 205.108398438 300.123046875 l 1
 205.108398438 300.123046875 205.148239339 290.991217819 207.318359375 277.123046875 c 0
 214.621174299 233.367679107 244.54204242 142.463867188 367.108398438 142.463867188 c 0
 492.125055981 142.463867188 546.259765625 231.379882813 546.259765625 364.561523438 c 4
 546.259765625 496.543857029 485.527354893 584.659179688 309.219726562 584.659179688 c 0
 170.540161169 584.659179688 97.08984375 544.52734375 97.08984375 544.52734375 c 1
 70.28125 698.52734375 l 1
 70.28125 698.52734375 149.986923796 739.12109375 331.219726562 739.12109375 c 0
 580.527188257 739.12109375 722.108398438 591.206054687 722.108398438 364.561523438 c 0
EndSplineSet
Validated: 5
EndChar

StartChar: florin
Encoding: 402 402 190
Width: 398
Flags: W
HStem: -220.011 132<-40.247 81.5663> 373 128.011<14 382> 633.011 128<274.566 398.88>
VStem: 99 159<-71.8379 616.098>
LayerCount: 2
Fore
SplineSet
14 501.010742188 m 1
 382 501.010742188 l 1
 382 373 l 1
 14 373 l 1
 14 501.010742188 l 1
99 -5.0107421875 m 6
 99 570.010742188 l 2
 99 684.97265625 156.448108344 761.010742188 295 761.010742188 c 0
 361.207211538 761.010742188 407 743.010742188 407 743.010742188 c 1
 398 621.010742188 l 1
 398 621.010742188 370.079516602 633.010742188 331 633.010742188 c 0
 279.6044394 633.010742188 258 609.215204943 258 554.010742188 c 2
 258 -18.0107421875 l 6
 258 -139.593680576 200.25862069 -220.010742188 61 -220.010742188 c 4
 -6.3894936166 -220.010742188 -53 -198.010742188 -53 -198.010742188 c 5
 -38 -72.0107421875 l 5
 -38 -72.0107421875 -10.9132080078 -88.0107421875 27 -88.0107421875 c 4
 77.691796875 -88.0107421875 99 -63.0107421875 99 -5.0107421875 c 6
EndSplineSet
Validated: 5
EndChar

StartChar: Oslash
Encoding: 216 216 191
Width: 797
Flags: W
HStem: -9.99805 155.462<309 488.777> 583.659 155.462<309 488.777>
VStem: 35 172.849<252.959 476.164> 589.929 172.849<252.959 476.164>
AnchorPoint: "Anchor-0" 399 731 basechar 0
AnchorPoint: "Anchor-2" 398 0 basechar 0
AnchorPoint: "Anchor-3" 451 20 basechar 0
LayerCount: 2
Back
SplineSet
427 881.403320312 m 5
 839 721.403320312 l 1029
370 -171.469726562 m 1
 -42 -11.4697265625 l 1025
EndSplineSet
Fore
SplineSet
112.5 -71.4697265625 m 1
 581.5 821.403320312 l 1
 684.5 781.403320312 l 1
 215.5 -111.469726562 l 1
 112.5 -71.4697265625 l 1
EndSplineSet
Refer: 1 79 N 1 0 0 1 0 0 2
Validated: 5
EndChar

StartChar: oslash
Encoding: 248 248 192
Width: 594
Flags: W
HStem: -9.99805 134.458<232.302 363.422> 377.28 133.654<232.145 363.265>
VStem: 35 155.849<167.273 332.737> 403.929 155.849<167.749 333.207>
AnchorPoint: "Anchor-3" 360 28 basechar 0
AnchorPoint: "Anchor-2" 297 0 basechar 0
AnchorPoint: "Anchor-0" 297 501.011 basechar 0
LayerCount: 2
Back
SplineSet
327.5 -161.469726562 m 1
 -84.5 -1.4697265625 l 1025
266.5 671.403320312 m 1
 678.5 511.403320312 l 1025
EndSplineSet
Fore
SplineSet
78 -64.4697265625 m 1
 429 608.403320312 l 1
 516 574.403320312 l 1
 165 -98.4697265625 l 1
 78 -64.4697265625 l 1
EndSplineSet
Refer: 29 111 N 1 0 0 1 0 0 2
Validated: 5
EndChar

StartChar: ring
Encoding: 730 730 195
Width: 355
Flags: W
HStem: 480.07 91.8965<139.648 215.259> 668.918 92.084<139.182 217.662>
VStem: 30 102.953<577.241 663.667> 222.824 102.953<577.241 663.667>
LayerCount: 2
Fore
SplineSet
132.953125 622.396484375 m 4
 132.953125 592.156361807 146.144002333 571.966796875 176.99609375 571.966796875 c 4
 209.098880896 571.966796875 222.82421875 592.156361807 222.82421875 622.396484375 c 4
 222.82421875 650.293253547 209.128609441 668.91796875 177.094726562 668.91796875 c 4
 146.173730262 668.91796875 132.953125 650.293253547 132.953125 622.396484375 c 4
30 622.629882812 m 0
 30 706.358572334 85.5795398627 761.001953125 176.888671875 761.001953125 c 0
 269.440983255 761.001953125 325.77734375 706.358572334 325.77734375 622.629882812 c 0
 325.77734375 536.367848721 269.440983255 480.0703125 176.888671875 480.0703125 c 0
 85.5795398627 480.0703125 30 536.367848721 30 622.629882812 c 0
EndSplineSet
Validated: 1
EndChar

StartChar: ogonek
Encoding: 731 731 196
Width: 298
VWidth: 999
Flags: W
HStem: -235 92<153.293 256.183>
VStem: 30 115<-135.571 -30.7405>
LayerCount: 2
Fore
SplineSet
30 -110 m 4
 30 -22.2945554688 109 39 109 39 c 1
 219 39 l 1
 219 39 145 -20.0509554139 145 -88 c 4
 145 -127.542211416 164.570103236 -143 199 -143 c 4
 233.495523346 -143 253 -129 253 -129 c 5
 268 -212 l 5
 268 -212 235.426287616 -235 170 -235 c 4
 83.7928638838 -235 30 -190.528428819 30 -110 c 4
EndSplineSet
Validated: 1
EndChar

StartChar: minute
Encoding: 8242 8242 197
Width: 265
Flags: W
HStem: 452 279.008<101 124>
VStem: 1 263
LayerCount: 2
Fore
SplineSet
1 452 m 5
 101 731.0078125 l 1
 264 731.0078125 l 1
 124 452 l 5
 1 452 l 5
EndSplineSet
Validated: 1
EndChar

StartChar: bullet
Encoding: 8226 8226 200
Width: 325
Flags: W
HStem: 230 266.449<85.3476 239.878>
VStem: 30 265.227<285.603 440.846>
LayerCount: 2
Fore
SplineSet
30 363.224609375 m 0
 30 443.933641339 82.2730339411 496.44921875 162.612304688 496.44921875 c 0
 242.95246273 496.44921875 295.2265625 443.933641339 295.2265625 363.224609375 c 0
 295.2265625 282.514181833 242.95246273 230 162.612304688 230 c 4
 82.2730339411 230 30 282.514181833 30 363.224609375 c 0
EndSplineSet
Validated: 1
EndChar

StartChar: dagger
Encoding: 8224 8224 201
Width: 530
Flags: W
HStem: 360.011 141<30 500>
VStem: 174.5 181<-171.47 -10.6125> 200.5 129<265.874 523.262>
LayerCount: 2
Fore
SplineSet
174.5 -171.469726562 m 1xc0
 200.5 427 l 1
 176.5 759.469726562 l 1
 353.5 759.469726562 l 1
 329.5 426 l 1xa0
 355.5 -171.469726562 l 1
 174.5 -171.469726562 l 1xc0
30 360.010742188 m 1
 30 501.010742188 l 1
 500 501.010742188 l 1
 500 360.010742188 l 1
 30 360.010742188 l 1
EndSplineSet
Validated: 5
EndChar

StartChar: daggerdbl
Encoding: 8225 8225 202
Width: 530
Flags: W
HStem: 60.0107 141<30 500> 400.011 141<30 500>
LayerCount: 2
Fore
SplineSet
30 60.0107421875 m 5
 30 201.010742188 l 5
 500 201.010742188 l 5
 500 60.0107421875 l 5
 30 60.0107421875 l 5
176.5 -171.469726562 m 1
 200.5 127 l 5
 180.5 307 l 5
 200.5 467 l 5
 176.5 759.469726562 l 1
 353.5 759.469726562 l 1
 329.5 466 l 5
 349.5 308 l 5
 329.5 126 l 5
 353.5 -171.469726562 l 1
 176.5 -171.469726562 l 1
30 400.010742188 m 5
 30 541.010742188 l 5
 500 541.010742188 l 5
 500 400.010742188 l 5
 30 400.010742188 l 5
EndSplineSet
EndChar

StartChar: uni2116
Encoding: 8470 8470 203
Width: 1166
Flags: W
HStem: 0 21G<55 217 511.977 694> 232 99<766 1120> 378.061 104.526<900.923 994.063> 633.278 105.714<900.438 994.593> 711.008 20G<55 237.379 532 694>
VStem: 55 162<0 473.005> 532 162<270.6 731.008> 764.111 119.412<498.692 617.397> 1012.48 119.412<500.9 617.397>
LayerCount: 2
Fore
SplineSet
766 331 m 5xe780
 1120 331 l 5
 1120 232 l 5
 766 232 l 5
 766 331 l 5xe780
883.5234375 559.844726562 m 0
 883.5234375 513.517139876 906.603349797 482.586914062 946.897460938 482.586914062 c 0
 988.740008495 482.586914062 1012.4765625 513.517139876 1012.4765625 559.844726562 c 0
 1012.4765625 603.879435297 988.776941337 633.278320312 947.020507812 633.278320312 c 0xf780
 906.640269775 633.278320312 883.5234375 603.879435297 883.5234375 559.844726562 c 0
764.111328125 560.620117188 m 0
 764.111328125 668.552734375 833.3125 738.9921875 947 738.9921875 c 0
 1061.93066406 738.9921875 1131.88867188 668.552734375 1131.88867188 560.620117188 c 0
 1131.88867188 450.154296875 1061.93066406 378.060546875 947 378.060546875 c 0
 833.3125 378.060546875 764.111328125 450.154296875 764.111328125 560.620117188 c 0
EndSplineSet
Refer: 11 78 N 1 0 0 1 0 0 2
Validated: 1
EndChar

StartChar: uni20BF
Encoding: 8383 8383 204
Width: 648
Flags: W
HStem: -125 194.47<125 264 345 484> 0 139.46<226 413.719> 304.656 132.695<164 391.766> 592.649 138.358<226 388.181> 655 194.47<125 264 345 484>
VStem: 125 139<-125 69.4697 655 849.47> 164 62<304.656 437.352> 345 139<-125 69.4697 655 849.47> 413.929 174.849<459.772 569.642> 437.929 179.849<165.243 279.52>
LayerCount: 2
Fore
SplineSet
345 -125 m 5xa1
 345 69.4697265625 l 1
 484 69.4697265625 l 1
 484 -125 l 5
 345 -125 l 5xa1
345 655 m 1x29
 345 849.469726562 l 1
 484 849.469726562 l 1
 484 655 l 1
 345 655 l 1x29
125 -125 m 5xa4
 125 69.4697265625 l 1
 264 69.4697265625 l 1
 264 -125 l 5
 125 -125 l 5xa4
125 655 m 1x2c
 125 849.469726562 l 1
 264 849.469726562 l 1
 264 655 l 1
 125 655 l 1x2c
EndSplineSet
Refer: 19 66 N 1 0 0 1 0 0 2
EndChar

StartChar: uni20A6
Encoding: 8358 8358 205
Width: 874
Flags: W
HStem: 0 21G<141 300 558.82 740> 259 86<30 224 650 844> 389 86<30 224 650 844> 711.008 20G<141 322.534 581 740>
VStem: 141 159<0 259 345 389> 141 83<259 345 389 475> 581 159<345 389 475 731.008> 650 90<259 345 389 475>
LayerCount: 2
Fore
SplineSet
844 259 m 1xf1
 650 259 l 5
 650 345 l 5
 844 345 l 1
 844 259 l 1xf1
844 389 m 1
 650 389 l 5
 650 475 l 5
 844 475 l 1
 844 389 l 1
224 259 m 1xf4
 30 259 l 1
 30 345 l 1
 224 345 l 1
 224 259 l 1xf4
224 389 m 1
 30 389 l 1
 30 475 l 1
 224 475 l 1
 224 389 l 1
141 0 m 1xf9
 141 731.0078125 l 1
 310 731.0078125 l 1
 581 298.599609375 l 5
 581 731.0078125 l 5
 740 731.0078125 l 5xf6
 740 0 l 5
 571 0 l 5
 300 445.004882812 l 1
 300 0 l 1
 141 0 l 1xf9
EndSplineSet
Validated: 5
EndChar

StartChar: uni20BD
Encoding: 8381 8381 206
Width: 711
Flags: W
HStem: 0 21G<131 302> 152.352 86<30 544> 282.352 124<30 462.772> 584.649 146.358<302 466.698>
VStem: 131 171<0 584.649> 496.929 179.849<437.399 553.213>
LayerCount: 2
Fore
SplineSet
544 152.3515625 m 1
 30 152.3515625 l 1
 30 238.3515625 l 1
 544 238.3515625 l 1
 544 152.3515625 l 1
30 282.3515625 m 1
 30 406.3515625 l 1
 367.888671875 406.461914062 l 2
 441.764085644 406.483531624 496.928710938 422.302734375 496.928710938 494.561523438 c 0
 496.928710938 567.721679688 444.764014412 584.425121999 367.888671875 584.545898438 c 2
 302 584.649414062 l 1
 302 0 l 1
 131 0 l 1
 131 731.0078125 l 1
 384.888671875 731.0078125 l 2
 572.649010554 731.0078125 676.77734375 663.232736618 676.77734375 501.561523438 c 4
 676.77734375 359.765766949 586.544512123 282.3515625 396 282.3515625 c 2
 30 282.3515625 l 1
EndSplineSet
Validated: 5
EndChar

StartChar: dong
Encoding: 8363 8363 207
Width: 624
Flags: W
HStem: 0 96<50 564> 150.002 109.649<233.758 336.442> 466.472 109.462<233.866 349.416> 606 81<284 594> 731.002 20G<376 535>
VStem: 51.0713 153.849<290.671 435.498> 376 159<343.374 751.002> 376 54.8486<395.374 500.817>
LayerCount: 2
Fore
SplineSet
564 0 m 1xfc
 50 0 l 1
 50 96 l 1
 564 96 l 1
 564 0 l 1xfc
594 606 m 5
 284 606 l 5
 284 687 l 5
 594 687 l 5
 594 606 l 5
535 160 m 1xfe
 376 160 l 1xfd
 376 751.001953125 l 1
 535 751.001953125 l 1
 535 160 l 1xfe
376 393.374023438 m 1xfe
 376 428.986974858 354.917164125 466.471679688 294.959960938 466.471679688 c 0
 235.350509278 466.471679688 204.919921875 425.597909652 204.919921875 364.374023438 c 0
 204.919921875 301.576554788 233.964270992 259.651367188 290.848632812 259.651367188 c 0
 353.842605212 259.651367188 376 293.169760717 376 343.374023438 c 1xfe
 425.848632812 355.374023438 l 1
 425.848632812 232.854210738 364.323495611 150.001953125 246 150.001953125 c 0
 112.622025054 150.001953125 51.0712890625 240.203558201 51.0712890625 363.374023438 c 0
 51.0712890625 487.910536752 122.315021754 575.93359375 252 575.93359375 c 0
 376.962104464 575.93359375 430.848632812 500.816564308 430.848632812 395.374023438 c 1xfd
 376 393.374023438 l 1xfe
EndSplineSet
Validated: 5
EndChar

StartChar: uni1E9E
Encoding: 7838 7838 214
Width: 756
Flags: W
HStem: -10 143.124<335.118 517.986> 0 21G<55 226> 586.008 145<270.996 452>
VStem: 55 171<0 543.343> 555 175<166.229 290.921>
LayerCount: 2
Fore
SplineSet
55 478 m 2x78
 55 646.460473782 141.168784243 731.0078125 329 731.0078125 c 2
 672 731.0078125 l 1
 672 649.0078125 l 1
 519 444 l 1
 592.991379149 444 730 407.874856222 730 229 c 0
 730 67.5701754386 632.463414634 -10 472 -10 c 0
 347.53696903 -10 293 24 293 24 c 1
 323 161 l 1
 323 161 367.62463384 133.124023438 442.015625 133.124023438 c 0xb8
 510.827106123 133.124023438 555 164.334960937 555 229 c 0
 555 293.237304688 514.687923177 323 439 323 c 2
 335 323 l 1
 335 409 l 1
 452 586.0078125 l 1
 357 586.0078125 l 6
 257.396694215 586.0078125 226 543.699944196 226 445.0078125 c 2
 226 0 l 1
 55 0 l 1
 55 478 l 2x78
EndSplineSet
EndChar

StartChar: germandbls
Encoding: 223 223 215
Width: 682
Flags: W
HStem: -9.99805 130.391<289.011 450.986> 0 21G<55 219> 317.048 125.048<304.559 380.776> 620.137 140.865<250.935 382.937>
VStem: 55 164<0 589.637> 409.911 167.246<469.983 592.061> 481.069 167.438<151.64 281.404>
LayerCount: 2
Back
SplineSet
457.846679688 191.568359375 m 4xbc
 327.156961398 222.213047384 291.204101562 272.691036244 291.204101562 353 c 4
 291.204101562 451.381835938 363.300193902 510.93359375 467 510.93359375 c 4
 495.118698584 510.93359375 502 510 502 510 c 5
 499.580184243 585.181528279 462.419597791 626.010742188 370 626.010742188 c 4
 260.405063291 626.010742188 214 572.544514974 214 467.010742188 c 6
 214 0 l 5
 55 0 l 5x7c
 55 480.010742188 l 6
 55 651.613415948 132.741210938 761.010742188 361 761.010742188 c 4
 617.441436816 761.010742188 663.618164062 635.171240392 663.618164062 495 c 4
 663.618164062 419.408181374 638.294921875 360.444335938 638.294921875 360.444335938 c 5
 638.294921875 360.444335938 589.566874959 385.904296875 517.743164062 385.904296875 c 4
 470.50556408 385.904296875 449.26171875 373.125571458 449.26171875 352.518554688 c 4
 449.26171875 333.075696904 462.731985529 321.307052539 508.037109375 310.086914062 c 4
 650.856678317 274.716624685 690.689453125 229.253235246 690.689453125 145.40234375 c 4
 690.689453125 49.630859375 616.24162831 -9.998046875 476.856445312 -9.998046875 c 4
 356.983726418 -9.998046875 281 26.5625 281 26.5625 c 5
 314.314453125 148.861328125 l 5
 314.314453125 148.861328125 379.308836011 114.981445312 458.993164062 114.981445312 c 4
 509.482893687 114.981445312 533.520507812 127.008427649 533.520507812 150.336914062 c 4
 533.520507812 169.236100993 519.983660149 176.99821258 457.846679688 191.568359375 c 4xbc
EndSplineSet
Fore
SplineSet
304.55859375 442.095703125 m 1xba
 315.55859375 442.095703125 l 2
 380.190017933 442.095703125 409.911132812 483.330403252 409.911132812 531 c 4
 409.911132812 593.060454541 371.472907667 620.13671875 316.111328125 620.13671875 c 0
 264.945240288 620.13671875 219 601.366329174 219 507.754882812 c 2
 219 0 l 1
 55 0 l 1
 55 524.754882812 l 2
 55 692.233419082 169.029861629 761.001953125 322.111328125 761.001953125 c 0
 470.64890707 761.001953125 577.157226562 686.41855883 577.157226562 553.823242188 c 0x7c
 577.157226562 428.659201167 485.424804688 400.743164062 485.424804688 400.743164062 c 1
 485.424804688 400.743164062 648.506835938 396.401147994 648.506835938 204.400390625 c 0
 648.506835938 57.738087803 548.316744528 -9.998046875 413 -9.998046875 c 0
 330.259920725 -9.998046875 270.838867188 15.298828125 270.838867188 15.298828125 c 1
 292.38671875 138.328125 l 1
 292.38671875 138.328125 332.851665399 120.392578125 379.799804688 120.392578125 c 0
 445.814701888 120.392578125 481.069335938 154.443438493 481.069335938 218 c 0
 481.069335938 295.455252802 419.170202925 317.047851562 354.55859375 317.047851562 c 2
 304.55859375 317.047851562 l 1
 304.55859375 442.095703125 l 1xba
EndSplineSet
Validated: 1
EndChar

StartChar: uni2113
Encoding: 8467 8467 216
Width: 614
Flags: W
HStem: -10 141.13<303.196 490.694> 628.872 132.13<316.843 401.789>
VStem: 410.644 157.496<497.709 621.384>
LayerCount: 2
Fore
SplineSet
83 310.099609375 m 0
 83 606.979916429 181.647594244 761.001953125 367.400390625 761.001953125 c 0
 511.293372505 761.001953125 568.139648438 666.680144145 568.139648438 578.70703125 c 0
 568.139648438 232.065150067 28 172 28 172 c 1
 5 291 l 1
 5 291 410.643554688 358.186983872 410.643554688 576.001953125 c 0
 410.643554688 609.231477531 394.821497654 628.872070312 364.400390625 628.872070312 c 0
 285.351247913 628.872070312 252.229492188 505.691536344 252.229492188 325.875 c 0
 252.229492188 199.442243254 273.977556903 131.129882812 384 131.129882812 c 0
 466.722527242 131.129882812 523.958007812 169.424804688 523.958007812 169.424804688 c 1
 552 34 l 5
 552 34 492.31411824 -10 360.400390625 -10 c 0
 181.213069838 -10 83 95.4008057691 83 310.099609375 c 0
EndSplineSet
Validated: 5
EndChar

StartChar: uni20B8
Encoding: 8376 8376 217
Width: 614
Flags: W
HStem: 0 21G<224.5 389.5> 372 139<30 224.5 389.5 584> 372 109<224.5 389.5> 592 139<30 584>
VStem: 224.5 165<0 481>
LayerCount: 2
Fore
SplineSet
584 592 m 1x98
 30 592 l 1
 30 731 l 1
 584 731 l 1
 584 592 l 1x98
584 372 m 1xd8
 30 372 l 1
 30 511 l 1
 584 511 l 1
 584 372 l 1xd8
224.5 0 m 1
 224.5 481 l 1
 389.5 481 l 5xb8
 389.5 0 l 5
 224.5 0 l 1
EndSplineSet
Validated: 5
EndChar

StartChar: uni20BC
Encoding: 8380 8380 218
Width: 899
Flags: W
HStem: 0 21G<55 224 365 534 671.777 840.777> 434.544 146.462<333.124 562.653> 711.008 20G<365 534>
VStem: 55 169<0 323.168> 365 169<0 731.008> 671.777 169<0 323.168>
LayerCount: 2
Fore
SplineSet
447.888671875 581.005859375 m 4
 741.301739336 581.005859375 840.77734375 426.771896132 840.77734375 190.446289062 c 2
 840.77734375 0 l 1
 671.77734375 0 l 1
 671.77734375 181.446289062 l 2
 671.77734375 333.216749667 629.361312608 434.543945312 447.888671875 434.543945312 c 4
 266.416031142 434.543945312 224 333.216749667 224 181.446289062 c 2
 224 0 l 1
 55 0 l 1
 55 190.446289062 l 2
 55 426.771896132 154.475604414 581.005859375 447.888671875 581.005859375 c 4
365 0 m 5
 365 731.0078125 l 5
 534 731.0078125 l 5
 534 0 l 5
 365 0 l 5
EndSplineSet
Validated: 5
EndChar

StartChar: Ohorn
Encoding: 416 416 219
Width: 797
Flags: W
HStem: -9.99805 155.462<309 488.777> 583.659 155.462<309 488.777>
VStem: 35 172.849<252.959 476.164> 583 156.76<676.364 825.984> 589.929 172.849<252.959 476.164>
AnchorPoint: "Anchor-0" 359 731 basechar 0
AnchorPoint: "Anchor-2" 398 0 basechar 0
AnchorPoint: "Anchor-3" 471 20 basechar 0
LayerCount: 2
Fore
SplineSet
572.919921875 826.0078125 m 5xf0
 727.599609375 826.0078125 l 5
 727.599609375 826.0078125 739.759765625 795.408203125 739.759765625 750 c 4
 739.759765625 645.208007812 657.439453125 592.84765625 657.439453125 592.84765625 c 5
 538 641.568359375 l 5
 538 641.568359375 583 688.208007812 583 755 c 4
 583 790.758789062 572.919921875 826.0078125 572.919921875 826.0078125 c 5xf0
EndSplineSet
Refer: 1 79 N 1 0 0 1 0 0 2
EndChar

StartChar: Uhorn
Encoding: 431 431 221
Width: 783
Flags: W
HStem: -9.99805 148.462<277.808 437.969> 711.008 20G<55 224 491.777 660.777>
VStem: 55 169<198.421 731.008> 491.777 169<198.421 731.008> 607 146<737.63 825.785>
AnchorPoint: "Anchor-0" 342 731 basechar 0
AnchorPoint: "Anchor-2" 358 0.0117188 basechar 0
AnchorPoint: "Anchor-3" 451 18 basechar 0
LayerCount: 2
Fore
SplineSet
593.080078125 825.799804688 m 1xe8
 737.759765625 825.799804688 l 1
 737.759765625 825.799804688 753 808 753 760 c 0
 753 690 699 641 628 641 c 5
 534 731.0078125 l 1
 568 731.0078125 607 732.480474404 607 770 c 0
 607 804 593.080078125 825.799804688 593.080078125 825.799804688 c 1xe8
EndSplineSet
Refer: 6 85 N 1 0 0 1 0 0 2
EndChar

StartChar: uhorn
Encoding: 432 432 222
Width: 660
Flags: W
HStem: -9.92285 131.649<174.746 334.454> 0 21G<381.777 540.777> 481.011 20G<55 214 381.777 540.777>
VStem: 55 159<149.812 501.011> 381.777 159<210.449 501.011> 490 140<508.596 608.983>
AnchorPoint: "Anchor-0" 272 501.011 basechar 0
AnchorPoint: "Anchor-2" 302 0.0117188 basechar 0
AnchorPoint: "Anchor-3" 454 0 basechar 0
LayerCount: 2
Fore
SplineSet
468 609 m 1x34
 612.6796875 609 l 1
 612.6796875 609 630 584.756835938 630 537.002929688 c 0
 630 473.706054688 582 431.002929688 511 431.002929688 c 1
 417 501.010742188 l 1
 451 501.010742188 490 502.67223835 490 545.002929688 c 0
 490 588.140961505 468 609 468 609 c 1x34
EndSplineSet
Refer: 50 117 N 1 0 0 1 0 0 2
EndChar

StartChar: integral
Encoding: 8747 8747 223
Width: 416
Flags: W
HStem: -220.011 139<-46.9776 71.1047> 630.011 131<300.829 422.009>
LayerCount: 2
Fore
SplineSet
89 1.9892578125 m 2
 125 570.010742188 l 2
 132.351913347 686.011984751 182.741210938 761.010742188 322 761.010742188 c 0
 385.842668269 761.010742188 430 745.010742188 430 745.010742188 c 1
 421 619.010742188 l 1
 421 619.010742188 394.746411133 630.010742188 358 630.010742188 c 0
 305.900390625 630.010742188 287.343925682 609.586680466 284 557.010742188 c 2
 248 -9.0107421875 l 2
 239.863280643 -136.942907978 190.25862069 -220.010742188 51 -220.010742188 c 0
 -13.433814072 -220.010742188 -58 -204.010742188 -58 -204.010742188 c 1
 -46 -70.0107421875 l 1
 -46 -70.0107421875 -20.580087515 -81.0107421875 15 -81.0107421875 c 0
 67.0999023437 -81.0107421875 85.2284022672 -57.5204239281 89 1.9892578125 c 2
EndSplineSet
Validated: 1
EndChar

StartChar: dotlessi
Encoding: 305 305 225
Width: 269
Flags: W
HStem: 0 21G<55 214> 481.011 20G<55 214>
VStem: 55 159<0 501.011>
AnchorPoint: "Anchor-2" 137 0 basechar 0
AnchorPoint: "Anchor-3" 141 0 basechar 0
AnchorPoint: "Anchor-0" 134 501.011 basechar 0
LayerCount: 2
Fore
SplineSet
55 0 m 5
 55 501.010742188 l 5
 214 501.010742188 l 5
 214 0 l 5
 55 0 l 5
EndSplineSet
Validated: 1
EndChar

StartChar: uni0237
Encoding: 567 567 226
Width: 269
Flags: W
HStem: -220 132<-73.6224 37.5663> 481.011 20G<55 214>
VStem: 55 159<-71.8272 501.011>
AnchorPoint: "Anchor-2" 17 -209.988 basechar 0
AnchorPoint: "Anchor-0" 134 501.011 basechar 0
LayerCount: 2
Fore
SplineSet
55 -5 m 6
 55 501.010742188 l 1
 214 501.010742188 l 1
 214 -18 l 6
 214 -139.582938389 156.25862069 -220 17 -220 c 4
 -44.4781345274 -220 -87 -203 -87 -203 c 5
 -72 -77 l 5
 -72 -77 -49.0804067758 -88 -17 -88 c 4
 33.691796875 -88 55 -63 55 -5 c 6
EndSplineSet
Validated: 1
EndChar

StartChar: uni20B3
Encoding: 8371 8371 227
Width: 824
Flags: W
HStem: 0 21G<67.5 252.964 571.481 756.5> 139 86<30 794> 269 86<60 764> 711.008 20G<320.387 513.34>
LayerCount: 2
Fore
SplineSet
506.5 731.0078125 m 1
 756.5 0 l 1
 577.5 0 l 1
 417.893554688 530.313476562 l 1
 246.5 0 l 1
 67.5 0 l 1
 327.5 731.0078125 l 1
 506.5 731.0078125 l 1
764 269 m 1
 60 269 l 1
 60 355 l 1
 764 355 l 1
 764 269 l 1
794 139 m 1
 30 139 l 1
 30 225 l 1
 794 225 l 1
 794 139 l 1
EndSplineSet
Validated: 5
EndChar

StartChar: hookabovecomb
Encoding: 777 777 228
Width: 0
Flags: W
HStem: 468 114.049<46.9332 147.308> 647.229 91.7637<17.7829 151.419>
VStem: 45.1816 103.956<468 518.653> 155.854 116.774<587.365 641.57>
AnchorPoint: "Anchor-0" 111 427 mark 0
LayerCount: 2
Fore
SplineSet
147.645507812 518.653320312 m 1
 149.137695312 468 l 1
 45.181640625 468 l 1
 46.9150390625 586.46875 l 1
 46.9150390625 586.46875 71.8505859375 582.048828125 103.157226562 582.048828125 c 0
 138.800002844 582.048828125 155.854492188 592.904726453 155.854492188 613.145507812 c 0
 155.854492188 636.783203125 133.07611733 647.228515625 99.6533203125 647.228515625 c 0
 53.150390625 647.228515625 22.6826171875 627.958007812 22.6826171875 627.958007812 c 1
 0 715.311523438 l 1
 0 715.311523438 41.0869140625 738.9921875 111.653320312 738.9921875 c 0
 205.994869734 738.9921875 272.62890625 702.759765625 272.62890625 614.010742188 c 0
 272.62890625 548.908203125 223.591191599 517.59375 168.758789062 517.59375 c 0
 154.967538085 517.59375 147.645507812 518.653320312 147.645507812 518.653320312 c 1
EndSplineSet
Validated: 1
EndChar

StartChar: uni20B1
Encoding: 8369 8369 229
Width: 814
Flags: W
HStem: 0 21G<139 310> 224 142.352<248 477.417> 339 86<30 234 580 784> 469 86<30 234 580 784> 584.649 146.358<310 475.343>
VStem: 30 204<339 425 469 555> 139 171<0 224 366.352 584.649> 248 62<224 366.352> 520.929 178.849<405.758 543.013> 580 204<339 425 469 555>
LayerCount: 2
Fore
SplineSet
784 339 m 1xb840
 580 339 l 1
 580 425 l 1
 784 425 l 1
 784 339 l 1xb840
784 469 m 1
 580 469 l 1
 580 555 l 1
 784 555 l 1
 784 469 l 1
234 339 m 1xbc
 30 339 l 1
 30 425 l 1
 234 425 l 1
 234 339 l 1xbc
234 469 m 1
 30 469 l 1
 30 555 l 1
 234 555 l 1
 234 469 l 1
EndSplineSet
Refer: 15 80 S 1 0 0 1 84 0 2
Validated: 5
EndChar

StartChar: uni20A9
Encoding: 8361 8361 230
Width: 1094
Flags: W
HStem: 0 21G<252.15 459.807 629.996 836.014> 259 86<50 254 840 1044> 389 86<30 254 840 1064> 711.008 20G<97.5 276.129 817.801 996.5>
LayerCount: 2
Fore
SplineSet
1044 259 m 1
 840 259 l 1
 840 345 l 1
 1044 345 l 1
 1044 259 l 1
1064 389 m 1
 840 389 l 1
 840 475 l 1
 1064 475 l 1
 1064 389 l 1
254 259 m 1
 50 259 l 1
 50 345 l 1
 254 345 l 1
 254 259 l 1
254 389 m 1
 30 389 l 1
 30 475 l 1
 254 475 l 1
 254 389 l 1
256.5 0 m 1
 97.5 731.0078125 l 1
 272.5 731.0078125 l 1
 365.106445312 220.694335938 l 1
 467.5 681.0078125 l 1
 626.5 681.0078125 l 1
 727.106445312 220.694335938 l 1
 821.5 731.0078125 l 1
 996.5 731.0078125 l 1
 831.5 0 l 1
 634.5 0 l 1
 543 406.271484375 l 1
 455.5 0 l 1
 256.5 0 l 1
EndSplineSet
Validated: 5
EndChar

StartChar: franc
Encoding: 8355 8355 231
Width: 584
Flags: W
HStem: 0 21G<95 266> 108 114<30 412> 305 146<160 501> 585.008 146<266 554>
VStem: 95 171<0 305 451 585.008> 160 106<305 451>
LayerCount: 2
Fore
SplineSet
501 305 m 1xf4
 160 305 l 1
 160 451 l 1
 501 451 l 1
 501 305 l 1xf4
266 585.0078125 m 1xf8
 266 0 l 1
 95 0 l 1
 95 731.0078125 l 1
 554 731.0078125 l 1
 554 585.0078125 l 1
 266 585.0078125 l 1xf8
412 108 m 5
 30 108 l 1
 30 222 l 1
 412 222 l 5
 412 108 l 5
EndSplineSet
Validated: 5
EndChar

StartChar: peseta
Encoding: 8359 8359 232
Width: 814
Flags: W
HStem: 0 21G<131 302> 224 142.352<240 469.417> 429 86<30 784> 584.649 146.358<302 467.343>
VStem: 131 171<0 224 366.352 584.649> 240 62<224 366.352> 512.929 178.849<405.758 543.013>
LayerCount: 2
Fore
SplineSet
784 429 m 1xf2
 609 429 l 1
 565 429 l 1
 245 429 l 1
 189 429 l 1
 30 429 l 1
 30 515 l 1
 191 515 l 1
 247 515 l 1
 563 515 l 1
 607 515 l 1
 784 515 l 1
 784 429 l 1xf2
EndSplineSet
Refer: 15 80 N 1 0 0 1 76 0 2
Validated: 5
EndChar

StartChar: uni20BE
Encoding: 8382 8382 233
Width: 785
Flags: W
HStem: 0 146<459 754> 68.002 77.998<185.25 419.889> 719.121 20G<297.802 518.104>
VStem: 52 174.849<269.623 497.426> 306 86<388 812> 436 86<388 812> 595.355 166.326<410.892 504.536>
LayerCount: 2
Fore
SplineSet
522 812 m 1x3e
 522 388 l 1
 436 388 l 1
 436 812 l 1
 522 812 l 1x3e
392 812 m 1
 392 388 l 1
 306 388 l 1
 306 812 l 1
 392 812 l 1
754 0 m 1xbe
 30 0 l 1xbe
 30 146 l 1x7e
 754 146 l 1
 754 0 l 1xbe
419.888671875 68.001953125 m 1x7e
 185.250216871 68.001953125 52 196.186907544 52 399 c 4
 52 602.248675942 182.714798987 739.12109375 412.888671875 739.12109375 c 0
 623.319944539 739.12109375 761.681640625 626.973940289 761.681640625 410.891601562 c 1
 595.35546875 403.138671875 l 1
 595.35546875 524.619467034 542.748011376 586.659179688 419.888671875 586.659179688 c 0
 284.663085938 586.659179688 226.848632812 508.953269549 226.848632812 392.561523438 c 0
 226.848632812 244.710507746 296.377464136 146 459 146 c 1xbe
 419.888671875 68.001953125 l 1x7e
EndSplineSet
Validated: 5
EndChar

StartChar: uni030F
Encoding: 783 783 245
Width: 0
Flags: W
HStem: 526 215.008
AnchorPoint: "Anchor-0" 255 480 mark 0
LayerCount: 2
Fore
SplineSet
120 526 m 5
 -20 711.0078125 l 1
 126 741.0078125 l 1
 220 546 l 5
 120 526 l 5
310 526 m 5
 170 711.0078125 l 1
 316 741.0078125 l 1
 410 546 l 5
 310 526 l 5
EndSplineSet
Validated: 1
EndChar

StartChar: uni0326
Encoding: 806 806 248
Width: 0
Flags: W
HStem: -160 160.449<23.3601 81.1133>
VStem: 0 165.227<-137.599 -25.1891>
AnchorPoint: "Anchor-2" 82 48 mark 0
LayerCount: 2
Fore
SplineSet
0 -83.232421875 m 0
 0 -32.537109375 31.8203125 0.44921875 80.7255859375 0.44921875 c 0
 131.91796875 0.44921875 165.2265625 -32.5345159149 165.2265625 -92.232421875 c 0
 165.2265625 -210.271046836 55 -252 55 -252 c 1
 15 -202 l 1
 15 -202 59.6943492889 -188.838717639 81.11328125 -160 c 5
 27.9337249451 -158.144984308 0 -126.69033101 0 -83.232421875 c 0
EndSplineSet
Validated: 1
EndChar

StartChar: uni031B
Encoding: 795 795 252
Width: 0
Flags: W
HStem: 497.848 233.16
VStem: 45 136.76<581.364 730.984>
LayerCount: 2
Fore
SplineSet
34.919921875 731.0078125 m 1
 169.599609375 731.0078125 l 1
 169.599609375 731.0078125 181.759765625 700.408203124 181.759765625 655 c 4
 181.759765625 550.208007812 99.439453125 497.84765625 99.439453125 497.84765625 c 1
 0 546.568359375 l 1
 0 546.568359375 45 593.208007812 45 660 c 0
 45 695.758789062 34.919921875 731.0078125 34.919921875 731.0078125 c 1
EndSplineSet
EndChar

StartChar: dcaron
Encoding: 271 271 253
Width: 763
Flags: W
HStem: -9.99805 128.649<242.944 354.72> 0 21G<403 562> 381.472 129.462<244.13 362.247> 731 20G<635.343 788> 731.002 20G<403 562>
VStem: 38.0713 162.849<163.887 333.314> 403 42.8486<75.1885 217.374 317.374 434.496> 403 159<217.374 751.002>
LayerCount: 2
Fore
SplineSet
641 751 m 25x34
 788 751 l 25
 693 553 l 25
 585 553 l 25
 641 751 l 25x34
EndSplineSet
Refer: 44 100 N 1 0 0 1 0 0 2
EndChar

StartChar: tcaron
Encoding: 357 357 254
Width: 463
Flags: W
HStem: -10 132<266.058 369.041> 373 128.011<14 372> 731 20G<345.343 498>
VStem: 95 159<132.728 646.011>
LayerCount: 2
Fore
SplineSet
351 751 m 25
 498 751 l 25
 403 553 l 25
 295 553 l 25
 351 751 l 25
EndSplineSet
Refer: 41 116 N 1 0 0 1 0 0 2
Validated: 5
EndChar

StartChar: dcroat
Encoding: 273 273 256
Width: 622
Flags: W
HStem: -9.99805 128.649<242.944 354.72> 0 21G<403 562> 381.472 129.462<244.13 362.247> 550 121<288 622> 731.002 20G<403 562>
VStem: 38.0713 162.849<163.887 333.314> 403 42.8486<75.1885 217.374 317.374 434.496> 403 159<217.374 751.002>
LayerCount: 2
Fore
SplineSet
622 550 m 1x3c
 288 550 l 1
 288 671 l 1
 622 671 l 1
 622 550 l 1x3c
EndSplineSet
Refer: 44 100 N 1 0 0 1 0 0 2
EndChar

StartChar: Tbar
Encoding: 358 358 257
Width: 614
Flags: W
HStem: 0 21G<221.5 392.5> 245 136<95 519> 585 116<221.5 392.5> 585 146<30 221.5 392.5 584>
VStem: 221.5 171<0 701>
LayerCount: 2
Fore
SplineSet
519 245 m 1xc8
 95 245 l 1
 95 381 l 1
 519 381 l 1
 519 245 l 1xc8
EndSplineSet
Refer: 17 84 N 1 0 0 1 0 0 2
Validated: 5
EndChar

StartChar: tbar
Encoding: 359 359 258
Width: 402
Flags: W
HStem: -10 132<266.058 369.041> 204 121<32 356> 373 128.011<14 372>
VStem: 95 159<132.728 646.011>
LayerCount: 2
Fore
SplineSet
356 204 m 5
 32 204 l 5
 32 325 l 5
 356 325 l 5
 356 204 l 5
EndSplineSet
Refer: 41 116 N 1 0 0 1 0 0 2
Validated: 5
EndChar

StartChar: Hbar
Encoding: 294 294 259
Width: 859
Flags: W
HStem: 0 21G<115 288 571 744> 285 146<200 644> 501.011 141<30 829> 711.008 20G<115 288 571 744>
VStem: 115 173<0 285 431 731.008> 200 88<285 431> 571 73<285 431> 571 173<0 285 431 731.008>
LayerCount: 2
Fore
SplineSet
829 501.010742188 m 5xf0
 30 498 l 5
 30 639 l 5
 829 642.010742188 l 5
 829 501.010742188 l 5xf0
EndSplineSet
Refer: 2 72 N 1 0 0 1 60 0 2
Validated: 5
EndChar

StartChar: hbar
Encoding: 295 295 260
Width: 595
Flags: W
HStem: 0 21G<55 214 381.777 540.777> 379.284 131.649<262.344 421.031> 550 121<-12 322> 731.002 20G<55 214>
VStem: 55 159<0 751.002> 381.777 159<0 351.199>
LayerCount: 2
Fore
SplineSet
322 550 m 1
 -12 550 l 1
 -12 671 l 1
 322 671 l 1
 322 550 l 1
EndSplineSet
Refer: 36 104 N 1 0 0 1 0 0 2
EndChar

StartChar: Lslash
Encoding: 321 321 267
Width: 612
Flags: W
HStem: 0 149<270 576> 711.008 20G<99 270>
VStem: 99 171<149 731.008>
LayerCount: 2
Fore
SplineSet
424 377 m 5
 30 258 l 5
 17 395 l 5
 411 514 l 5
 424 377 l 5
EndSplineSet
Refer: 7 76 N 1 0 0 1 44 0 2
Validated: 5
EndChar

StartChar: lslash
Encoding: 322 322 268
Width: 425
Flags: W
HStem: -10.0088 139<268.828 376.252> 731.002 20G<99 258>
VStem: 99 159<137.522 751.002>
LayerCount: 2
Fore
SplineSet
364 415 m 5
 30 286 l 1
 17 415 l 1
 351 544 l 5
 364 415 l 5
EndSplineSet
Refer: 35 108 N 1 0 0 1 44 0 2
Validated: 5
EndChar

StartChar: guilsinglleft
Encoding: 8249 8249 269
Width: 340
Flags: W
VStem: 35 300
LayerCount: 2
Fore
SplineSet
35 281 m 1
 175 441 l 1
 335 441 l 1
 181.75 254 l 1
 335 67 l 1
 175 67 l 1
 35 227 l 1
 35 281 l 1
EndSplineSet
Validated: 1
Substitution2: "'case' Case-Sensitive Forms lookup 27-1" guilsinglleft.case
EndChar

StartChar: guilsinglright
Encoding: 8250 8250 270
Width: 340
Flags: W
VStem: 5 300
LayerCount: 2
Fore
SplineSet
305 227 m 1
 165 67 l 1
 5 67 l 1
 158.25 254 l 1
 5 441 l 1
 165 441 l 1
 305 281 l 1
 305 227 l 1
EndSplineSet
Validated: 1
Substitution2: "'case' Case-Sensitive Forms lookup 27-1" guilsinglright.case
EndChar

StartChar: uni20AE
Encoding: 8366 8366 271
Width: 614
Flags: W
HStem: 0 21G<221.5 392.5> 585 116<221.5 392.5> 585 146<30 221.5 392.5 584>
VStem: 221.5 171<0 701>
LayerCount: 2
Fore
SplineSet
504 275 m 5x90
 120 125 l 1
 120 211 l 1
 504 361 l 5
 504 275 l 5x90
504 405 m 5
 120 255 l 1
 120 341 l 1
 504 491 l 5
 504 405 l 5
EndSplineSet
Refer: 17 84 N 1 0 0 1 0 0 2
Validated: 5
EndChar

StartChar: estimated
Encoding: 8494 8494 272
Width: 765
Flags: W
HStem: -9.99805 119.462<306.626 614.203> 294 110<132 548> 362 42<548 613> 621.659 117.462<280.833 506.911>
VStem: 129.849 100<294 609.562> 132 37.8486<296.776 399.732> 548 105<362 404 418.734 629> 613.598 39.4023<404.004 488.628>
LayerCount: 2
Fore
SplineSet
548 629 m 5xb2
 653 629 l 1
 653 362 l 1
 548 362 l 5
 548 629 l 5xb2
129.848632812 609.561523438 m 1
 229.848632812 609.561523438 l 1
 229.848632812 132.561523438 l 1
 129.848632812 132.561523438 l 1x98
 129.848632812 609.561523438 l 1
35 364.561523438 m 0
 35 591.206054688 163.541887394 739.12109375 389.888671875 739.12109375 c 0
 633.541980974 739.12109375 740.108398438 587.014334807 740.108398438 395.891601562 c 0
 740.108398438 317.689453126 732 294 732 294 c 1
 132 294 l 1xd5
 130 404 l 1
 613 404 l 1
 613 404 613.597710941 409.501200731 613.597710941 418.734006035 c 0
 613.597710941 488.628002661 587.326861447 621.659179688 395 621.659179688 c 0
 217.883301373 621.659179688 169.848632812 518.731037146 169.848632812 364.561523438 c 0xb5
 169.848632812 211.59131676 228.927080951 109.463867188 450 109.463867188 c 0
 581.720714467 109.463867188 660.018554688 146.595703125 660.018554688 146.595703125 c 1
 678.827148438 30.595703125 l 1
 678.827148438 30.595703125 601.565136453 -9.998046875 425.888671875 -9.998046875 c 0
 176.581210181 -9.998046875 35 137.916992188 35 364.561523438 c 0
EndSplineSet
Validated: 5
EndChar

StartChar: uni2E3A
Encoding: 11834 11834 274
Width: 1080
Flags: W
HStem: 209 131<30 1050>
LayerCount: 2
Fore
SplineSet
30 209 m 1
 30 340 l 5
 1050 340 l 5
 1050 209 l 1
 30 209 l 1
EndSplineSet
Validated: 1
Substitution2: "'case' Case-Sensitive Forms lookup 27-1" uni2E3A.case
EndChar

StartChar: uni2E3B
Encoding: 11835 11835 275
Width: 1380
Flags: W
HStem: 209 131<30 1350>
LayerCount: 2
Fore
SplineSet
30 209 m 1
 30 340 l 5
 1350 340 l 5
 1350 209 l 1
 30 209 l 1
EndSplineSet
Validated: 1
Substitution2: "'case' Case-Sensitive Forms lookup 27-1" uni2E3B.case
EndChar

StartChar: pi
Encoding: 960 960 276
Width: 661
Flags: W
HStem: -10 132<464.671 626.19> 0 21G<64 239> 367 134.011<14 113 274 368 527 631>
VStem: 113 161<129.791 481.011> 368 159<127.437 441.011>
LayerCount: 2
Fore
SplineSet
64 0 m 1x78
 64 0 113 157.927152318 113 401 c 2
 113 481.010742188 l 1
 274 481.010742188 l 1
 274 379 l 2
 274 142.428571429 239 0 239 0 c 1
 64 0 l 1x78
14 501.010742188 m 1
 631 501.010742188 l 1
 631 367 l 1
 14 367 l 1
 14 501.010742188 l 1
527 176 m 2
 527 138.265072229 541.797634549 122 577 122 c 0
 604.996874999 122 625 133 625 133 c 1
 635 6 l 1
 635 6 592.4778125 -10 531 -10 c 0xb8
 398.342883104 -10 368 62.0572345577 368 171 c 2
 368 441.010742188 l 1
 527 461.010742188 l 1
 527 176 l 2
EndSplineSet
EndChar

StartChar: radical
Encoding: 8730 8730 277
Width: 707
Flags: W
HStem: 0 21G<306.63 476.17>
LayerCount: 2
Fore
SplineSet
393.001953125 206.951171875 m 1
 545.633789062 743 l 5
 702.633789062 713 l 5
 469.633789062 0 l 1
 314.633789062 0 l 1
 168.145507812 366.029296875 l 1
 50.1962890625 321.939453125 l 1
 5 456.4296875 l 1
 270.455078125 543.497070312 l 1
 393.001953125 206.951171875 l 1
EndSplineSet
Validated: 1
EndChar

